<?xml version="1.0" encoding="UTF-8" standalone="no"?>
<!DOCTYPE svg PUBLIC "-//W3C//DTD SVG 1.1//EN"
 "http://www.w3.org/Graphics/SVG/1.1/DTD/svg11.dtd">
<!-- Generated by graphviz version 2.28.0 (20110507.0327)
 -->
<!-- Title: G Pages: 1 -->
<svg width="686pt" height="101pt"
 viewBox="0.00 0.00 686.00 101.00" xmlns="http://www.w3.org/2000/svg" xmlns:xlink="http://www.w3.org/1999/xlink">
<g id="graph1" class="graph" transform="scale(1 1) rotate(0) translate(4 97)">
<title>G</title>
<polygon fill="white" stroke="white" points="-4,5 -4,-97 683,-97 683,5 -4,5"/>
<text text-anchor="start" x="20.5" y="-23.6" font-family="Verdana" font-size="8.00">Title: ASGS (StateElectoralDivision)</text>
<text text-anchor="start" x="71.5" y="-15.6" font-family="Verdana" font-size="8.00">Prefix: asgs</text>
<text text-anchor="start" x="8.5" y="-7.6" font-family="Verdana" font-size="8.00">URI: http://linked.data.gov.au/def/asgs#</text>
<!-- 1 -->
<g id="node2" class="node"><title>1</title>
<polygon fill="#ffd180" stroke="#706f6f" points="451.5,-93.5 274.5,-93.5 274.5,-32.5 451.5,-32.5 451.5,-93.5"/>
<text text-anchor="start" x="307.5" y="-78.1" font-family="Verdana" font-size="8.00">:StateElectoralDivision</text>
<text text-anchor="start" x="283" y="-54.6" font-family="Verdana" font-size="8.00">:sedCode2016 string</text>
<text text-anchor="start" x="283" y="-46.6" font-family="Verdana" font-size="8.00">:sedCode2011 string</text>
<text text-anchor="start" x="283" y="-38.6" font-family="Verdana" font-size="8.00">:stateelectoraldivisionIdentifier string</text>
</g>
<!-- 2 -->
<g id="node4" class="node"><title>2</title>
<polygon fill="#ffd180" stroke="#706f6f" points="677.5,-81 608.5,-81 608.5,-45 677.5,-45 677.5,-81"/>
<text text-anchor="start" x="622.5" y="-61.1" font-family="Verdana" font-size="8.00">:Feature</text>
</g>
<!-- 1&#45;&gt;2 -->
<g id="edge3" class="edge"><title>1&#45;&gt;2</title>
<path fill="none" stroke="brown" d="M451.579,-63C499.546,-63 557.022,-63 596.193,-63"/>
<polygon fill="brown" stroke="brown" points="596.232,-67.2001 608.232,-63 596.232,-58.8001 596.232,-67.2001"/>
<text text-anchor="middle" x="530" y="-65.6" font-family="Verdana" font-size="8.00" fill="brown">rdfs:subClassOf</text>
</g>
<!-- 3 -->
<g id="node5" class="node"><title>3</title>
<polygon fill="#ffd180" stroke="#706f6f" points="100,-81 0,-81 0,-45 100,-45 100,-81"/>
<text text-anchor="start" x="13.5" y="-61.1" font-family="Verdana" font-size="8.00">:SedToSa1Path</text>
</g>
<!-- 3&#45;&gt;1 -->
<g id="edge5" class="edge"><title>3&#45;&gt;1</title>
<path fill="none" stroke="brown" d="M100.279,-63C143.67,-63 208.198,-63 262.323,-63"/>
<polygon fill="brown" stroke="brown" points="262.411,-67.2001 274.411,-63 262.411,-58.8001 262.411,-67.2001"/>
<text text-anchor="middle" x="187" y="-65.6" font-family="Verdana" font-size="8.00" fill="brown">:sedToSa1PathFrom</text>
</g>
</g>
</svg>
