<?xml version="1.0" encoding="UTF-8" standalone="no"?>
<!DOCTYPE svg PUBLIC "-//W3C//DTD SVG 1.1//EN"
 "http://www.w3.org/Graphics/SVG/1.1/DTD/svg11.dtd">
<!-- Generated by graphviz version 2.28.0 (20110507.0327)
 -->
<!-- Title: G Pages: 1 -->
<svg width="294pt" height="124pt"
 viewBox="0.00 0.00 294.00 124.00" xmlns="http://www.w3.org/2000/svg" xmlns:xlink="http://www.w3.org/1999/xlink">
<g id="graph1" class="graph" transform="scale(1 1) rotate(0) translate(4 120)">
<title>G</title>
<polygon fill="white" stroke="white" points="-4,5 -4,-120 291,-120 291,5 -4,5"/>
<text text-anchor="start" x="51" y="-23.6" font-family="Verdana" font-size="8.00">Title: ASGS (Feature)</text>
<text text-anchor="start" x="71.5" y="-15.6" font-family="Verdana" font-size="8.00">Prefix: asgs</text>
<text text-anchor="start" x="8.5" y="-7.6" font-family="Verdana" font-size="8.00">URI: http://linked.data.gov.au/def/asgs#</text>
<!-- 1 -->
<g id="node2" class="node"><title>1</title>
<polygon fill="#ffd180" stroke="#706f6f" points="285.5,-85.5 216.5,-85.5 216.5,-32.5 285.5,-32.5 285.5,-85.5"/>
<text text-anchor="start" x="230.5" y="-70.1" font-family="Verdana" font-size="8.00">:Feature</text>
<text text-anchor="start" x="225" y="-46.6" font-family="Verdana" font-size="8.00">:label string</text>
<text text-anchor="start" x="225" y="-38.6" font-family="Verdana" font-size="8.00">:code string</text>
</g>
<!-- 1&#45;&gt;1 -->
<g id="edge3" class="edge"><title>1&#45;&gt;1</title>
<path fill="none" stroke="brown" d="M234.327,-85.6548C232.962,-97.1543 238.52,-107 251,-107 258.605,-107 263.64,-103.344 266.104,-97.8855"/>
<polygon fill="brown" stroke="brown" points="270.312,-98.0918 267.673,-85.6548 261.98,-97.0227 270.312,-98.0918"/>
<text text-anchor="middle" x="251" y="-109.6" font-family="Verdana" font-size="8.00" fill="brown">:contains</text>
</g>
<!-- 2 -->
<g id="node4" class="node"><title>2</title>
<polygon fill="#ffd180" stroke="#706f6f" points="104,-77 0,-77 0,-41 104,-41 104,-77"/>
<text text-anchor="start" x="13.5" y="-57.1" font-family="Verdana" font-size="8.00">:GeospatialPath</text>
</g>
<!-- 2&#45;&gt;1 -->
<g id="edge5" class="edge"><title>2&#45;&gt;1</title>
<path fill="none" stroke="brown" d="M104.245,-59C135.169,-59 174.236,-59 204.139,-59"/>
<polygon fill="brown" stroke="brown" points="204.343,-63.2001 216.343,-59 204.343,-54.8001 204.343,-63.2001"/>
<text text-anchor="middle" x="160" y="-61.6" font-family="Verdana" font-size="8.00" fill="brown">:from</text>
</g>
<!-- 2&#45;&gt;1 -->
<g id="edge7" class="edge"><title>2&#45;&gt;1</title>
<path fill="none" stroke="brown" d="M104.032,-48.3774C125.326,-45.1597 150.334,-42.9563 173,-45 183.198,-45.9195 194.064,-47.5109 204.322,-49.2988"/>
<polygon fill="brown" stroke="brown" points="203.882,-53.4887 216.446,-51.5453 205.412,-45.2293 203.882,-53.4887"/>
<text text-anchor="middle" x="160" y="-47.6" font-family="Verdana" font-size="8.00" fill="brown">:to</text>
</g>
</g>
</svg>
