<?xml version="1.0" encoding="UTF-8" standalone="no"?>
<!DOCTYPE svg PUBLIC "-//W3C//DTD SVG 1.1//EN"
 "http://www.w3.org/Graphics/SVG/1.1/DTD/svg11.dtd">
<!-- Generated by graphviz version 2.28.0 (20110507.0327)
 -->
<!-- Title: G Pages: 1 -->
<svg width="838pt" height="309pt"
 viewBox="0.00 0.00 838.00 309.00" xmlns="http://www.w3.org/2000/svg" xmlns:xlink="http://www.w3.org/1999/xlink">
<g id="graph1" class="graph" transform="scale(1 1) rotate(0) translate(4 305)">
<title>G</title>
<polygon fill="white" stroke="white" points="-4,5 -4,-305 835,-305 835,5 -4,5"/>
<text text-anchor="start" x="32" y="-23.6" font-family="Verdana" font-size="8.00">Title: ASGS (StateOrTerritory)</text>
<text text-anchor="start" x="71.5" y="-15.6" font-family="Verdana" font-size="8.00">Prefix: asgs</text>
<text text-anchor="start" x="8.5" y="-7.6" font-family="Verdana" font-size="8.00">URI: http://linked.data.gov.au/def/asgs#</text>
<!-- 1 -->
<g id="node2" class="node"><title>1</title>
<polygon fill="#ffd180" stroke="#706f6f" points="457.5,-205.5 292.5,-205.5 292.5,-128.5 457.5,-128.5 457.5,-205.5"/>
<text text-anchor="start" x="333" y="-190.1" font-family="Verdana" font-size="8.00">:StateOrTerritory</text>
<text text-anchor="start" x="301" y="-166.6" font-family="Verdana" font-size="8.00">:stateOrTerritory1DigitCode string</text>
<text text-anchor="start" x="301" y="-158.6" font-family="Verdana" font-size="8.00">:stateCode2016 string</text>
<text text-anchor="start" x="301" y="-150.6" font-family="Verdana" font-size="8.00">:stateCode2011 string</text>
<text text-anchor="start" x="301" y="-142.6" font-family="Verdana" font-size="8.00">:stateName2016 string</text>
<text text-anchor="start" x="301" y="-134.6" font-family="Verdana" font-size="8.00">:stateName2011 string</text>
</g>
<!-- 2 -->
<g id="node4" class="node"><title>2</title>
<polygon fill="#ffd180" stroke="#706f6f" points="767.5,-214 698.5,-214 698.5,-178 767.5,-178 767.5,-214"/>
<text text-anchor="start" x="712.5" y="-194.1" font-family="Verdana" font-size="8.00">:Feature</text>
</g>
<!-- 1&#45;&gt;2 -->
<g id="edge3" class="edge"><title>1&#45;&gt;2</title>
<path fill="none" stroke="brown" d="M457.674,-173.653C528.626,-179.433 628.8,-187.593 686.407,-192.286"/>
<polygon fill="brown" stroke="brown" points="686.07,-196.472 698.372,-193.261 686.753,-188.1 686.07,-196.472"/>
<text text-anchor="middle" x="547" y="-186.6" font-family="Verdana" font-size="8.00" fill="brown">rdfs:subClassOf</text>
</g>
<!-- 8 -->
<g id="node6" class="node"><title>8</title>
<polygon fill="#ffd180" stroke="#706f6f" points="829.5,-156 636.5,-156 636.5,-120 829.5,-120 829.5,-156"/>
<text text-anchor="start" x="650.5" y="-136.1" font-family="Verdana" font-size="8.00">:GreaterCapitalCityStatisticalArea</text>
</g>
<!-- 1&#45;&gt;8 -->
<g id="edge5" class="edge"><title>1&#45;&gt;8</title>
<path fill="none" stroke="brown" d="M457.674,-160.347C506.999,-156.329 570.446,-151.16 623.897,-146.806"/>
<polygon fill="brown" stroke="brown" points="624.575,-150.965 636.194,-145.804 623.893,-142.593 624.575,-150.965"/>
<text text-anchor="middle" x="547" y="-158.6" font-family="Verdana" font-size="8.00" fill="brown">:isStateOrTerritoryOf</text>
</g>
<!-- 3 -->
<g id="node7" class="node"><title>3</title>
<polygon fill="#ffd180" stroke="#706f6f" points="111.5,-301 0.5,-301 0.5,-265 111.5,-265 111.5,-301"/>
<text text-anchor="start" x="14.5" y="-281.1" font-family="Verdana" font-size="8.00">:StateToIregPath</text>
</g>
<!-- 3&#45;&gt;1 -->
<g id="edge7" class="edge"><title>3&#45;&gt;1</title>
<path fill="none" stroke="brown" d="M111.631,-266.417C150.285,-254.358 203.181,-237.196 249,-220 259.483,-216.066 270.378,-211.767 281.174,-207.374"/>
<polygon fill="brown" stroke="brown" points="282.863,-211.221 292.365,-202.774 279.669,-203.451 282.863,-211.221"/>
<text text-anchor="middle" x="202" y="-254.6" font-family="Verdana" font-size="8.00" fill="brown">:stateToIregPathFrom</text>
</g>
<!-- 4 -->
<g id="node9" class="node"><title>4</title>
<polygon fill="#ffd180" stroke="#706f6f" points="107,-243 5,-243 5,-207 107,-207 107,-243"/>
<text text-anchor="start" x="18.5" y="-223.1" font-family="Verdana" font-size="8.00">:StateToRaPath</text>
</g>
<!-- 4&#45;&gt;1 -->
<g id="edge9" class="edge"><title>4&#45;&gt;1</title>
<path fill="none" stroke="brown" d="M107.23,-215.81C153.6,-207.326 223.652,-194.509 280.336,-184.137"/>
<polygon fill="brown" stroke="brown" points="281.168,-188.255 292.216,-181.964 279.656,-179.992 281.168,-188.255"/>
<text text-anchor="middle" x="202" y="-208.6" font-family="Verdana" font-size="8.00" fill="brown">:stateToRaPathFrom</text>
</g>
<!-- 5 -->
<g id="node11" class="node"><title>5</title>
<polygon fill="#ffd180" stroke="#706f6f" points="109.5,-185 2.5,-185 2.5,-149 109.5,-149 109.5,-185"/>
<text text-anchor="start" x="16.5" y="-165.1" font-family="Verdana" font-size="8.00">:StateToLgaPath</text>
</g>
<!-- 5&#45;&gt;1 -->
<g id="edge11" class="edge"><title>5&#45;&gt;1</title>
<path fill="none" stroke="brown" d="M109.702,-167C156.038,-167 224.574,-167 280.243,-167"/>
<polygon fill="brown" stroke="brown" points="280.276,-171.2 292.276,-167 280.276,-162.8 280.276,-171.2"/>
<text text-anchor="middle" x="202" y="-169.6" font-family="Verdana" font-size="8.00" fill="brown">:stateToLgaPathFrom</text>
</g>
<!-- 6 -->
<g id="node13" class="node"><title>6</title>
<polygon fill="#ffd180" stroke="#706f6f" points="109.5,-127 2.5,-127 2.5,-91 109.5,-91 109.5,-127"/>
<text text-anchor="start" x="16.5" y="-107.1" font-family="Verdana" font-size="8.00">:StateToSosPath</text>
</g>
<!-- 6&#45;&gt;1 -->
<g id="edge13" class="edge"><title>6&#45;&gt;1</title>
<path fill="none" stroke="brown" d="M109.702,-118.643C156.038,-127.12 224.574,-139.66 280.243,-149.846"/>
<polygon fill="brown" stroke="brown" points="279.716,-154.019 292.276,-152.047 281.228,-145.756 279.716,-154.019"/>
<text text-anchor="middle" x="202" y="-145.6" font-family="Verdana" font-size="8.00" fill="brown">:stateToSosPathFrom</text>
</g>
<!-- 7 -->
<g id="node15" class="node"><title>7</title>
<polygon fill="#ffd180" stroke="#706f6f" points="109,-69 3,-69 3,-33 109,-33 109,-69"/>
<text text-anchor="start" x="16.5" y="-49.1" font-family="Verdana" font-size="8.00">:StateToSscPath</text>
</g>
<!-- 7&#45;&gt;1 -->
<g id="edge15" class="edge"><title>7&#45;&gt;1</title>
<path fill="none" stroke="brown" d="M109.21,-66.3839C148.087,-78.1948 202.286,-95.4131 249,-113 259.509,-116.956 270.421,-121.304 281.226,-125.761"/>
<polygon fill="brown" stroke="brown" points="279.733,-129.688 292.425,-130.433 282.968,-121.936 279.733,-129.688"/>
<text text-anchor="middle" x="202" y="-115.6" font-family="Verdana" font-size="8.00" fill="brown">:stateToSscPathFrom</text>
</g>
</g>
</svg>
