<?xml version="1.0" encoding="UTF-8" standalone="no"?>
<!DOCTYPE svg PUBLIC "-//W3C//DTD SVG 1.1//EN"
 "http://www.w3.org/Graphics/SVG/1.1/DTD/svg11.dtd">
<!-- Generated by graphviz version 2.28.0 (20110507.0327)
 -->
<!-- Title: G Pages: 1 -->
<svg width="646pt" height="135pt"
 viewBox="0.00 0.00 646.00 135.00" xmlns="http://www.w3.org/2000/svg" xmlns:xlink="http://www.w3.org/1999/xlink">
<g id="graph1" class="graph" transform="scale(1 1) rotate(0) translate(4 131)">
<title>G</title>
<polygon fill="white" stroke="white" points="-4,5 -4,-131 643,-131 643,5 -4,5"/>
<text text-anchor="start" x="26" y="-23.6" font-family="Verdana" font-size="8.00">Title: ASGS (IndigenousLocation)</text>
<text text-anchor="start" x="71.5" y="-15.6" font-family="Verdana" font-size="8.00">Prefix: asgs</text>
<text text-anchor="start" x="8.5" y="-7.6" font-family="Verdana" font-size="8.00">URI: http://linked.data.gov.au/def/asgs#</text>
<!-- 1 -->
<g id="node2" class="node"><title>1</title>
<polygon fill="#ffd180" stroke="#706f6f" points="411.5,-114.5 284.5,-114.5 284.5,-45.5 411.5,-45.5 411.5,-114.5"/>
<text text-anchor="start" x="298.5" y="-99.1" font-family="Verdana" font-size="8.00">:IndigenousLocation</text>
<text text-anchor="start" x="293" y="-75.6" font-family="Verdana" font-size="8.00">:ilocName2011 string</text>
<text text-anchor="start" x="293" y="-67.6" font-family="Verdana" font-size="8.00">:ilocName2016 string</text>
<text text-anchor="start" x="293" y="-59.6" font-family="Verdana" font-size="8.00">:ilocCode2016 string</text>
<text text-anchor="start" x="293" y="-51.6" font-family="Verdana" font-size="8.00">:ilocCode2011 string</text>
</g>
<!-- 2 -->
<g id="node4" class="node"><title>2</title>
<polygon fill="#ffd180" stroke="#706f6f" points="637.5,-98 568.5,-98 568.5,-62 637.5,-62 637.5,-98"/>
<text text-anchor="start" x="582.5" y="-78.1" font-family="Verdana" font-size="8.00">:Feature</text>
</g>
<!-- 1&#45;&gt;2 -->
<g id="edge3" class="edge"><title>1&#45;&gt;2</title>
<path fill="none" stroke="brown" d="M411.539,-80C456.398,-80 515.818,-80 556.28,-80"/>
<polygon fill="brown" stroke="brown" points="556.451,-84.2001 568.451,-80 556.45,-75.8001 556.451,-84.2001"/>
<text text-anchor="middle" x="490" y="-82.6" font-family="Verdana" font-size="8.00" fill="brown">rdfs:subClassOf</text>
</g>
<!-- 3 -->
<g id="node5" class="node"><title>3</title>
<polygon fill="#ffd180" stroke="#706f6f" points="109.5,-127 0.5,-127 0.5,-91 109.5,-91 109.5,-127"/>
<text text-anchor="start" x="14.5" y="-107.1" font-family="Verdana" font-size="8.00">:IndigenousArea</text>
</g>
<!-- 3&#45;&gt;1 -->
<g id="edge5" class="edge"><title>3&#45;&gt;1</title>
<path fill="none" stroke="brown" d="M109.713,-103.647C155.303,-99.1038 221.215,-92.5353 272.007,-87.4735"/>
<polygon fill="brown" stroke="brown" points="272.719,-91.6235 284.243,-86.2541 271.886,-83.2649 272.719,-91.6235"/>
<text text-anchor="middle" x="197" y="-100.6" font-family="Verdana" font-size="8.00" fill="brown">:isIndigenousAreaOf</text>
</g>
<!-- 4 -->
<g id="node7" class="node"><title>4</title>
<polygon fill="#ffd180" stroke="#706f6f" points="105.5,-69 4.5,-69 4.5,-33 105.5,-33 105.5,-69"/>
<text text-anchor="start" x="18.5" y="-49.1" font-family="Verdana" font-size="8.00">:IlocToSa1Path</text>
</g>
<!-- 4&#45;&gt;1 -->
<g id="edge7" class="edge"><title>4&#45;&gt;1</title>
<path fill="none" stroke="brown" d="M105.694,-55.9523C151.38,-60.5052 219.751,-67.3188 272.064,-72.5322"/>
<polygon fill="brown" stroke="brown" points="271.959,-76.7424 284.316,-73.7532 272.792,-68.3838 271.959,-76.7424"/>
<text text-anchor="middle" x="197" y="-70.6" font-family="Verdana" font-size="8.00" fill="brown">:ilocToSa1PathFrom</text>
</g>
</g>
</svg>
