<?xml version="1.0" encoding="UTF-8" standalone="no"?>
<!DOCTYPE svg PUBLIC "-//W3C//DTD SVG 1.1//EN"
 "http://www.w3.org/Graphics/SVG/1.1/DTD/svg11.dtd">
<!-- Generated by graphviz version 2.28.0 (20110507.0327)
 -->
<!-- Title: G Pages: 1 -->
<svg width="418pt" height="193pt"
 viewBox="0.00 0.00 418.00 193.00" xmlns="http://www.w3.org/2000/svg" xmlns:xlink="http://www.w3.org/1999/xlink">
<g id="graph1" class="graph" transform="scale(1 1) rotate(0) translate(4 189)">
<title>G</title>
<polygon fill="white" stroke="white" points="-4,5 -4,-189 415,-189 415,5 -4,5"/>
<text text-anchor="start" x="36.5" y="-23.6" font-family="Verdana" font-size="8.00">Title: ASGS (IlocToSa1Path)</text>
<text text-anchor="start" x="71.5" y="-15.6" font-family="Verdana" font-size="8.00">Prefix: asgs</text>
<text text-anchor="start" x="8.5" y="-7.6" font-family="Verdana" font-size="8.00">URI: http://linked.data.gov.au/def/asgs#</text>
<!-- 1 -->
<g id="node2" class="node"><title>1</title>
<polygon fill="#ffd180" stroke="#706f6f" points="101.5,-127 0.5,-127 0.5,-91 101.5,-91 101.5,-127"/>
<text text-anchor="start" x="14.5" y="-107.1" font-family="Verdana" font-size="8.00">:IlocToSa1Path</text>
</g>
<!-- 2 -->
<g id="node4" class="node"><title>2</title>
<polygon fill="#ffd180" stroke="#706f6f" points="394,-185 290,-185 290,-149 394,-149 394,-185"/>
<text text-anchor="start" x="303.5" y="-165.1" font-family="Verdana" font-size="8.00">:GeospatialPath</text>
</g>
<!-- 1&#45;&gt;2 -->
<g id="edge3" class="edge"><title>1&#45;&gt;2</title>
<path fill="none" stroke="brown" d="M101.681,-118.971C150.341,-128.736 224.685,-143.656 277.587,-154.274"/>
<polygon fill="brown" stroke="brown" points="276.945,-158.428 289.537,-156.672 278.598,-150.193 276.945,-158.428"/>
<text text-anchor="middle" x="188" y="-146.6" font-family="Verdana" font-size="8.00" fill="brown">rdfs:subClassOf</text>
</g>
<!-- 3 -->
<g id="node6" class="node"><title>3</title>
<polygon fill="#ffd180" stroke="#706f6f" points="409.5,-127 274.5,-127 274.5,-91 409.5,-91 409.5,-127"/>
<text text-anchor="start" x="288.5" y="-107.1" font-family="Verdana" font-size="8.00">:StatisticalAreaLevel1</text>
</g>
<!-- 1&#45;&gt;3 -->
<g id="edge5" class="edge"><title>1&#45;&gt;3</title>
<path fill="none" stroke="brown" d="M101.681,-109C145.831,-109 211.124,-109 262.362,-109"/>
<polygon fill="brown" stroke="brown" points="262.396,-113.2 274.396,-109 262.396,-104.8 262.396,-113.2"/>
<text text-anchor="middle" x="188" y="-111.6" font-family="Verdana" font-size="8.00" fill="brown">:ilocToSa1PathTo</text>
</g>
<!-- 4 -->
<g id="node8" class="node"><title>4</title>
<polygon fill="#ffd180" stroke="#706f6f" points="405.5,-69 278.5,-69 278.5,-33 405.5,-33 405.5,-69"/>
<text text-anchor="start" x="292.5" y="-49.1" font-family="Verdana" font-size="8.00">:IndigenousLocation</text>
</g>
<!-- 1&#45;&gt;4 -->
<g id="edge7" class="edge"><title>1&#45;&gt;4</title>
<path fill="none" stroke="brown" d="M101.681,-99.0294C147.047,-89.9248 214.737,-76.3399 266.564,-65.9388"/>
<polygon fill="brown" stroke="brown" points="267.429,-70.049 278.368,-63.5698 265.776,-61.8132 267.429,-70.049"/>
<text text-anchor="middle" x="188" y="-92.6" font-family="Verdana" font-size="8.00" fill="brown">:ilocToSa1PathFrom</text>
</g>
</g>
</svg>
