<?xml version="1.0" encoding="UTF-8" standalone="no"?>
<!DOCTYPE svg PUBLIC "-//W3C//DTD SVG 1.1//EN"
 "http://www.w3.org/Graphics/SVG/1.1/DTD/svg11.dtd">
<!-- Generated by graphviz version 2.28.0 (20110507.0327)
 -->
<!-- Title: G Pages: 1 -->
<svg width="598pt" height="93pt"
 viewBox="0.00 0.00 598.00 93.00" xmlns="http://www.w3.org/2000/svg" xmlns:xlink="http://www.w3.org/1999/xlink">
<g id="graph1" class="graph" transform="scale(1 1) rotate(0) translate(4 89)">
<title>G</title>
<polygon fill="white" stroke="white" points="-4,5 -4,-89 595,-89 595,5 -4,5"/>
<text text-anchor="start" x="35.5" y="-23.6" font-family="Verdana" font-size="8.00">Title: ASGS (TourismRegion)</text>
<text text-anchor="start" x="71.5" y="-15.6" font-family="Verdana" font-size="8.00">Prefix: asgs</text>
<text text-anchor="start" x="8.5" y="-7.6" font-family="Verdana" font-size="8.00">URI: http://linked.data.gov.au/def/asgs#</text>
<!-- 1 -->
<g id="node2" class="node"><title>1</title>
<polygon fill="#ffd180" stroke="#706f6f" points="363.5,-85.5 260.5,-85.5 260.5,-32.5 363.5,-32.5 363.5,-85.5"/>
<text text-anchor="start" x="274.5" y="-70.1" font-family="Verdana" font-size="8.00">:TourismRegion</text>
<text text-anchor="start" x="269" y="-46.6" font-family="Verdana" font-size="8.00">:trCode2011 string</text>
<text text-anchor="start" x="269" y="-38.6" font-family="Verdana" font-size="8.00">:trCode2012 string</text>
</g>
<!-- 2 -->
<g id="node4" class="node"><title>2</title>
<polygon fill="#ffd180" stroke="#706f6f" points="589.5,-77 520.5,-77 520.5,-41 589.5,-41 589.5,-77"/>
<text text-anchor="start" x="534.5" y="-57.1" font-family="Verdana" font-size="8.00">:Feature</text>
</g>
<!-- 1&#45;&gt;2 -->
<g id="edge3" class="edge"><title>1&#45;&gt;2</title>
<path fill="none" stroke="brown" d="M363.521,-59C406.176,-59 466.732,-59 508.041,-59"/>
<polygon fill="brown" stroke="brown" points="508.202,-63.2001 520.201,-59 508.201,-54.8001 508.202,-63.2001"/>
<text text-anchor="middle" x="442" y="-61.6" font-family="Verdana" font-size="8.00" fill="brown">rdfs:subClassOf</text>
</g>
<!-- 3 -->
<g id="node5" class="node"><title>3</title>
<polygon fill="#ffd180" stroke="#706f6f" points="93.5,-77 0.5,-77 0.5,-41 93.5,-41 93.5,-77"/>
<text text-anchor="start" x="14.5" y="-57.1" font-family="Verdana" font-size="8.00">:TrToSa2Path</text>
</g>
<!-- 3&#45;&gt;1 -->
<g id="edge5" class="edge"><title>3&#45;&gt;1</title>
<path fill="none" stroke="brown" d="M93.5109,-59C136.249,-59 200.566,-59 248.181,-59"/>
<polygon fill="brown" stroke="brown" points="248.211,-63.2001 260.211,-59 248.211,-54.8001 248.211,-63.2001"/>
<text text-anchor="middle" x="177" y="-61.6" font-family="Verdana" font-size="8.00" fill="brown">:trToSa2PathFrom</text>
</g>
</g>
</svg>
