<?xml version="1.0" encoding="UTF-8" standalone="no"?>
<!DOCTYPE svg PUBLIC "-//W3C//DTD SVG 1.1//EN"
 "http://www.w3.org/Graphics/SVG/1.1/DTD/svg11.dtd">
<!-- Generated by graphviz version 2.28.0 (20110507.0327)
 -->
<!-- Title: G Pages: 1 -->
<svg width="410pt" height="193pt"
 viewBox="0.00 0.00 410.00 193.00" xmlns="http://www.w3.org/2000/svg" xmlns:xlink="http://www.w3.org/1999/xlink">
<g id="graph1" class="graph" transform="scale(1 1) rotate(0) translate(4 189)">
<title>G</title>
<polygon fill="white" stroke="white" points="-4,5 -4,-189 407,-189 407,5 -4,5"/>
<text text-anchor="start" x="39" y="-23.6" font-family="Verdana" font-size="8.00">Title: ASGS (LgaToMbPath)</text>
<text text-anchor="start" x="71.5" y="-15.6" font-family="Verdana" font-size="8.00">Prefix: asgs</text>
<text text-anchor="start" x="8.5" y="-7.6" font-family="Verdana" font-size="8.00">URI: http://linked.data.gov.au/def/asgs#</text>
<!-- 1 -->
<g id="node2" class="node"><title>1</title>
<polygon fill="#ffd180" stroke="#706f6f" points="95.5,-127 0.5,-127 0.5,-91 95.5,-91 95.5,-127"/>
<text text-anchor="start" x="14.5" y="-107.1" font-family="Verdana" font-size="8.00">:LgaToMbPath</text>
</g>
<!-- 2 -->
<g id="node4" class="node"><title>2</title>
<polygon fill="#ffd180" stroke="#706f6f" points="384,-185 280,-185 280,-149 384,-149 384,-185"/>
<text text-anchor="start" x="293.5" y="-165.1" font-family="Verdana" font-size="8.00">:GeospatialPath</text>
</g>
<!-- 1&#45;&gt;2 -->
<g id="edge3" class="edge"><title>1&#45;&gt;2</title>
<path fill="none" stroke="brown" d="M95.5666,-118.578C142.589,-128.249 215.545,-143.254 267.778,-153.997"/>
<polygon fill="brown" stroke="brown" points="266.984,-158.121 279.584,-156.425 268.676,-149.894 266.984,-158.121"/>
<text text-anchor="middle" x="179" y="-145.6" font-family="Verdana" font-size="8.00" fill="brown">rdfs:subClassOf</text>
</g>
<!-- 3 -->
<g id="node6" class="node"><title>3</title>
<polygon fill="#ffd180" stroke="#706f6f" points="401.5,-127 262.5,-127 262.5,-91 401.5,-91 401.5,-127"/>
<text text-anchor="start" x="276.5" y="-107.1" font-family="Verdana" font-size="8.00">:LocalGovernmentArea</text>
</g>
<!-- 1&#45;&gt;3 -->
<g id="edge5" class="edge"><title>1&#45;&gt;3</title>
<path fill="none" stroke="brown" d="M95.5666,-109C137.55,-109 200.206,-109 250.328,-109"/>
<polygon fill="brown" stroke="brown" points="250.452,-113.2 262.452,-109 250.452,-104.8 250.452,-113.2"/>
<text text-anchor="middle" x="179" y="-111.6" font-family="Verdana" font-size="8.00" fill="brown">:lgaToMbPathFrom</text>
</g>
<!-- 4 -->
<g id="node8" class="node"><title>4</title>
<polygon fill="#ffd180" stroke="#706f6f" points="373,-69 291,-69 291,-33 373,-33 373,-69"/>
<text text-anchor="start" x="304.5" y="-49.1" font-family="Verdana" font-size="8.00">:MeshBlock</text>
</g>
<!-- 1&#45;&gt;4 -->
<g id="edge7" class="edge"><title>1&#45;&gt;4</title>
<path fill="none" stroke="brown" d="M95.5666,-99.4225C145.966,-89.0566 226.158,-72.5633 278.693,-61.7582"/>
<polygon fill="brown" stroke="brown" points="279.857,-65.8068 290.765,-59.2753 278.165,-57.579 279.857,-65.8068"/>
<text text-anchor="middle" x="179" y="-92.6" font-family="Verdana" font-size="8.00" fill="brown">:lgaToMbPathTo</text>
</g>
</g>
</svg>
