<?xml version="1.0" encoding="UTF-8" standalone="no"?>
<!DOCTYPE svg PUBLIC "-//W3C//DTD SVG 1.1//EN"
 "http://www.w3.org/Graphics/SVG/1.1/DTD/svg11.dtd">
<!-- Generated by graphviz version 2.28.0 (20110507.0327)
 -->
<!-- Title: G Pages: 1 -->
<svg width="422pt" height="193pt"
 viewBox="0.00 0.00 422.00 193.00" xmlns="http://www.w3.org/2000/svg" xmlns:xlink="http://www.w3.org/1999/xlink">
<g id="graph1" class="graph" transform="scale(1 1) rotate(0) translate(4 189)">
<title>G</title>
<polygon fill="white" stroke="white" points="-4,5 -4,-189 419,-189 419,5 -4,5"/>
<text text-anchor="start" x="36" y="-23.6" font-family="Verdana" font-size="8.00">Title: ASGS (SedToSa1Path)</text>
<text text-anchor="start" x="71.5" y="-15.6" font-family="Verdana" font-size="8.00">Prefix: asgs</text>
<text text-anchor="start" x="8.5" y="-7.6" font-family="Verdana" font-size="8.00">URI: http://linked.data.gov.au/def/asgs#</text>
<!-- 1 -->
<g id="node2" class="node"><title>1</title>
<polygon fill="#ffd180" stroke="#706f6f" points="100,-127 0,-127 0,-91 100,-91 100,-127"/>
<text text-anchor="start" x="13.5" y="-107.1" font-family="Verdana" font-size="8.00">:SedToSa1Path</text>
</g>
<!-- 2 -->
<g id="node4" class="node"><title>2</title>
<polygon fill="#ffd180" stroke="#706f6f" points="396,-185 292,-185 292,-149 396,-149 396,-185"/>
<text text-anchor="start" x="305.5" y="-165.1" font-family="Verdana" font-size="8.00">:GeospatialPath</text>
</g>
<!-- 1&#45;&gt;2 -->
<g id="edge3" class="edge"><title>1&#45;&gt;2</title>
<path fill="none" stroke="brown" d="M100.204,-118.773C149.615,-128.588 225.949,-143.75 279.813,-154.449"/>
<polygon fill="brown" stroke="brown" points="279.039,-158.577 291.627,-156.796 280.676,-150.338 279.039,-158.577"/>
<text text-anchor="middle" x="187" y="-145.6" font-family="Verdana" font-size="8.00" fill="brown">rdfs:subClassOf</text>
</g>
<!-- 3 -->
<g id="node6" class="node"><title>3</title>
<polygon fill="#ffd180" stroke="#706f6f" points="411.5,-127 276.5,-127 276.5,-91 411.5,-91 411.5,-127"/>
<text text-anchor="start" x="290.5" y="-107.1" font-family="Verdana" font-size="8.00">:StatisticalAreaLevel1</text>
</g>
<!-- 1&#45;&gt;3 -->
<g id="edge5" class="edge"><title>1&#45;&gt;3</title>
<path fill="none" stroke="brown" d="M100.204,-109C144.969,-109 211.831,-109 264.062,-109"/>
<polygon fill="brown" stroke="brown" points="264.324,-113.2 276.324,-109 264.323,-104.8 264.324,-113.2"/>
<text text-anchor="middle" x="187" y="-111.6" font-family="Verdana" font-size="8.00" fill="brown">:sedToSa1PathTo</text>
</g>
<!-- 4 -->
<g id="node8" class="node"><title>4</title>
<polygon fill="#ffd180" stroke="#706f6f" points="413.5,-69 274.5,-69 274.5,-33 413.5,-33 413.5,-69"/>
<text text-anchor="start" x="288.5" y="-49.1" font-family="Verdana" font-size="8.00">:StateElectoralDivision</text>
</g>
<!-- 1&#45;&gt;4 -->
<g id="edge7" class="edge"><title>1&#45;&gt;4</title>
<path fill="none" stroke="brown" d="M100.204,-99.2267C144.536,-90.421 210.538,-77.3109 262.542,-66.9815"/>
<polygon fill="brown" stroke="brown" points="263.47,-71.0791 274.422,-64.6216 261.834,-62.8401 263.47,-71.0791"/>
<text text-anchor="middle" x="187" y="-92.6" font-family="Verdana" font-size="8.00" fill="brown">:sedToSa1PathFrom</text>
</g>
</g>
</svg>
