<?xml version="1.0" encoding="UTF-8" standalone="no"?>
<!DOCTYPE svg PUBLIC "-//W3C//DTD SVG 1.1//EN"
 "http://www.w3.org/Graphics/SVG/1.1/DTD/svg11.dtd">
<!-- Generated by graphviz version 2.28.0 (20110507.0327)
 -->
<!-- Title: G Pages: 1 -->
<svg width="418pt" height="193pt"
 viewBox="0.00 0.00 418.00 193.00" xmlns="http://www.w3.org/2000/svg" xmlns:xlink="http://www.w3.org/1999/xlink">
<g id="graph1" class="graph" transform="scale(1 1) rotate(0) translate(4 189)">
<title>G</title>
<polygon fill="white" stroke="white" points="-4,5 -4,-189 415,-189 415,5 -4,5"/>
<text text-anchor="start" x="36" y="-23.6" font-family="Verdana" font-size="8.00">Title: ASGS (SuaToSa2Path)</text>
<text text-anchor="start" x="71.5" y="-15.6" font-family="Verdana" font-size="8.00">Prefix: asgs</text>
<text text-anchor="start" x="8.5" y="-7.6" font-family="Verdana" font-size="8.00">URI: http://linked.data.gov.au/def/asgs#</text>
<!-- 1 -->
<g id="node2" class="node"><title>1</title>
<polygon fill="#ffd180" stroke="#706f6f" points="100,-127 0,-127 0,-91 100,-91 100,-127"/>
<text text-anchor="start" x="13.5" y="-107.1" font-family="Verdana" font-size="8.00">:SuaToSa2Path</text>
</g>
<!-- 2 -->
<g id="node4" class="node"><title>2</title>
<polygon fill="#ffd180" stroke="#706f6f" points="394,-185 290,-185 290,-149 394,-149 394,-185"/>
<text text-anchor="start" x="303.5" y="-165.1" font-family="Verdana" font-size="8.00">:GeospatialPath</text>
</g>
<!-- 1&#45;&gt;2 -->
<g id="edge3" class="edge"><title>1&#45;&gt;2</title>
<path fill="none" stroke="brown" d="M100.195,-118.839C149.069,-128.614 224.227,-143.645 277.564,-154.313"/>
<polygon fill="brown" stroke="brown" points="277.017,-158.487 289.608,-156.722 278.665,-150.25 277.017,-158.487"/>
<text text-anchor="middle" x="187" y="-146.6" font-family="Verdana" font-size="8.00" fill="brown">rdfs:subClassOf</text>
</g>
<!-- 3 -->
<g id="node6" class="node"><title>3</title>
<polygon fill="#ffd180" stroke="#706f6f" points="409.5,-127 274.5,-127 274.5,-91 409.5,-91 409.5,-127"/>
<text text-anchor="start" x="288.5" y="-107.1" font-family="Verdana" font-size="8.00">:SignificantUrbanArea</text>
</g>
<!-- 1&#45;&gt;3 -->
<g id="edge5" class="edge"><title>1&#45;&gt;3</title>
<path fill="none" stroke="brown" d="M100.195,-109C144.552,-109 210.562,-109 262.257,-109"/>
<polygon fill="brown" stroke="brown" points="262.396,-113.2 274.396,-109 262.396,-104.8 262.396,-113.2"/>
<text text-anchor="middle" x="187" y="-111.6" font-family="Verdana" font-size="8.00" fill="brown">:suaToSa2PathFrom</text>
</g>
<!-- 4 -->
<g id="node8" class="node"><title>4</title>
<polygon fill="#ffd180" stroke="#706f6f" points="409.5,-69 274.5,-69 274.5,-33 409.5,-33 409.5,-69"/>
<text text-anchor="start" x="288.5" y="-49.1" font-family="Verdana" font-size="8.00">:StatisticalAreaLevel2</text>
</g>
<!-- 1&#45;&gt;4 -->
<g id="edge7" class="edge"><title>1&#45;&gt;4</title>
<path fill="none" stroke="brown" d="M100.195,-99.1611C144.646,-90.2708 210.84,-77.032 262.584,-66.6832"/>
<polygon fill="brown" stroke="brown" points="263.452,-70.7928 274.396,-64.3209 261.805,-62.5559 263.452,-70.7928"/>
<text text-anchor="middle" x="187" y="-92.6" font-family="Verdana" font-size="8.00" fill="brown">:suaToSa2PathTo</text>
</g>
</g>
</svg>
