<?xml version="1.0" encoding="UTF-8" standalone="no"?>
<!DOCTYPE svg PUBLIC "-//W3C//DTD SVG 1.1//EN"
 "http://www.w3.org/Graphics/SVG/1.1/DTD/svg11.dtd">
<!-- Generated by graphviz version 2.28.0 (20110507.0327)
 -->
<!-- Title: G Pages: 1 -->
<svg width="610pt" height="101pt"
 viewBox="0.00 0.00 610.00 101.00" xmlns="http://www.w3.org/2000/svg" xmlns:xlink="http://www.w3.org/1999/xlink">
<g id="graph1" class="graph" transform="scale(1 1) rotate(0) translate(4 97)">
<title>G</title>
<polygon fill="white" stroke="white" points="-4,5 -4,-97 607,-97 607,5 -4,5"/>
<text text-anchor="start" x="44.5" y="-23.6" font-family="Verdana" font-size="8.00">Title: ASGS (PostalArea)</text>
<text text-anchor="start" x="71.5" y="-15.6" font-family="Verdana" font-size="8.00">Prefix: asgs</text>
<text text-anchor="start" x="8.5" y="-7.6" font-family="Verdana" font-size="8.00">URI: http://linked.data.gov.au/def/asgs#</text>
<!-- 1 -->
<g id="node2" class="node"><title>1</title>
<polygon fill="#ffd180" stroke="#706f6f" points="376,-93.5 266,-93.5 266,-32.5 376,-32.5 376,-93.5"/>
<text text-anchor="start" x="292.5" y="-78.1" font-family="Verdana" font-size="8.00">:PostalArea</text>
<text text-anchor="start" x="274" y="-54.6" font-family="Verdana" font-size="8.00">:poaName2016 string</text>
<text text-anchor="start" x="274" y="-46.6" font-family="Verdana" font-size="8.00">:poaCode2016 string</text>
<text text-anchor="start" x="274" y="-38.6" font-family="Verdana" font-size="8.00">:poaCode2011 string</text>
</g>
<!-- 2 -->
<g id="node4" class="node"><title>2</title>
<polygon fill="#ffd180" stroke="#706f6f" points="601.5,-81 532.5,-81 532.5,-45 601.5,-45 601.5,-81"/>
<text text-anchor="start" x="546.5" y="-61.1" font-family="Verdana" font-size="8.00">:Feature</text>
</g>
<!-- 1&#45;&gt;2 -->
<g id="edge3" class="edge"><title>1&#45;&gt;2</title>
<path fill="none" stroke="brown" d="M376.152,-63C419.412,-63 479.361,-63 520.245,-63"/>
<polygon fill="brown" stroke="brown" points="520.281,-67.2001 532.281,-63 520.281,-58.8001 520.281,-67.2001"/>
<text text-anchor="middle" x="454" y="-65.6" font-family="Verdana" font-size="8.00" fill="brown">rdfs:subClassOf</text>
</g>
<!-- 3 -->
<g id="node5" class="node"><title>3</title>
<polygon fill="#ffd180" stroke="#706f6f" points="96,-81 0,-81 0,-45 96,-45 96,-81"/>
<text text-anchor="start" x="13.5" y="-61.1" font-family="Verdana" font-size="8.00">:PoaToMbPath</text>
</g>
<!-- 3&#45;&gt;1 -->
<g id="edge5" class="edge"><title>3&#45;&gt;1</title>
<path fill="none" stroke="brown" d="M96.2046,-63C139.822,-63 205.06,-63 253.862,-63"/>
<polygon fill="brown" stroke="brown" points="253.892,-67.2001 265.892,-63 253.892,-58.8001 253.892,-67.2001"/>
<text text-anchor="middle" x="181" y="-65.6" font-family="Verdana" font-size="8.00" fill="brown">:poaToMbPathFrom</text>
</g>
</g>
</svg>
