<?xml version="1.0" encoding="UTF-8" standalone="no"?>
<!DOCTYPE svg PUBLIC "-//W3C//DTD SVG 1.1//EN"
 "http://www.w3.org/Graphics/SVG/1.1/DTD/svg11.dtd">
<!-- Generated by graphviz version 2.28.0 (20110507.0327)
 -->
<!-- Title: G Pages: 1 -->
<svg width="404pt" height="193pt"
 viewBox="0.00 0.00 404.00 193.00" xmlns="http://www.w3.org/2000/svg" xmlns:xlink="http://www.w3.org/1999/xlink">
<g id="graph1" class="graph" transform="scale(1 1) rotate(0) translate(4 189)">
<title>G</title>
<polygon fill="white" stroke="white" points="-4,5 -4,-189 401,-189 401,5 -4,5"/>
<text text-anchor="start" x="40" y="-23.6" font-family="Verdana" font-size="8.00">Title: ASGS (TrToSa2Path)</text>
<text text-anchor="start" x="71.5" y="-15.6" font-family="Verdana" font-size="8.00">Prefix: asgs</text>
<text text-anchor="start" x="8.5" y="-7.6" font-family="Verdana" font-size="8.00">URI: http://linked.data.gov.au/def/asgs#</text>
<!-- 1 -->
<g id="node2" class="node"><title>1</title>
<polygon fill="#ffd180" stroke="#706f6f" points="93.5,-127 0.5,-127 0.5,-91 93.5,-91 93.5,-127"/>
<text text-anchor="start" x="14.5" y="-107.1" font-family="Verdana" font-size="8.00">:TrToSa2Path</text>
</g>
<!-- 2 -->
<g id="node4" class="node"><title>2</title>
<polygon fill="#ffd180" stroke="#706f6f" points="380,-185 276,-185 276,-149 380,-149 380,-185"/>
<text text-anchor="start" x="289.5" y="-165.1" font-family="Verdana" font-size="8.00">:GeospatialPath</text>
</g>
<!-- 1&#45;&gt;2 -->
<g id="edge3" class="edge"><title>1&#45;&gt;2</title>
<path fill="none" stroke="brown" d="M93.7588,-118.513C139.986,-128.123 211.775,-143.046 263.5,-153.799"/>
<polygon fill="brown" stroke="brown" points="262.926,-157.97 275.529,-156.3 264.635,-149.745 262.926,-157.97"/>
<text text-anchor="middle" x="177" y="-145.6" font-family="Verdana" font-size="8.00" fill="brown">rdfs:subClassOf</text>
</g>
<!-- 3 -->
<g id="node6" class="node"><title>3</title>
<polygon fill="#ffd180" stroke="#706f6f" points="379.5,-127 276.5,-127 276.5,-91 379.5,-91 379.5,-127"/>
<text text-anchor="start" x="290.5" y="-107.1" font-family="Verdana" font-size="8.00">:TourismRegion</text>
</g>
<!-- 1&#45;&gt;3 -->
<g id="edge5" class="edge"><title>1&#45;&gt;3</title>
<path fill="none" stroke="brown" d="M93.7588,-109C140.272,-109 212.665,-109 264.458,-109"/>
<polygon fill="brown" stroke="brown" points="264.494,-113.2 276.494,-109 264.493,-104.8 264.494,-113.2"/>
<text text-anchor="middle" x="177" y="-111.6" font-family="Verdana" font-size="8.00" fill="brown">:trToSa2PathFrom</text>
</g>
<!-- 4 -->
<g id="node8" class="node"><title>4</title>
<polygon fill="#ffd180" stroke="#706f6f" points="395.5,-69 260.5,-69 260.5,-33 395.5,-33 395.5,-69"/>
<text text-anchor="start" x="274.5" y="-49.1" font-family="Verdana" font-size="8.00">:StatisticalAreaLevel2</text>
</g>
<!-- 1&#45;&gt;4 -->
<g id="edge7" class="edge"><title>1&#45;&gt;4</title>
<path fill="none" stroke="brown" d="M93.7588,-99.4874C135.604,-90.7884 198.395,-77.7352 248.288,-67.363"/>
<polygon fill="brown" stroke="brown" points="249.454,-71.4106 260.348,-64.856 247.744,-63.1864 249.454,-71.4106"/>
<text text-anchor="middle" x="177" y="-92.6" font-family="Verdana" font-size="8.00" fill="brown">:trToSa2PathTo</text>
</g>
</g>
</svg>
