<?xml version="1.0" encoding="UTF-8" standalone="no"?>
<!DOCTYPE svg PUBLIC "-//W3C//DTD SVG 1.1//EN"
 "http://www.w3.org/Graphics/SVG/1.1/DTD/svg11.dtd">
<!-- Generated by graphviz version 2.28.0 (20110507.0327)
 -->
<!-- Title: G Pages: 1 -->
<svg width="644pt" height="109pt"
 viewBox="0.00 0.00 644.00 109.00" xmlns="http://www.w3.org/2000/svg" xmlns:xlink="http://www.w3.org/1999/xlink">
<g id="graph1" class="graph" transform="scale(1 1) rotate(0) translate(4 105)">
<title>G</title>
<polygon fill="white" stroke="white" points="-4,5 -4,-105 641,-105 641,5 -4,5"/>
<text text-anchor="start" x="22" y="-23.6" font-family="Verdana" font-size="8.00">Title: ASGS (SignificantUrbanArea)</text>
<text text-anchor="start" x="71.5" y="-15.6" font-family="Verdana" font-size="8.00">Prefix: asgs</text>
<text text-anchor="start" x="8.5" y="-7.6" font-family="Verdana" font-size="8.00">URI: http://linked.data.gov.au/def/asgs#</text>
<!-- 1 -->
<g id="node2" class="node"><title>1</title>
<polygon fill="#ffd180" stroke="#706f6f" points="409.5,-101.5 274.5,-101.5 274.5,-32.5 409.5,-32.5 409.5,-101.5"/>
<text text-anchor="start" x="288.5" y="-86.1" font-family="Verdana" font-size="8.00">:SignificantUrbanArea</text>
<text text-anchor="start" x="283" y="-62.6" font-family="Verdana" font-size="8.00">:suaCode2016 string</text>
<text text-anchor="start" x="283" y="-54.6" font-family="Verdana" font-size="8.00">:suaCode2011 string</text>
<text text-anchor="start" x="283" y="-46.6" font-family="Verdana" font-size="8.00">:suaName2011 string</text>
<text text-anchor="start" x="283" y="-38.6" font-family="Verdana" font-size="8.00">:suaName2016 string</text>
</g>
<!-- 2 -->
<g id="node4" class="node"><title>2</title>
<polygon fill="#ffd180" stroke="#706f6f" points="635.5,-85 566.5,-85 566.5,-49 635.5,-49 635.5,-85"/>
<text text-anchor="start" x="580.5" y="-65.1" font-family="Verdana" font-size="8.00">:Feature</text>
</g>
<!-- 1&#45;&gt;2 -->
<g id="edge3" class="edge"><title>1&#45;&gt;2</title>
<path fill="none" stroke="brown" d="M409.518,-67C454.977,-67 514.044,-67 554.271,-67"/>
<polygon fill="brown" stroke="brown" points="554.372,-71.2001 566.372,-67 554.372,-62.8001 554.372,-71.2001"/>
<text text-anchor="middle" x="488" y="-69.6" font-family="Verdana" font-size="8.00" fill="brown">rdfs:subClassOf</text>
</g>
<!-- 3 -->
<g id="node5" class="node"><title>3</title>
<polygon fill="#ffd180" stroke="#706f6f" points="100,-85 0,-85 0,-49 100,-49 100,-85"/>
<text text-anchor="start" x="13.5" y="-65.1" font-family="Verdana" font-size="8.00">:SuaToSa2Path</text>
</g>
<!-- 3&#45;&gt;1 -->
<g id="edge5" class="edge"><title>3&#45;&gt;1</title>
<path fill="none" stroke="brown" d="M100.195,-67C144.552,-67 210.562,-67 262.257,-67"/>
<polygon fill="brown" stroke="brown" points="262.396,-71.2001 274.396,-67 262.396,-62.8001 262.396,-71.2001"/>
<text text-anchor="middle" x="187" y="-69.6" font-family="Verdana" font-size="8.00" fill="brown">:suaToSa2PathFrom</text>
</g>
</g>
</svg>
