<?xml version="1.0" encoding="UTF-8" standalone="no"?>
<!DOCTYPE svg PUBLIC "-//W3C//DTD SVG 1.1//EN"
 "http://www.w3.org/Graphics/SVG/1.1/DTD/svg11.dtd">
<!-- Generated by graphviz version 2.28.0 (20110507.0327)
 -->
<!-- Title: G Pages: 1 -->
<svg width="720pt" height="109pt"
 viewBox="0.00 0.00 720.00 109.00" xmlns="http://www.w3.org/2000/svg" xmlns:xlink="http://www.w3.org/1999/xlink">
<g id="graph1" class="graph" transform="scale(1 1) rotate(0) translate(4 105)">
<title>G</title>
<polygon fill="white" stroke="white" points="-4,5 -4,-105 717,-105 717,5 -4,5"/>
<text text-anchor="start" x="8.5" y="-23.6" font-family="Verdana" font-size="8.00">Title: ASGS (NaturalResourceManagementRegion)</text>
<text text-anchor="start" x="90" y="-15.6" font-family="Verdana" font-size="8.00">Prefix: asgs</text>
<text text-anchor="start" x="27" y="-7.6" font-family="Verdana" font-size="8.00">URI: http://linked.data.gov.au/def/asgs#</text>
<!-- 1 -->
<g id="node2" class="node"><title>1</title>
<polygon fill="#ffd180" stroke="#706f6f" points="485.5,-101.5 278.5,-101.5 278.5,-32.5 485.5,-32.5 485.5,-101.5"/>
<text text-anchor="start" x="292.5" y="-86.1" font-family="Verdana" font-size="8.00">:NaturalResourceManagementRegion</text>
<text text-anchor="start" x="287" y="-62.6" font-family="Verdana" font-size="8.00">:nrmrName2016 string</text>
<text text-anchor="start" x="287" y="-54.6" font-family="Verdana" font-size="8.00">:nrmrName2011 string</text>
<text text-anchor="start" x="287" y="-46.6" font-family="Verdana" font-size="8.00">:nrmrCode2016 string</text>
<text text-anchor="start" x="287" y="-38.6" font-family="Verdana" font-size="8.00">:nrmrCode2011 string</text>
</g>
<!-- 2 -->
<g id="node4" class="node"><title>2</title>
<polygon fill="#ffd180" stroke="#706f6f" points="711.5,-85 642.5,-85 642.5,-49 711.5,-49 711.5,-85"/>
<text text-anchor="start" x="656.5" y="-65.1" font-family="Verdana" font-size="8.00">:Feature</text>
</g>
<!-- 1&#45;&gt;2 -->
<g id="edge3" class="edge"><title>1&#45;&gt;2</title>
<path fill="none" stroke="brown" d="M485.889,-67C535.18,-67 591.719,-67 630.24,-67"/>
<polygon fill="brown" stroke="brown" points="630.329,-71.2001 642.329,-67 630.329,-62.8001 630.329,-71.2001"/>
<text text-anchor="middle" x="564" y="-69.6" font-family="Verdana" font-size="8.00" fill="brown">rdfs:subClassOf</text>
</g>
<!-- 3 -->
<g id="node5" class="node"><title>3</title>
<polygon fill="#ffd180" stroke="#706f6f" points="103.5,-85 0.5,-85 0.5,-49 103.5,-49 103.5,-85"/>
<text text-anchor="start" x="14.5" y="-65.1" font-family="Verdana" font-size="8.00">:NrmrToMbPath</text>
</g>
<!-- 3&#45;&gt;1 -->
<g id="edge5" class="edge"><title>3&#45;&gt;1</title>
<path fill="none" stroke="brown" d="M103.531,-67C146.808,-67 210.762,-67 266.366,-67"/>
<polygon fill="brown" stroke="brown" points="266.46,-71.2001 278.46,-67 266.46,-62.8001 266.46,-71.2001"/>
<text text-anchor="middle" x="191" y="-69.6" font-family="Verdana" font-size="8.00" fill="brown">:nrmrToMbPathFrom</text>
</g>
</g>
</svg>
