<?xml version="1.0" encoding="UTF-8" standalone="no"?>
<!DOCTYPE svg PUBLIC "-//W3C//DTD SVG 1.1//EN"
 "http://www.w3.org/Graphics/SVG/1.1/DTD/svg11.dtd">
<!-- Generated by graphviz version 2.28.0 (20110507.0327)
 -->
<!-- Title: G Pages: 1 -->
<svg width="778pt" height="135pt"
 viewBox="0.00 0.00 778.00 135.00" xmlns="http://www.w3.org/2000/svg" xmlns:xlink="http://www.w3.org/1999/xlink">
<g id="graph1" class="graph" transform="scale(1 1) rotate(0) translate(4 131)">
<title>G</title>
<polygon fill="white" stroke="white" points="-4,5 -4,-131 775,-131 775,5 -4,5"/>
<text text-anchor="start" x="33.5" y="-23.6" font-family="Verdana" font-size="8.00">Title: ASGS (IndigenousArea)</text>
<text text-anchor="start" x="71.5" y="-15.6" font-family="Verdana" font-size="8.00">Prefix: asgs</text>
<text text-anchor="start" x="8.5" y="-7.6" font-family="Verdana" font-size="8.00">URI: http://linked.data.gov.au/def/asgs#</text>
<!-- 1 -->
<g id="node2" class="node"><title>1</title>
<polygon fill="#ffd180" stroke="#706f6f" points="468,-118.5 302,-118.5 302,-41.5 468,-41.5 468,-118.5"/>
<text text-anchor="start" x="344" y="-103.1" font-family="Verdana" font-size="8.00">:IndigenousArea</text>
<text text-anchor="start" x="310" y="-79.6" font-family="Verdana" font-size="8.00">:indigenousAreas6DigitCode string</text>
<text text-anchor="start" x="310" y="-71.6" font-family="Verdana" font-size="8.00">:iareCode2016 string</text>
<text text-anchor="start" x="310" y="-63.6" font-family="Verdana" font-size="8.00">:iareCode2011 string</text>
<text text-anchor="start" x="310" y="-55.6" font-family="Verdana" font-size="8.00">:iareName2016 string</text>
<text text-anchor="start" x="310" y="-47.6" font-family="Verdana" font-size="8.00">:iareName2011 string</text>
</g>
<!-- 2 -->
<g id="node4" class="node"><title>2</title>
<polygon fill="#ffd180" stroke="#706f6f" points="740.5,-127 671.5,-127 671.5,-91 740.5,-91 740.5,-127"/>
<text text-anchor="start" x="685.5" y="-107.1" font-family="Verdana" font-size="8.00">:Feature</text>
</g>
<!-- 1&#45;&gt;2 -->
<g id="edge3" class="edge"><title>1&#45;&gt;2</title>
<path fill="none" stroke="brown" d="M468.15,-87.4682C528.905,-92.9914 609.417,-100.311 659.183,-104.835"/>
<polygon fill="brown" stroke="brown" points="658.811,-109.018 671.142,-105.922 659.572,-100.653 658.811,-109.018"/>
<text text-anchor="middle" x="555" y="-100.6" font-family="Verdana" font-size="8.00" fill="brown">rdfs:subClassOf</text>
</g>
<!-- 3 -->
<g id="node6" class="node"><title>3</title>
<polygon fill="#ffd180" stroke="#706f6f" points="769.5,-69 642.5,-69 642.5,-33 769.5,-33 769.5,-69"/>
<text text-anchor="start" x="656.5" y="-49.1" font-family="Verdana" font-size="8.00">:IndigenousLocation</text>
</g>
<!-- 1&#45;&gt;3 -->
<g id="edge5" class="edge"><title>1&#45;&gt;3</title>
<path fill="none" stroke="brown" d="M468.15,-72.5318C518.184,-67.9833 581.616,-62.2167 630.241,-57.7963"/>
<polygon fill="brown" stroke="brown" points="630.697,-61.9722 642.267,-56.703 629.936,-53.6067 630.697,-61.9722"/>
<text text-anchor="middle" x="555" y="-71.6" font-family="Verdana" font-size="8.00" fill="brown">:isIndigenousAreaOf</text>
</g>
<!-- 4 -->
<g id="node7" class="node"><title>4</title>
<polygon fill="#ffd180" stroke="#706f6f" points="118,-98 0,-98 0,-62 118,-62 118,-98"/>
<text text-anchor="start" x="13.5" y="-78.1" font-family="Verdana" font-size="8.00">:IndigenousRegion</text>
</g>
<!-- 4&#45;&gt;1 -->
<g id="edge7" class="edge"><title>4&#45;&gt;1</title>
<path fill="none" stroke="brown" d="M118.299,-80C165.895,-80 234.094,-80 289.479,-80"/>
<polygon fill="brown" stroke="brown" points="289.812,-84.2001 301.812,-80 289.812,-75.8001 289.812,-84.2001"/>
<text text-anchor="middle" x="210" y="-82.6" font-family="Verdana" font-size="8.00" fill="brown">:isIndigenousRegionOf</text>
</g>
</g>
</svg>
