<?xml version="1.0" encoding="UTF-8" standalone="no"?>
<!DOCTYPE svg PUBLIC "-//W3C//DTD SVG 1.1//EN"
 "http://www.w3.org/Graphics/SVG/1.1/DTD/svg11.dtd">
<!-- Generated by graphviz version 2.28.0 (20110507.0327)
 -->
<!-- Title: G Pages: 1 -->
<svg width="294pt" height="77pt"
 viewBox="0.00 0.00 294.00 77.00" xmlns="http://www.w3.org/2000/svg" xmlns:xlink="http://www.w3.org/1999/xlink">
<g id="graph1" class="graph" transform="scale(1 1) rotate(0) translate(4 73)">
<title>G</title>
<polygon fill="white" stroke="white" points="-4,5 -4,-73 291,-73 291,5 -4,5"/>
<text text-anchor="start" x="35.5" y="-23.6" font-family="Verdana" font-size="8.00">Title: ASGS (GeospatialPath)</text>
<text text-anchor="start" x="71.5" y="-15.6" font-family="Verdana" font-size="8.00">Prefix: asgs</text>
<text text-anchor="start" x="8.5" y="-7.6" font-family="Verdana" font-size="8.00">URI: http://linked.data.gov.au/def/asgs#</text>
<!-- 1 -->
<g id="node2" class="node"><title>1</title>
<polygon fill="#ffd180" stroke="#706f6f" points="104,-69 0,-69 0,-33 104,-33 104,-69"/>
<text text-anchor="start" x="13.5" y="-49.1" font-family="Verdana" font-size="8.00">:GeospatialPath</text>
</g>
<!-- 2 -->
<g id="node4" class="node"><title>2</title>
<polygon fill="#ffd180" stroke="#706f6f" points="285.5,-69 216.5,-69 216.5,-33 285.5,-33 285.5,-69"/>
<text text-anchor="start" x="230.5" y="-49.1" font-family="Verdana" font-size="8.00">:Feature</text>
</g>
<!-- 1&#45;&gt;2 -->
<g id="edge3" class="edge"><title>1&#45;&gt;2</title>
<path fill="none" stroke="brown" d="M104.245,-51C135.169,-51 174.236,-51 204.139,-51"/>
<polygon fill="brown" stroke="brown" points="204.343,-55.2001 216.343,-51 204.343,-46.8001 204.343,-55.2001"/>
<text text-anchor="middle" x="160" y="-53.6" font-family="Verdana" font-size="8.00" fill="brown">:from</text>
</g>
<!-- 1&#45;&gt;2 -->
<g id="edge5" class="edge"><title>1&#45;&gt;2</title>
<path fill="none" stroke="brown" d="M104.032,-40.3774C125.326,-37.1597 150.334,-34.9563 173,-37 183.198,-37.9195 194.064,-39.5109 204.322,-41.2988"/>
<polygon fill="brown" stroke="brown" points="203.882,-45.4887 216.446,-43.5453 205.412,-37.2293 203.882,-45.4887"/>
<text text-anchor="middle" x="160" y="-39.6" font-family="Verdana" font-size="8.00" fill="brown">:to</text>
</g>
</g>
</svg>
