<?xml version="1.0" encoding="UTF-8" standalone="no"?>
<!DOCTYPE svg PUBLIC "-//W3C//DTD SVG 1.1//EN"
 "http://www.w3.org/Graphics/SVG/1.1/DTD/svg11.dtd">
<!-- Generated by graphviz version 2.28.0 (20110507.0327)
 -->
<!-- Title: G Pages: 1 -->
<svg width="620pt" height="142pt"
 viewBox="0.00 0.00 620.00 142.00" xmlns="http://www.w3.org/2000/svg" xmlns:xlink="http://www.w3.org/1999/xlink">
<g id="graph1" class="graph" transform="scale(1 1) rotate(0) translate(4 138)">
<title>G</title>
<polygon fill="white" stroke="white" points="-4,5 -4,-138 617,-138 617,5 -4,5"/>
<text text-anchor="start" x="40.5" y="-23.6" font-family="Verdana" font-size="8.00">Title: ASGS (StateSuburb)</text>
<text text-anchor="start" x="71.5" y="-15.6" font-family="Verdana" font-size="8.00">Prefix: asgs</text>
<text text-anchor="start" x="8.5" y="-7.6" font-family="Verdana" font-size="8.00">URI: http://linked.data.gov.au/def/asgs#</text>
<!-- 1 -->
<g id="node2" class="node"><title>1</title>
<polygon fill="#ffd180" stroke="#706f6f" points="386,-106.5 278,-106.5 278,-53.5 386,-53.5 386,-106.5"/>
<text text-anchor="start" x="300" y="-91.1" font-family="Verdana" font-size="8.00">:StateSuburb</text>
<text text-anchor="start" x="286" y="-67.6" font-family="Verdana" font-size="8.00">:sscName2016 string</text>
<text text-anchor="start" x="286" y="-59.6" font-family="Verdana" font-size="8.00">:sscCode2016 string</text>
</g>
<!-- 2 -->
<g id="node4" class="node"><title>2</title>
<polygon fill="#ffd180" stroke="#706f6f" points="611.5,-98 542.5,-98 542.5,-62 611.5,-62 611.5,-98"/>
<text text-anchor="start" x="556.5" y="-78.1" font-family="Verdana" font-size="8.00">:Feature</text>
</g>
<!-- 1&#45;&gt;2 -->
<g id="edge3" class="edge"><title>1&#45;&gt;2</title>
<path fill="none" stroke="brown" d="M386.027,-80C429.056,-80 489.098,-80 530.091,-80"/>
<polygon fill="brown" stroke="brown" points="530.162,-84.2001 542.162,-80 530.162,-75.8001 530.162,-84.2001"/>
<text text-anchor="middle" x="464" y="-82.6" font-family="Verdana" font-size="8.00" fill="brown">rdfs:subClassOf</text>
</g>
<!-- 3 -->
<g id="node5" class="node"><title>3</title>
<polygon fill="#ffd180" stroke="#706f6f" points="106,-134 0,-134 0,-98 106,-98 106,-134"/>
<text text-anchor="start" x="13.5" y="-114.1" font-family="Verdana" font-size="8.00">:StateToSscPath</text>
</g>
<!-- 3&#45;&gt;1 -->
<g id="edge5" class="edge"><title>3&#45;&gt;1</title>
<path fill="none" stroke="brown" d="M106.102,-109.229C151.322,-103.352 217.003,-94.8155 265.72,-88.4841"/>
<polygon fill="brown" stroke="brown" points="266.359,-92.6365 277.717,-86.9248 265.276,-84.3065 266.359,-92.6365"/>
<text text-anchor="middle" x="192" y="-105.6" font-family="Verdana" font-size="8.00" fill="brown">:stateToSscPathTo</text>
</g>
<!-- 4 -->
<g id="node7" class="node"><title>4</title>
<polygon fill="#ffd180" stroke="#706f6f" points="100,-69 6,-69 6,-33 100,-33 100,-69"/>
<text text-anchor="start" x="19.5" y="-49.1" font-family="Verdana" font-size="8.00">:SscToMbPath</text>
</g>
<!-- 4&#45;&gt;1 -->
<g id="edge7" class="edge"><title>4&#45;&gt;1</title>
<path fill="none" stroke="brown" d="M100.052,-55.8213C145.247,-60.5529 214.612,-67.815 265.531,-73.1458"/>
<polygon fill="brown" stroke="brown" points="265.354,-77.3502 277.726,-74.4226 266.229,-68.9958 265.354,-77.3502"/>
<text text-anchor="middle" x="192" y="-71.6" font-family="Verdana" font-size="8.00" fill="brown">:sscToSa1PathFrom</text>
</g>
<!-- 4&#45;&gt;1 -->
<g id="edge9" class="edge"><title>4&#45;&gt;1</title>
<path fill="none" stroke="brown" d="M100.088,-45.2656C136.872,-41.8185 189.583,-39.4118 235,-47 245.356,-48.7303 256.092,-51.4426 266.469,-54.5861"/>
<polygon fill="brown" stroke="brown" points="265.284,-58.6168 277.994,-58.289 267.854,-50.6194 265.284,-58.6168"/>
<text text-anchor="middle" x="192" y="-49.6" font-family="Verdana" font-size="8.00" fill="brown">:sscToMbPathFrom</text>
</g>
</g>
</svg>
