<?xml version="1.0" encoding="UTF-8" standalone="no"?>
<!DOCTYPE svg PUBLIC "-//W3C//DTD SVG 1.1//EN"
 "http://www.w3.org/Graphics/SVG/1.1/DTD/svg11.dtd">
<!-- Generated by graphviz version 2.28.0 (20110507.0327)
 -->
<!-- Title: G Pages: 1 -->
<svg width="612pt" height="135pt"
 viewBox="0.00 0.00 612.00 135.00" xmlns="http://www.w3.org/2000/svg" xmlns:xlink="http://www.w3.org/1999/xlink">
<g id="graph1" class="graph" transform="scale(1 1) rotate(0) translate(4 131)">
<title>G</title>
<polygon fill="white" stroke="white" points="-4,5 -4,-131 609,-131 609,5 -4,5"/>
<text text-anchor="start" x="32.5" y="-23.6" font-family="Verdana" font-size="8.00">Title: ASGS (DestinationZone)</text>
<text text-anchor="start" x="71.5" y="-15.6" font-family="Verdana" font-size="8.00">Prefix: asgs</text>
<text text-anchor="start" x="8.5" y="-7.6" font-family="Verdana" font-size="8.00">URI: http://linked.data.gov.au/def/asgs#</text>
<!-- 1 -->
<g id="node2" class="node"><title>1</title>
<polygon fill="#ffd180" stroke="#706f6f" points="378,-110.5 268,-110.5 268,-49.5 378,-49.5 378,-110.5"/>
<text text-anchor="start" x="281.5" y="-95.1" font-family="Verdana" font-size="8.00">:DestinationZone</text>
<text text-anchor="start" x="276" y="-71.6" font-family="Verdana" font-size="8.00">:dzn5dig11 string</text>
<text text-anchor="start" x="276" y="-63.6" font-family="Verdana" font-size="8.00">:dznCode11 string</text>
<text text-anchor="start" x="276" y="-55.6" font-family="Verdana" font-size="8.00">:dznCode2016 string</text>
</g>
<!-- 2 -->
<g id="node4" class="node"><title>2</title>
<polygon fill="#ffd180" stroke="#706f6f" points="603.5,-98 534.5,-98 534.5,-62 603.5,-62 603.5,-98"/>
<text text-anchor="start" x="548.5" y="-78.1" font-family="Verdana" font-size="8.00">:Feature</text>
</g>
<!-- 1&#45;&gt;2 -->
<g id="edge3" class="edge"><title>1&#45;&gt;2</title>
<path fill="none" stroke="brown" d="M378.152,-80C421.412,-80 481.361,-80 522.245,-80"/>
<polygon fill="brown" stroke="brown" points="522.281,-84.2001 534.281,-80 522.281,-75.8001 522.281,-84.2001"/>
<text text-anchor="middle" x="456" y="-82.6" font-family="Verdana" font-size="8.00" fill="brown">rdfs:subClassOf</text>
</g>
<!-- 3 -->
<g id="node5" class="node"><title>3</title>
<polygon fill="#ffd180" stroke="#706f6f" points="100,-127 0,-127 0,-91 100,-91 100,-127"/>
<text text-anchor="start" x="13.5" y="-107.1" font-family="Verdana" font-size="8.00">:Sa2ToDznPath</text>
</g>
<!-- 3&#45;&gt;1 -->
<g id="edge5" class="edge"><title>3&#45;&gt;1</title>
<path fill="none" stroke="brown" d="M100.076,-103.748C143.574,-99.0936 207.464,-92.2566 255.536,-87.1124"/>
<polygon fill="brown" stroke="brown" points="256.221,-91.2631 267.706,-85.81 255.327,-82.9108 256.221,-91.2631"/>
<text text-anchor="middle" x="184" y="-100.6" font-family="Verdana" font-size="8.00" fill="brown">:sa2ToDznPathTo</text>
</g>
<!-- 4 -->
<g id="node7" class="node"><title>4</title>
<polygon fill="#ffd180" stroke="#706f6f" points="98,-69 2,-69 2,-33 98,-33 98,-69"/>
<text text-anchor="start" x="15.5" y="-49.1" font-family="Verdana" font-size="8.00">:DznToMbPath</text>
</g>
<!-- 4&#45;&gt;1 -->
<g id="edge7" class="edge"><title>4&#45;&gt;1</title>
<path fill="none" stroke="brown" d="M98.2046,-56.0514C141.822,-60.719 207.06,-67.7001 255.862,-72.9225"/>
<polygon fill="brown" stroke="brown" points="255.513,-77.109 267.892,-74.2098 256.407,-68.7567 255.513,-77.109"/>
<text text-anchor="middle" x="184" y="-70.6" font-family="Verdana" font-size="8.00" fill="brown">:dznToMbPathFrom</text>
</g>
</g>
</svg>
