<?xml version="1.0" encoding="UTF-8" standalone="no"?>
<!DOCTYPE svg PUBLIC "-//W3C//DTD SVG 1.1//EN"
 "http://www.w3.org/Graphics/SVG/1.1/DTD/svg11.dtd">
<!-- Generated by graphviz version 2.28.0 (20110507.0327)
 -->
<!-- Title: G Pages: 1 -->
<svg width="440pt" height="193pt"
 viewBox="0.00 0.00 440.00 193.00" xmlns="http://www.w3.org/2000/svg" xmlns:xlink="http://www.w3.org/1999/xlink">
<g id="graph1" class="graph" transform="scale(1 1) rotate(0) translate(4 189)">
<title>G</title>
<polygon fill="white" stroke="white" points="-4,5 -4,-189 437,-189 437,5 -4,5"/>
<text text-anchor="start" x="38.5" y="-23.6" font-family="Verdana" font-size="8.00">Title: ASGS (AddToMbPath)</text>
<text text-anchor="start" x="71.5" y="-15.6" font-family="Verdana" font-size="8.00">Prefix: asgs</text>
<text text-anchor="start" x="8.5" y="-7.6" font-family="Verdana" font-size="8.00">URI: http://linked.data.gov.au/def/asgs#</text>
<!-- 1 -->
<g id="node2" class="node"><title>1</title>
<polygon fill="#ffd180" stroke="#706f6f" points="97.5,-127 0.5,-127 0.5,-91 97.5,-91 97.5,-127"/>
<text text-anchor="start" x="14.5" y="-107.1" font-family="Verdana" font-size="8.00">:AddToMbPath</text>
</g>
<!-- 2 -->
<g id="node4" class="node"><title>2</title>
<polygon fill="#ffd180" stroke="#706f6f" points="402,-185 298,-185 298,-149 402,-149 402,-185"/>
<text text-anchor="start" x="311.5" y="-165.1" font-family="Verdana" font-size="8.00">:GeospatialPath</text>
</g>
<!-- 1&#45;&gt;2 -->
<g id="edge3" class="edge"><title>1&#45;&gt;2</title>
<path fill="none" stroke="brown" d="M97.7081,-118.254C148.705,-128.147 229.795,-143.877 286.008,-154.781"/>
<polygon fill="brown" stroke="brown" points="285.378,-158.937 297.958,-157.099 286.978,-150.691 285.378,-158.937"/>
<text text-anchor="middle" x="183" y="-143.6" font-family="Verdana" font-size="8.00" fill="brown">rdfs:subClassOf</text>
</g>
<!-- 3 -->
<g id="node6" class="node"><title>3</title>
<polygon fill="#ffd180" stroke="#706f6f" points="391,-127 309,-127 309,-91 391,-91 391,-127"/>
<text text-anchor="start" x="322.5" y="-107.1" font-family="Verdana" font-size="8.00">:MeshBlock</text>
</g>
<!-- 1&#45;&gt;3 -->
<g id="edge5" class="edge"><title>1&#45;&gt;3</title>
<path fill="none" stroke="brown" d="M97.7081,-109C151.97,-109 240.303,-109 296.485,-109"/>
<polygon fill="brown" stroke="brown" points="296.653,-113.2 308.652,-109 296.652,-104.8 296.653,-113.2"/>
<text text-anchor="middle" x="183" y="-111.6" font-family="Verdana" font-size="8.00" fill="brown">:addToMbPathTo</text>
</g>
<!-- 4 -->
<g id="node8" class="node"><title>4</title>
<polygon fill="#ffd180" stroke="#706f6f" points="432,-69 268,-69 268,-33 432,-33 432,-69"/>
<text text-anchor="start" x="281.5" y="-49.1" font-family="Verdana" font-size="8.00">:AustralianDrainageDivision</text>
</g>
<!-- 1&#45;&gt;4 -->
<g id="edge7" class="edge"><title>1&#45;&gt;4</title>
<path fill="none" stroke="brown" d="M97.7081,-99.7456C140.154,-91.5118 203.449,-79.2339 255.895,-69.0605"/>
<polygon fill="brown" stroke="brown" points="256.957,-73.1328 267.938,-66.7244 255.358,-64.8865 256.957,-73.1328"/>
<text text-anchor="middle" x="183" y="-92.6" font-family="Verdana" font-size="8.00" fill="brown">:addToMbPathFrom</text>
</g>
</g>
</svg>
