<?xml version="1.0" encoding="UTF-8" standalone="no"?>
<!DOCTYPE svg PUBLIC "-//W3C//DTD SVG 1.1//EN"
 "http://www.w3.org/Graphics/SVG/1.1/DTD/svg11.dtd">
<!-- Generated by graphviz version 2.28.0 (20110507.0327)
 -->
<!-- Title: G Pages: 1 -->
<svg width="378pt" height="207pt"
 viewBox="0.00 0.00 378.00 207.00" xmlns="http://www.w3.org/2000/svg" xmlns:xlink="http://www.w3.org/1999/xlink">
<g id="graph1" class="graph" transform="scale(1 1) rotate(0) translate(4 203)">
<title>G</title>
<polygon fill="white" stroke="white" points="-4,5 -4,-203 375,-203 375,5 -4,5"/>
<text text-anchor="start" x="39" y="-23.6" font-family="Verdana" font-size="8.00">Title: ASGS (SscToMbPath)</text>
<text text-anchor="start" x="71.5" y="-15.6" font-family="Verdana" font-size="8.00">Prefix: asgs</text>
<text text-anchor="start" x="8.5" y="-7.6" font-family="Verdana" font-size="8.00">URI: http://linked.data.gov.au/def/asgs#</text>
<!-- 1 -->
<g id="node2" class="node"><title>1</title>
<polygon fill="#ffd180" stroke="#706f6f" points="94,-127 -7.10543e-015,-127 -7.10543e-015,-91 94,-91 94,-127"/>
<text text-anchor="start" x="13.5" y="-107.1" font-family="Verdana" font-size="8.00">:SscToMbPath</text>
</g>
<!-- 2 -->
<g id="node4" class="node"><title>2</title>
<polygon fill="#ffd180" stroke="#706f6f" points="370,-199 266,-199 266,-163 370,-163 370,-199"/>
<text text-anchor="start" x="279.5" y="-179.1" font-family="Verdana" font-size="8.00">:GeospatialPath</text>
</g>
<!-- 1&#45;&gt;2 -->
<g id="edge3" class="edge"><title>1&#45;&gt;2</title>
<path fill="none" stroke="brown" d="M94.148,-122.137C107.919,-126.011 123.058,-130.222 137,-134 175.761,-144.503 219.333,-155.891 253.898,-164.827"/>
<polygon fill="brown" stroke="brown" points="253.057,-168.947 265.726,-167.88 255.156,-160.814 253.057,-168.947"/>
<text text-anchor="middle" x="180" y="-158.6" font-family="Verdana" font-size="8.00" fill="brown">rdfs:subClassOf</text>
</g>
<!-- 3 -->
<g id="node6" class="node"><title>3</title>
<polygon fill="#ffd180" stroke="#706f6f" points="359,-134 277,-134 277,-98 359,-98 359,-134"/>
<text text-anchor="start" x="290.5" y="-114.1" font-family="Verdana" font-size="8.00">:MeshBlock</text>
</g>
<!-- 1&#45;&gt;3 -->
<g id="edge5" class="edge"><title>1&#45;&gt;3</title>
<path fill="none" stroke="brown" d="M94.1099,-115.174C107.88,-116.749 123.028,-118.218 137,-119 179.988,-121.407 228.833,-120.355 264.784,-118.87"/>
<polygon fill="brown" stroke="brown" points="265.13,-123.059 276.932,-118.331 264.758,-114.667 265.13,-123.059"/>
<text text-anchor="middle" x="180" y="-122.6" font-family="Verdana" font-size="8.00" fill="brown">:sscToMbPathTo</text>
</g>
<!-- 1&#45;&gt;3 -->
<g id="edge11" class="edge"><title>1&#45;&gt;3</title>
<path fill="none" stroke="brown" d="M94.0719,-108.534C129.37,-108.354 179.276,-108.481 223,-110 236.513,-110.469 251.104,-111.262 264.666,-112.119"/>
<polygon fill="brown" stroke="brown" points="264.521,-116.319 276.772,-112.917 265.074,-107.937 264.521,-116.319"/>
<text text-anchor="middle" x="180" y="-112.6" font-family="Verdana" font-size="8.00" fill="brown">:sscToSa1PathTo</text>
</g>
<!-- 4 -->
<g id="node8" class="node"><title>4</title>
<polygon fill="#ffd180" stroke="#706f6f" points="363.5,-69 272.5,-69 272.5,-33 363.5,-33 363.5,-69"/>
<text text-anchor="start" x="286.5" y="-49.1" font-family="Verdana" font-size="8.00">:StateSuburb</text>
</g>
<!-- 1&#45;&gt;4 -->
<g id="edge7" class="edge"><title>1&#45;&gt;4</title>
<path fill="none" stroke="brown" d="M94.2427,-99.0294C140.316,-89.0955 211.127,-73.8277 260.504,-63.1813"/>
<polygon fill="brown" stroke="brown" points="261.409,-67.2827 272.255,-60.6477 259.639,-59.0714 261.409,-67.2827"/>
<text text-anchor="middle" x="180" y="-90.6" font-family="Verdana" font-size="8.00" fill="brown">:sscToSa1PathFrom</text>
</g>
<!-- 1&#45;&gt;4 -->
<g id="edge9" class="edge"><title>1&#45;&gt;4</title>
<path fill="none" stroke="brown" d="M71.4338,-90.9258C88.5686,-78.8492 112.929,-63.9489 137,-57 177.04,-45.441 224.179,-44.2919 260.172,-45.8462"/>
<polygon fill="brown" stroke="brown" points="260.203,-50.0536 272.408,-46.4961 260.648,-41.6655 260.203,-50.0536"/>
<text text-anchor="middle" x="180" y="-59.6" font-family="Verdana" font-size="8.00" fill="brown">:sscToMbPathFrom</text>
</g>
</g>
</svg>
