<?xml version="1.0" encoding="UTF-8" standalone="no"?>
<!DOCTYPE svg PUBLIC "-//W3C//DTD SVG 1.1//EN"
 "http://www.w3.org/Graphics/SVG/1.1/DTD/svg11.dtd">
<!-- Generated by graphviz version 2.28.0 (20110507.0327)
 -->
<!-- Title: G Pages: 1 -->
<svg width="696pt" height="77pt"
 viewBox="0.00 0.00 696.00 77.00" xmlns="http://www.w3.org/2000/svg" xmlns:xlink="http://www.w3.org/1999/xlink">
<g id="graph1" class="graph" transform="scale(1 1) rotate(0) translate(4 73)">
<title>G</title>
<polygon fill="white" stroke="white" points="-4,5 -4,-73 693,-73 693,5 -4,5"/>
<text text-anchor="start" x="8.5" y="-23.6" font-family="Verdana" font-size="8.00">Title: ASGS (CommonwealthElectoralDivision)</text>
<text text-anchor="start" x="81.5" y="-15.6" font-family="Verdana" font-size="8.00">Prefix: asgs</text>
<text text-anchor="start" x="18.5" y="-7.6" font-family="Verdana" font-size="8.00">URI: http://linked.data.gov.au/def/asgs#</text>
<!-- 1 -->
<g id="node2" class="node"><title>1</title>
<polygon fill="#ffd180" stroke="#706f6f" points="461.5,-69 274.5,-69 274.5,-33 461.5,-33 461.5,-69"/>
<text text-anchor="start" x="288.5" y="-49.1" font-family="Verdana" font-size="8.00">:CommonwealthElectoralDivision</text>
</g>
<!-- 2 -->
<g id="node4" class="node"><title>2</title>
<polygon fill="#ffd180" stroke="#706f6f" points="687.5,-69 618.5,-69 618.5,-33 687.5,-33 687.5,-69"/>
<text text-anchor="start" x="632.5" y="-49.1" font-family="Verdana" font-size="8.00">:Feature</text>
</g>
<!-- 1&#45;&gt;2 -->
<g id="edge3" class="edge"><title>1&#45;&gt;2</title>
<path fill="none" stroke="brown" d="M461.665,-51C509.998,-51 566.995,-51 605.934,-51"/>
<polygon fill="brown" stroke="brown" points="606.158,-55.2001 618.158,-51 606.158,-46.8001 606.158,-55.2001"/>
<text text-anchor="middle" x="540" y="-53.6" font-family="Verdana" font-size="8.00" fill="brown">rdfs:subClassOf</text>
</g>
<!-- 3 -->
<g id="node5" class="node"><title>3</title>
<polygon fill="#ffd180" stroke="#706f6f" points="100,-69 0,-69 0,-33 100,-33 100,-69"/>
<text text-anchor="start" x="13.5" y="-49.1" font-family="Verdana" font-size="8.00">:CedToSa1Path</text>
</g>
<!-- 3&#45;&gt;1 -->
<g id="edge5" class="edge"><title>3&#45;&gt;1</title>
<path fill="none" stroke="brown" d="M100.028,-51C143.141,-51 207.358,-51 262.006,-51"/>
<polygon fill="brown" stroke="brown" points="262.228,-55.2001 274.228,-51 262.228,-46.8001 262.228,-55.2001"/>
<text text-anchor="middle" x="187" y="-53.6" font-family="Verdana" font-size="8.00" fill="brown">:cedToSa1PathFrom</text>
</g>
</g>
</svg>
