<?xml version="1.0" encoding="UTF-8" standalone="no"?>
<!DOCTYPE svg PUBLIC "-//W3C//DTD SVG 1.1//EN"
 "http://www.w3.org/Graphics/SVG/1.1/DTD/svg11.dtd">
<!-- Generated by graphviz version 2.28.0 (20110507.0327)
 -->
<!-- Title: G Pages: 1 -->
<svg width="672pt" height="425pt"
 viewBox="0.00 0.00 672.00 425.00" xmlns="http://www.w3.org/2000/svg" xmlns:xlink="http://www.w3.org/1999/xlink">
<g id="graph1" class="graph" transform="scale(1 1) rotate(0) translate(4 421)">
<title>G</title>
<polygon fill="white" stroke="white" points="-4,5 -4,-421 669,-421 669,5 -4,5"/>
<text text-anchor="start" x="44.5" y="-23.6" font-family="Verdana" font-size="8.00">Title: ASGS (MeshBlock)</text>
<text text-anchor="start" x="71.5" y="-15.6" font-family="Verdana" font-size="8.00">Prefix: asgs</text>
<text text-anchor="start" x="8.5" y="-7.6" font-family="Verdana" font-size="8.00">URI: http://linked.data.gov.au/def/asgs#</text>
<!-- 1 -->
<g id="node2" class="node"><title>1</title>
<polygon fill="#ffd180" stroke="#706f6f" points="437.5,-273.5 332.5,-273.5 332.5,-212.5 437.5,-212.5 437.5,-273.5"/>
<text text-anchor="start" x="358" y="-258.1" font-family="Verdana" font-size="8.00">:MeshBlock</text>
<text text-anchor="start" x="341" y="-234.6" font-family="Verdana" font-size="8.00">:mbCode2016 string</text>
<text text-anchor="start" x="341" y="-226.6" font-family="Verdana" font-size="8.00">:mbCode2011 string</text>
<text text-anchor="start" x="341" y="-218.6" font-family="Verdana" font-size="8.00">:category string</text>
</g>
<!-- 2 -->
<g id="node4" class="node"><title>2</title>
<polygon fill="#ffd180" stroke="#706f6f" points="663.5,-261 594.5,-261 594.5,-225 663.5,-225 663.5,-261"/>
<text text-anchor="start" x="608.5" y="-241.1" font-family="Verdana" font-size="8.00">:Feature</text>
</g>
<!-- 1&#45;&gt;2 -->
<g id="edge3" class="edge"><title>1&#45;&gt;2</title>
<path fill="none" stroke="brown" d="M437.618,-243C480.516,-243 540.987,-243 582.189,-243"/>
<polygon fill="brown" stroke="brown" points="582.317,-247.2 594.317,-243 582.317,-238.8 582.317,-247.2"/>
<text text-anchor="middle" x="516" y="-245.6" font-family="Verdana" font-size="8.00" fill="brown">rdfs:subClassOf</text>
</g>
<!-- 3 -->
<g id="node5" class="node"><title>3</title>
<polygon fill="#ffd180" stroke="#706f6f" points="116.5,-417 19.5,-417 19.5,-381 116.5,-381 116.5,-417"/>
<text text-anchor="start" x="33.5" y="-397.1" font-family="Verdana" font-size="8.00">:AddToMbPath</text>
</g>
<!-- 3&#45;&gt;1 -->
<g id="edge5" class="edge"><title>3&#45;&gt;1</title>
<path fill="none" stroke="brown" d="M116.777,-392.645C163.267,-384.879 234.65,-368.655 289,-337 313.122,-322.951 335.554,-301.345 352.556,-282.388"/>
<polygon fill="brown" stroke="brown" points="355.726,-285.144 360.45,-273.34 349.396,-279.621 355.726,-285.144"/>
<text text-anchor="middle" x="234" y="-381.6" font-family="Verdana" font-size="8.00" fill="brown">:addToMbPathTo</text>
</g>
<!-- 4 -->
<g id="node7" class="node"><title>4</title>
<polygon fill="#ffd180" stroke="#706f6f" points="116,-359 20,-359 20,-323 116,-323 116,-359"/>
<text text-anchor="start" x="33.5" y="-339.1" font-family="Verdana" font-size="8.00">:DznToMbPath</text>
</g>
<!-- 4&#45;&gt;1 -->
<g id="edge7" class="edge"><title>4&#45;&gt;1</title>
<path fill="none" stroke="brown" d="M116.038,-335.259C161.358,-328.782 231.342,-316.274 289,-295 300.764,-290.66 312.845,-285.052 324.28,-279.132"/>
<polygon fill="brown" stroke="brown" points="326.414,-282.754 335.015,-273.391 322.452,-275.346 326.414,-282.754"/>
<text text-anchor="middle" x="234" y="-325.6" font-family="Verdana" font-size="8.00" fill="brown">:dznToMbPathTo</text>
</g>
<!-- 5 -->
<g id="node9" class="node"><title>5</title>
<polygon fill="#ffd180" stroke="#706f6f" points="115,-301 21,-301 21,-265 115,-265 115,-301"/>
<text text-anchor="start" x="34.5" y="-281.1" font-family="Verdana" font-size="8.00">:SscToMbPath</text>
</g>
<!-- 5&#45;&gt;1 -->
<g id="edge9" class="edge"><title>5&#45;&gt;1</title>
<path fill="none" stroke="brown" d="M115.277,-283.579C160.039,-283.411 229.628,-281.226 289,-271 299.342,-269.219 310.152,-266.696 320.619,-263.885"/>
<polygon fill="brown" stroke="brown" points="321.834,-267.907 332.249,-260.614 319.56,-259.82 321.834,-267.907"/>
<text text-anchor="middle" x="234" y="-283.6" font-family="Verdana" font-size="8.00" fill="brown">:sscToMbPathTo</text>
</g>
<!-- 5&#45;&gt;1 -->
<g id="edge11" class="edge"><title>5&#45;&gt;1</title>
<path fill="none" stroke="brown" d="M115.131,-273.169C134.749,-269.255 157.921,-264.982 179,-262 226.147,-255.331 279.739,-250.457 320.301,-247.317"/>
<polygon fill="brown" stroke="brown" points="320.8,-251.491 332.449,-246.398 320.166,-243.115 320.8,-251.491"/>
<text text-anchor="middle" x="234" y="-264.6" font-family="Verdana" font-size="8.00" fill="brown">:sscToSa1PathTo</text>
</g>
<!-- 6 -->
<g id="node12" class="node"><title>6</title>
<polygon fill="#ffd180" stroke="#706f6f" points="116,-243 20,-243 20,-207 116,-207 116,-243"/>
<text text-anchor="start" x="33.5" y="-223.1" font-family="Verdana" font-size="8.00">:PoaToMbPath</text>
</g>
<!-- 6&#45;&gt;1 -->
<g id="edge13" class="edge"><title>6&#45;&gt;1</title>
<path fill="none" stroke="brown" d="M116.319,-222.865C160.948,-221.407 229.662,-220.597 289,-226 299.194,-226.928 309.933,-228.382 320.376,-230.057"/>
<polygon fill="brown" stroke="brown" points="319.916,-234.239 332.45,-232.107 321.322,-225.957 319.916,-234.239"/>
<text text-anchor="middle" x="234" y="-228.6" font-family="Verdana" font-size="8.00" fill="brown">:poaToMbPathTo</text>
</g>
<!-- 7 -->
<g id="node14" class="node"><title>7</title>
<polygon fill="#ffd180" stroke="#706f6f" points="119.5,-185 16.5,-185 16.5,-149 119.5,-149 119.5,-185"/>
<text text-anchor="start" x="30.5" y="-165.1" font-family="Verdana" font-size="8.00">:NrmrToMbPath</text>
</g>
<!-- 7&#45;&gt;1 -->
<g id="edge15" class="edge"><title>7&#45;&gt;1</title>
<path fill="none" stroke="brown" d="M119.833,-173.555C164.808,-179.989 231.96,-191.15 289,-207 299.483,-209.913 310.43,-213.512 321.009,-217.298"/>
<polygon fill="brown" stroke="brown" points="319.592,-221.252 332.304,-221.456 322.494,-213.369 319.592,-221.252"/>
<text text-anchor="middle" x="234" y="-209.6" font-family="Verdana" font-size="8.00" fill="brown">:nrmrToMbPathTo</text>
</g>
<!-- 8 -->
<g id="node16" class="node"><title>8</title>
<polygon fill="#ffd180" stroke="#706f6f" points="135.5,-127 0.5,-127 0.5,-91 135.5,-91 135.5,-127"/>
<text text-anchor="start" x="14.5" y="-107.1" font-family="Verdana" font-size="8.00">:StatisticalAreaLevel1</text>
</g>
<!-- 8&#45;&gt;1 -->
<g id="edge17" class="edge"><title>8&#45;&gt;1</title>
<path fill="none" stroke="brown" d="M135.976,-120.106C180.901,-129.25 240.497,-144.727 289,-169 307.734,-178.375 326.357,-191.749 342.086,-204.554"/>
<polygon fill="brown" stroke="brown" points="339.581,-207.935 351.48,-212.413 344.971,-201.492 339.581,-207.935"/>
<text text-anchor="middle" x="234" y="-171.6" font-family="Verdana" font-size="8.00" fill="brown">:isStatisticalAreaLevel1Of</text>
</g>
<!-- 9 -->
<g id="node18" class="node"><title>9</title>
<polygon fill="#ffd180" stroke="#706f6f" points="115.5,-69 20.5,-69 20.5,-33 115.5,-33 115.5,-69"/>
<text text-anchor="start" x="34.5" y="-49.1" font-family="Verdana" font-size="8.00">:LgaToMbPath</text>
</g>
<!-- 9&#45;&gt;1 -->
<g id="edge19" class="edge"><title>9&#45;&gt;1</title>
<path fill="none" stroke="brown" d="M115.635,-56.3678C162.878,-63.6729 236.309,-80.3211 289,-117 320.363,-138.832 345.752,-174.279 362.366,-202.023"/>
<polygon fill="brown" stroke="brown" points="358.856,-204.344 368.512,-212.615 366.122,-200.128 358.856,-204.344"/>
<text text-anchor="middle" x="234" y="-119.6" font-family="Verdana" font-size="8.00" fill="brown">:lgaToMbPathTo</text>
</g>
</g>
</svg>
