<?xml version="1.0" encoding="UTF-8" standalone="no"?>
<!DOCTYPE svg PUBLIC "-//W3C//DTD SVG 1.1//EN"
 "http://www.w3.org/Graphics/SVG/1.1/DTD/svg11.dtd">
<!-- Generated by graphviz version 2.28.0 (20110507.0327)
 -->
<!-- Title: G Pages: 1 -->
<svg width="342pt" height="93pt"
 viewBox="0.00 0.00 342.00 93.00" xmlns="http://www.w3.org/2000/svg" xmlns:xlink="http://www.w3.org/1999/xlink">
<g id="graph1" class="graph" transform="scale(1 1) rotate(0) translate(4 89)">
<title>G</title>
<polygon fill="white" stroke="white" points="-4,5 -4,-89 339,-89 339,5 -4,5"/>
<text text-anchor="start" x="50" y="-23.6" font-family="Verdana" font-size="8.00">Title: ASGS (Country)</text>
<text text-anchor="start" x="71.5" y="-15.6" font-family="Verdana" font-size="8.00">Prefix: asgs</text>
<text text-anchor="start" x="8.5" y="-7.6" font-family="Verdana" font-size="8.00">URI: http://linked.data.gov.au/def/asgs#</text>
<!-- 1 -->
<g id="node2" class="node"><title>1</title>
<polygon fill="#ffd180" stroke="#706f6f" points="107.5,-85.5 0.5,-85.5 0.5,-32.5 107.5,-32.5 107.5,-85.5"/>
<text text-anchor="start" x="33.5" y="-70.1" font-family="Verdana" font-size="8.00">:Country</text>
<text text-anchor="start" x="9" y="-46.6" font-family="Verdana" font-size="8.00">:ausCode2011 string</text>
<text text-anchor="start" x="9" y="-38.6" font-family="Verdana" font-size="8.00">:ausCode2016 string</text>
</g>
<!-- 2 -->
<g id="node4" class="node"><title>2</title>
<polygon fill="#ffd180" stroke="#706f6f" points="333.5,-77 264.5,-77 264.5,-41 333.5,-41 333.5,-77"/>
<text text-anchor="start" x="278.5" y="-57.1" font-family="Verdana" font-size="8.00">:Feature</text>
</g>
<!-- 1&#45;&gt;2 -->
<g id="edge3" class="edge"><title>1&#45;&gt;2</title>
<path fill="none" stroke="brown" d="M107.727,-59C150.864,-59 211.245,-59 252.339,-59"/>
<polygon fill="brown" stroke="brown" points="252.433,-63.2001 264.433,-59 252.433,-54.8001 252.433,-63.2001"/>
<text text-anchor="middle" x="186" y="-61.6" font-family="Verdana" font-size="8.00" fill="brown">rdfs:subClassOf</text>
</g>
</g>
</svg>
