<?xml version="1.0" encoding="UTF-8" standalone="no"?>
<!DOCTYPE svg PUBLIC "-//W3C//DTD SVG 1.1//EN"
 "http://www.w3.org/Graphics/SVG/1.1/DTD/svg11.dtd">
<!-- Generated by graphviz version 2.28.0 (20110507.0327)
 -->
<!-- Title: G Pages: 1 -->
<svg width="426pt" height="193pt"
 viewBox="0.00 0.00 426.00 193.00" xmlns="http://www.w3.org/2000/svg" xmlns:xlink="http://www.w3.org/1999/xlink">
<g id="graph1" class="graph" transform="scale(1 1) rotate(0) translate(4 189)">
<title>G</title>
<polygon fill="white" stroke="white" points="-4,5 -4,-189 423,-189 423,5 -4,5"/>
<text text-anchor="start" x="38" y="-23.6" font-family="Verdana" font-size="8.00">Title: ASGS (UclToSa1Path)</text>
<text text-anchor="start" x="71.5" y="-15.6" font-family="Verdana" font-size="8.00">Prefix: asgs</text>
<text text-anchor="start" x="8.5" y="-7.6" font-family="Verdana" font-size="8.00">URI: http://linked.data.gov.au/def/asgs#</text>
<!-- 1 -->
<g id="node2" class="node"><title>1</title>
<polygon fill="#ffd180" stroke="#706f6f" points="97.5,-127 0.5,-127 0.5,-91 97.5,-91 97.5,-127"/>
<text text-anchor="start" x="14.5" y="-107.1" font-family="Verdana" font-size="8.00">:UclToSa1Path</text>
</g>
<!-- 2 -->
<g id="node4" class="node"><title>2</title>
<polygon fill="#ffd180" stroke="#706f6f" points="395,-185 291,-185 291,-149 395,-149 395,-185"/>
<text text-anchor="start" x="304.5" y="-165.1" font-family="Verdana" font-size="8.00">:GeospatialPath</text>
</g>
<!-- 1&#45;&gt;2 -->
<g id="edge3" class="edge"><title>1&#45;&gt;2</title>
<path fill="none" stroke="brown" d="M97.5647,-118.448C146.844,-128.236 224.129,-143.587 278.58,-154.403"/>
<polygon fill="brown" stroke="brown" points="277.932,-158.556 290.521,-156.775 279.569,-150.317 277.932,-158.556"/>
<text text-anchor="middle" x="183" y="-145.6" font-family="Verdana" font-size="8.00" fill="brown">rdfs:subClassOf</text>
</g>
<!-- 3 -->
<g id="node6" class="node"><title>3</title>
<polygon fill="#ffd180" stroke="#706f6f" points="417.5,-127 268.5,-127 268.5,-91 417.5,-91 417.5,-127"/>
<text text-anchor="start" x="282.5" y="-107.1" font-family="Verdana" font-size="8.00">:UrbanCentreAndLocality</text>
</g>
<!-- 1&#45;&gt;3 -->
<g id="edge5" class="edge"><title>1&#45;&gt;3</title>
<path fill="none" stroke="brown" d="M97.5647,-109C140.428,-109 204.48,-109 256.264,-109"/>
<polygon fill="brown" stroke="brown" points="256.464,-113.2 268.464,-109 256.464,-104.8 256.464,-113.2"/>
<text text-anchor="middle" x="183" y="-111.6" font-family="Verdana" font-size="8.00" fill="brown">:uclToSa1PathFrom</text>
</g>
<!-- 4 -->
<g id="node8" class="node"><title>4</title>
<polygon fill="#ffd180" stroke="#706f6f" points="410.5,-69 275.5,-69 275.5,-33 410.5,-33 410.5,-69"/>
<text text-anchor="start" x="289.5" y="-49.1" font-family="Verdana" font-size="8.00">:StatisticalAreaLevel1</text>
</g>
<!-- 1&#45;&gt;4 -->
<g id="edge7" class="edge"><title>1&#45;&gt;4</title>
<path fill="none" stroke="brown" d="M97.5647,-99.5522C142.393,-90.648 210.395,-77.1407 263.303,-66.6316"/>
<polygon fill="brown" stroke="brown" points="264.422,-70.6914 275.374,-64.234 262.786,-62.4524 264.422,-70.6914"/>
<text text-anchor="middle" x="183" y="-92.6" font-family="Verdana" font-size="8.00" fill="brown">:uclToSa1PathTo</text>
</g>
</g>
</svg>
