<?xml version="1.0" encoding="UTF-8" standalone="no"?>
<!DOCTYPE svg PUBLIC "-//W3C//DTD SVG 1.1//EN"
 "http://www.w3.org/Graphics/SVG/1.1/DTD/svg11.dtd">
<!-- Generated by graphviz version 2.28.0 (20110507.0327)
 -->
<!-- Title: G Pages: 1 -->
<svg width="802pt" height="367pt"
 viewBox="0.00 0.00 802.00 367.00" xmlns="http://www.w3.org/2000/svg" xmlns:xlink="http://www.w3.org/1999/xlink">
<g id="graph1" class="graph" transform="scale(1 1) rotate(0) translate(4 363)">
<title>G</title>
<polygon fill="white" stroke="white" points="-4,5 -4,-363 799,-363 799,5 -4,5"/>
<text text-anchor="start" x="22.5" y="-23.6" font-family="Verdana" font-size="8.00">Title: ASGS (StatisticalAreaLevel1)</text>
<text text-anchor="start" x="71.5" y="-15.6" font-family="Verdana" font-size="8.00">Prefix: asgs</text>
<text text-anchor="start" x="8.5" y="-7.6" font-family="Verdana" font-size="8.00">URI: http://linked.data.gov.au/def/asgs#</text>
<!-- 1 -->
<g id="node2" class="node"><title>1</title>
<polygon fill="#ffd180" stroke="#706f6f" points="515.5,-226.5 332.5,-226.5 332.5,-165.5 515.5,-165.5 515.5,-226.5"/>
<text text-anchor="start" x="370.5" y="-211.1" font-family="Verdana" font-size="8.00">:StatisticalAreaLevel1</text>
<text text-anchor="start" x="341" y="-187.6" font-family="Verdana" font-size="8.00">:sa1Maincode2011 string</text>
<text text-anchor="start" x="341" y="-179.6" font-family="Verdana" font-size="8.00">:sa1Maincode2016 string</text>
<text text-anchor="start" x="341" y="-171.6" font-family="Verdana" font-size="8.00">:statisticalArea1Sa111DigitCode string</text>
</g>
<!-- 2 -->
<g id="node4" class="node"><title>2</title>
<polygon fill="#ffd180" stroke="#706f6f" points="787.5,-243 718.5,-243 718.5,-207 787.5,-207 787.5,-243"/>
<text text-anchor="start" x="732.5" y="-223.1" font-family="Verdana" font-size="8.00">:Feature</text>
</g>
<!-- 1&#45;&gt;2 -->
<g id="edge3" class="edge"><title>1&#45;&gt;2</title>
<path fill="none" stroke="brown" d="M515.653,-204.04C577.553,-209.529 656.963,-216.572 706.158,-220.935"/>
<polygon fill="brown" stroke="brown" points="705.963,-225.134 718.287,-222.01 706.705,-216.766 705.963,-225.134"/>
<text text-anchor="middle" x="614" y="-219.6" font-family="Verdana" font-size="8.00" fill="brown">rdfs:subClassOf</text>
</g>
<!-- 6 -->
<g id="node6" class="node"><title>6</title>
<polygon fill="#ffd180" stroke="#706f6f" points="794,-185 712,-185 712,-149 794,-149 794,-185"/>
<text text-anchor="start" x="725.5" y="-165.1" font-family="Verdana" font-size="8.00">:MeshBlock</text>
</g>
<!-- 1&#45;&gt;6 -->
<g id="edge5" class="edge"><title>1&#45;&gt;6</title>
<path fill="none" stroke="brown" d="M515.653,-187.96C574.897,-182.706 650.18,-176.03 699.661,-171.642"/>
<polygon fill="brown" stroke="brown" points="700.078,-175.821 711.66,-170.578 699.336,-167.454 700.078,-175.821"/>
<text text-anchor="middle" x="614" y="-186.6" font-family="Verdana" font-size="8.00" fill="brown">:isStatisticalAreaLevel1Of</text>
</g>
<!-- 3 -->
<g id="node7" class="node"><title>3</title>
<polygon fill="#ffd180" stroke="#706f6f" points="118.5,-359 17.5,-359 17.5,-323 118.5,-323 118.5,-359"/>
<text text-anchor="start" x="31.5" y="-339.1" font-family="Verdana" font-size="8.00">:IlocToSa1Path</text>
</g>
<!-- 3&#45;&gt;1 -->
<g id="edge7" class="edge"><title>3&#45;&gt;1</title>
<path fill="none" stroke="brown" d="M118.884,-327.501C164.108,-314.603 232.18,-293.531 289,-269 313.455,-258.442 339.371,-244.917 361.828,-232.383"/>
<polygon fill="brown" stroke="brown" points="364.169,-235.885 372.553,-226.328 360.039,-228.57 364.169,-235.885"/>
<text text-anchor="middle" x="234" y="-310.6" font-family="Verdana" font-size="8.00" fill="brown">:ilocToSa1PathTo</text>
</g>
<!-- 4 -->
<g id="node9" class="node"><title>4</title>
<polygon fill="#ffd180" stroke="#706f6f" points="118,-301 18,-301 18,-265 118,-265 118,-301"/>
<text text-anchor="start" x="31.5" y="-281.1" font-family="Verdana" font-size="8.00">:SedToSa1Path</text>
</g>
<!-- 4&#45;&gt;1 -->
<g id="edge9" class="edge"><title>4&#45;&gt;1</title>
<path fill="none" stroke="brown" d="M118.37,-270.893C162.959,-259.956 230.377,-243.413 289,-229 299.143,-226.506 309.717,-223.905 320.281,-221.305"/>
<polygon fill="brown" stroke="brown" points="321.532,-225.322 332.181,-218.376 319.525,-217.166 321.532,-225.322"/>
<text text-anchor="middle" x="234" y="-257.6" font-family="Verdana" font-size="8.00" fill="brown">:sedToSa1PathTo</text>
</g>
<!-- 5 -->
<g id="node11" class="node"><title>5</title>
<polygon fill="#ffd180" stroke="#706f6f" points="118,-243 18,-243 18,-207 118,-207 118,-243"/>
<text text-anchor="start" x="31.5" y="-223.1" font-family="Verdana" font-size="8.00">:CedToSa1Path</text>
</g>
<!-- 5&#45;&gt;1 -->
<g id="edge11" class="edge"><title>5&#45;&gt;1</title>
<path fill="none" stroke="brown" d="M118.222,-220.968C170.178,-216.711 253.584,-209.879 320.021,-204.436"/>
<polygon fill="brown" stroke="brown" points="320.6,-208.603 332.217,-203.437 319.914,-200.231 320.6,-208.603"/>
<text text-anchor="middle" x="234" y="-217.6" font-family="Verdana" font-size="8.00" fill="brown">:cedToSa1PathTo</text>
</g>
<!-- 7 -->
<g id="node13" class="node"><title>7</title>
<polygon fill="#ffd180" stroke="#706f6f" points="135.5,-185 0.5,-185 0.5,-149 135.5,-149 135.5,-185"/>
<text text-anchor="start" x="14.5" y="-165.1" font-family="Verdana" font-size="8.00">:StatisticalAreaLevel2</text>
</g>
<!-- 7&#45;&gt;1 -->
<g id="edge13" class="edge"><title>7&#45;&gt;1</title>
<path fill="none" stroke="brown" d="M135.585,-172.455C187.581,-176.714 260.744,-182.708 320.239,-187.582"/>
<polygon fill="brown" stroke="brown" points="320.027,-191.778 332.33,-188.572 320.713,-183.406 320.027,-191.778"/>
<text text-anchor="middle" x="234" y="-186.6" font-family="Verdana" font-size="8.00" fill="brown">:isStatisticalAreaLevel2Of</text>
</g>
<!-- 8 -->
<g id="node15" class="node"><title>8</title>
<polygon fill="#ffd180" stroke="#706f6f" points="116.5,-127 19.5,-127 19.5,-91 116.5,-91 116.5,-127"/>
<text text-anchor="start" x="33.5" y="-107.1" font-family="Verdana" font-size="8.00">:UclToSa1Path</text>
</g>
<!-- 8&#45;&gt;1 -->
<g id="edge15" class="edge"><title>8&#45;&gt;1</title>
<path fill="none" stroke="brown" d="M116.676,-120.31C161.265,-130.929 229.695,-147.333 289,-162 299.157,-164.512 309.74,-167.154 320.311,-169.81"/>
<polygon fill="brown" stroke="brown" points="319.553,-173.95 332.216,-172.807 321.604,-165.804 319.553,-173.95"/>
<text text-anchor="middle" x="234" y="-164.6" font-family="Verdana" font-size="8.00" fill="brown">:uclToSa1PathTo</text>
</g>
<!-- 9 -->
<g id="node17" class="node"><title>9</title>
<polygon fill="#ffd180" stroke="#706f6f" points="115,-69 21,-69 21,-33 115,-33 115,-69"/>
<text text-anchor="start" x="34.5" y="-49.1" font-family="Verdana" font-size="8.00">:RaToSa1Path</text>
</g>
<!-- 9&#45;&gt;1 -->
<g id="edge17" class="edge"><title>9&#45;&gt;1</title>
<path fill="none" stroke="brown" d="M115.064,-62.7287C160.27,-74.9148 230.715,-95.726 289,-121 314.233,-131.942 340.889,-146.244 363.725,-159.422"/>
<polygon fill="brown" stroke="brown" points="361.786,-163.153 374.266,-165.58 366.023,-155.9 361.786,-163.153"/>
<text text-anchor="middle" x="234" y="-123.6" font-family="Verdana" font-size="8.00" fill="brown">:raToSa1PathTo</text>
</g>
</g>
</svg>
