<?xml version="1.0" encoding="UTF-8" standalone="no"?>
<!DOCTYPE svg PUBLIC "-//W3C//DTD SVG 1.1//EN"
 "http://www.w3.org/Graphics/SVG/1.1/DTD/svg11.dtd">
<!-- Generated by graphviz version 2.28.0 (20110507.0327)
 -->
<!-- Title: G Pages: 1 -->
<svg width="618pt" height="135pt"
 viewBox="0.00 0.00 618.00 135.00" xmlns="http://www.w3.org/2000/svg" xmlns:xlink="http://www.w3.org/1999/xlink">
<g id="graph1" class="graph" transform="scale(1 1) rotate(0) translate(4 131)">
<title>G</title>
<polygon fill="white" stroke="white" points="-4,5 -4,-131 615,-131 615,5 -4,5"/>
<text text-anchor="start" x="31" y="-23.6" font-family="Verdana" font-size="8.00">Title: ASGS (RemotenessArea)</text>
<text text-anchor="start" x="71.5" y="-15.6" font-family="Verdana" font-size="8.00">Prefix: asgs</text>
<text text-anchor="start" x="8.5" y="-7.6" font-family="Verdana" font-size="8.00">URI: http://linked.data.gov.au/def/asgs#</text>
<!-- 1 -->
<g id="node2" class="node"><title>1</title>
<polygon fill="#ffd180" stroke="#706f6f" points="383.5,-114.5 270.5,-114.5 270.5,-45.5 383.5,-45.5 383.5,-114.5"/>
<text text-anchor="start" x="284.5" y="-99.1" font-family="Verdana" font-size="8.00">:RemotenessArea</text>
<text text-anchor="start" x="279" y="-75.6" font-family="Verdana" font-size="8.00">:raCode2016 string</text>
<text text-anchor="start" x="279" y="-67.6" font-family="Verdana" font-size="8.00">:raCode2011 string</text>
<text text-anchor="start" x="279" y="-59.6" font-family="Verdana" font-size="8.00">:raName2011 string</text>
<text text-anchor="start" x="279" y="-51.6" font-family="Verdana" font-size="8.00">:raName2016 string</text>
</g>
<!-- 2 -->
<g id="node4" class="node"><title>2</title>
<polygon fill="#ffd180" stroke="#706f6f" points="609.5,-98 540.5,-98 540.5,-62 609.5,-62 609.5,-98"/>
<text text-anchor="start" x="554.5" y="-78.1" font-family="Verdana" font-size="8.00">:Feature</text>
</g>
<!-- 1&#45;&gt;2 -->
<g id="edge3" class="edge"><title>1&#45;&gt;2</title>
<path fill="none" stroke="brown" d="M383.514,-80C427.178,-80 487.276,-80 528.214,-80"/>
<polygon fill="brown" stroke="brown" points="528.264,-84.2001 540.264,-80 528.264,-75.8001 528.264,-84.2001"/>
<text text-anchor="middle" x="462" y="-82.6" font-family="Verdana" font-size="8.00" fill="brown">rdfs:subClassOf</text>
</g>
<!-- 3 -->
<g id="node5" class="node"><title>3</title>
<polygon fill="#ffd180" stroke="#706f6f" points="102,-127 0,-127 0,-91 102,-91 102,-127"/>
<text text-anchor="start" x="13.5" y="-107.1" font-family="Verdana" font-size="8.00">:StateToRaPath</text>
</g>
<!-- 3&#45;&gt;1 -->
<g id="edge5" class="edge"><title>3&#45;&gt;1</title>
<path fill="none" stroke="brown" d="M102.256,-103.681C146.03,-99.0479 209.875,-92.2906 258.172,-87.1789"/>
<polygon fill="brown" stroke="brown" points="258.916,-91.3236 270.408,-85.8839 258.032,-82.9703 258.916,-91.3236"/>
<text text-anchor="middle" x="186" y="-100.6" font-family="Verdana" font-size="8.00" fill="brown">:stateToRaPathTo</text>
</g>
<!-- 4 -->
<g id="node7" class="node"><title>4</title>
<polygon fill="#ffd180" stroke="#706f6f" points="98,-69 4,-69 4,-33 98,-33 98,-69"/>
<text text-anchor="start" x="17.5" y="-49.1" font-family="Verdana" font-size="8.00">:RaToSa1Path</text>
</g>
<!-- 4&#45;&gt;1 -->
<g id="edge7" class="edge"><title>4&#45;&gt;1</title>
<path fill="none" stroke="brown" d="M98.1705,-55.8867C141.99,-60.5245 208.372,-67.5504 258.197,-72.8238"/>
<polygon fill="brown" stroke="brown" points="257.786,-77.0037 270.162,-74.0901 258.67,-68.6503 257.786,-77.0037"/>
<text text-anchor="middle" x="186" y="-70.6" font-family="Verdana" font-size="8.00" fill="brown">:raToSa1PathFrom</text>
</g>
</g>
</svg>
