<?xml version="1.0" encoding="UTF-8" standalone="no"?>
<!DOCTYPE svg PUBLIC "-//W3C//DTD SVG 1.1//EN"
 "http://www.w3.org/Graphics/SVG/1.1/DTD/svg11.dtd">
<!-- Generated by graphviz version 2.28.0 (20110507.0327)
 -->
<!-- Title: G Pages: 1 -->
<svg width="748pt" height="135pt"
 viewBox="0.00 0.00 748.00 135.00" xmlns="http://www.w3.org/2000/svg" xmlns:xlink="http://www.w3.org/1999/xlink">
<g id="graph1" class="graph" transform="scale(1 1) rotate(0) translate(4 131)">
<title>G</title>
<polygon fill="white" stroke="white" points="-4,5 -4,-131 745,-131 745,5 -4,5"/>
<text text-anchor="start" x="35.5" y="-23.6" font-family="Verdana" font-size="8.00">Title: ASGS (SectionOfState)</text>
<text text-anchor="start" x="71.5" y="-15.6" font-family="Verdana" font-size="8.00">Prefix: asgs</text>
<text text-anchor="start" x="8.5" y="-7.6" font-family="Verdana" font-size="8.00">URI: http://linked.data.gov.au/def/asgs#</text>
<!-- 1 -->
<g id="node2" class="node"><title>1</title>
<polygon fill="#ffd180" stroke="#706f6f" points="434,-118.5 276,-118.5 276,-41.5 434,-41.5 434,-118.5"/>
<text text-anchor="start" x="317" y="-103.1" font-family="Verdana" font-size="8.00">:SectionOfState</text>
<text text-anchor="start" x="284" y="-79.6" font-family="Verdana" font-size="8.00">:sosName2016 string</text>
<text text-anchor="start" x="284" y="-71.6" font-family="Verdana" font-size="8.00">:sosName2011 string</text>
<text text-anchor="start" x="284" y="-63.6" font-family="Verdana" font-size="8.00">:sosCode2016 string</text>
<text text-anchor="start" x="284" y="-55.6" font-family="Verdana" font-size="8.00">:sosCode2011 string</text>
<text text-anchor="start" x="284" y="-47.6" font-family="Verdana" font-size="8.00">:sectionOfState2DigitCode string</text>
</g>
<!-- 2 -->
<g id="node4" class="node"><title>2</title>
<polygon fill="#ffd180" stroke="#706f6f" points="707.5,-127 638.5,-127 638.5,-91 707.5,-91 707.5,-127"/>
<text text-anchor="start" x="652.5" y="-107.1" font-family="Verdana" font-size="8.00">:Feature</text>
</g>
<!-- 1&#45;&gt;2 -->
<g id="edge3" class="edge"><title>1&#45;&gt;2</title>
<path fill="none" stroke="brown" d="M434.112,-87.1685C494.431,-92.7041 575.83,-100.174 626.07,-104.785"/>
<polygon fill="brown" stroke="brown" points="625.807,-108.978 638.14,-105.893 626.574,-100.613 625.807,-108.978"/>
<text text-anchor="middle" x="520" y="-100.6" font-family="Verdana" font-size="8.00" fill="brown">rdfs:subClassOf</text>
</g>
<!-- 3 -->
<g id="node6" class="node"><title>3</title>
<polygon fill="#ffd180" stroke="#706f6f" points="739.5,-69 606.5,-69 606.5,-33 739.5,-33 739.5,-69"/>
<text text-anchor="start" x="620.5" y="-49.1" font-family="Verdana" font-size="8.00">:SectionOfStateRange</text>
</g>
<!-- 1&#45;&gt;3 -->
<g id="edge5" class="edge"><title>1&#45;&gt;3</title>
<path fill="none" stroke="brown" d="M434.112,-72.8315C482.89,-68.3551 545.452,-62.6136 594.175,-58.1422"/>
<polygon fill="brown" stroke="brown" points="594.681,-62.3134 606.247,-57.0343 593.914,-53.9486 594.681,-62.3134"/>
<text text-anchor="middle" x="520" y="-71.6" font-family="Verdana" font-size="8.00" fill="brown">:isSectionOfStateOf</text>
</g>
<!-- 4 -->
<g id="node7" class="node"><title>4</title>
<polygon fill="#ffd180" stroke="#706f6f" points="107.5,-98 0.5,-98 0.5,-62 107.5,-62 107.5,-98"/>
<text text-anchor="start" x="14.5" y="-78.1" font-family="Verdana" font-size="8.00">:StateToSosPath</text>
</g>
<!-- 4&#45;&gt;1 -->
<g id="edge7" class="edge"><title>4&#45;&gt;1</title>
<path fill="none" stroke="brown" d="M107.767,-80C150.915,-80 212.902,-80 263.886,-80"/>
<polygon fill="brown" stroke="brown" points="263.92,-84.2001 275.92,-80 263.92,-75.8001 263.92,-84.2001"/>
<text text-anchor="middle" x="192" y="-82.6" font-family="Verdana" font-size="8.00" fill="brown">:stateToSosPathTo</text>
</g>
</g>
</svg>
