<?xml version="1.0" encoding="UTF-8" standalone="no"?>
<!DOCTYPE svg PUBLIC "-//W3C//DTD SVG 1.1//EN"
 "http://www.w3.org/Graphics/SVG/1.1/DTD/svg11.dtd">
<!-- Generated by graphviz version 2.28.0 (20110507.0327)
 -->
<!-- Title: G Pages: 1 -->
<svg width="434pt" height="193pt"
 viewBox="0.00 0.00 434.00 193.00" xmlns="http://www.w3.org/2000/svg" xmlns:xlink="http://www.w3.org/1999/xlink">
<g id="graph1" class="graph" transform="scale(1 1) rotate(0) translate(4 189)">
<title>G</title>
<polygon fill="white" stroke="white" points="-4,5 -4,-189 431,-189 431,5 -4,5"/>
<text text-anchor="start" x="34" y="-23.6" font-family="Verdana" font-size="8.00">Title: ASGS (StateToLgaPath)</text>
<text text-anchor="start" x="71.5" y="-15.6" font-family="Verdana" font-size="8.00">Prefix: asgs</text>
<text text-anchor="start" x="8.5" y="-7.6" font-family="Verdana" font-size="8.00">URI: http://linked.data.gov.au/def/asgs#</text>
<!-- 1 -->
<g id="node2" class="node"><title>1</title>
<polygon fill="#ffd180" stroke="#706f6f" points="107.5,-127 0.5,-127 0.5,-91 107.5,-91 107.5,-127"/>
<text text-anchor="start" x="14.5" y="-107.1" font-family="Verdana" font-size="8.00">:StateToLgaPath</text>
</g>
<!-- 2 -->
<g id="node4" class="node"><title>2</title>
<polygon fill="#ffd180" stroke="#706f6f" points="408,-185 304,-185 304,-149 408,-149 408,-185"/>
<text text-anchor="start" x="317.5" y="-165.1" font-family="Verdana" font-size="8.00">:GeospatialPath</text>
</g>
<!-- 1&#45;&gt;2 -->
<g id="edge3" class="edge"><title>1&#45;&gt;2</title>
<path fill="none" stroke="brown" d="M107.599,-119.169C158.999,-129.106 237.279,-144.241 291.98,-154.816"/>
<polygon fill="brown" stroke="brown" points="291.386,-158.979 303.965,-157.133 292.98,-150.732 291.386,-158.979"/>
<text text-anchor="middle" x="197" y="-146.6" font-family="Verdana" font-size="8.00" fill="brown">rdfs:subClassOf</text>
</g>
<!-- 3 -->
<g id="node6" class="node"><title>3</title>
<polygon fill="#ffd180" stroke="#706f6f" points="412,-127 300,-127 300,-91 412,-91 412,-127"/>
<text text-anchor="start" x="313.5" y="-107.1" font-family="Verdana" font-size="8.00">:StateOrTerritory</text>
</g>
<!-- 1&#45;&gt;3 -->
<g id="edge5" class="edge"><title>1&#45;&gt;3</title>
<path fill="none" stroke="brown" d="M107.599,-109C157.643,-109 233.17,-109 287.605,-109"/>
<polygon fill="brown" stroke="brown" points="287.92,-113.2 299.92,-109 287.92,-104.8 287.92,-113.2"/>
<text text-anchor="middle" x="197" y="-111.6" font-family="Verdana" font-size="8.00" fill="brown">:stateToLgaPathFrom</text>
</g>
<!-- 4 -->
<g id="node8" class="node"><title>4</title>
<polygon fill="#ffd180" stroke="#706f6f" points="425.5,-69 286.5,-69 286.5,-33 425.5,-33 425.5,-69"/>
<text text-anchor="start" x="300.5" y="-49.1" font-family="Verdana" font-size="8.00">:LocalGovernmentArea</text>
</g>
<!-- 1&#45;&gt;4 -->
<g id="edge7" class="edge"><title>1&#45;&gt;4</title>
<path fill="none" stroke="brown" d="M107.599,-98.8308C153.668,-89.9242 221.331,-76.8426 274.257,-66.6104"/>
<polygon fill="brown" stroke="brown" points="275.354,-70.676 286.339,-64.2745 273.76,-62.4287 275.354,-70.676"/>
<text text-anchor="middle" x="197" y="-92.6" font-family="Verdana" font-size="8.00" fill="brown">:stateToLgaPathTo</text>
</g>
</g>
</svg>
