<?xml version="1.0" encoding="UTF-8" standalone="no"?>
<!DOCTYPE svg PUBLIC "-//W3C//DTD SVG 1.1//EN"
 "http://www.w3.org/Graphics/SVG/1.1/DTD/svg11.dtd">
<!-- Generated by graphviz version 2.28.0 (20110507.0327)
 -->
<!-- Title: G Pages: 1 -->
<svg width="850pt" height="251pt"
 viewBox="0.00 0.00 850.00 251.00" xmlns="http://www.w3.org/2000/svg" xmlns:xlink="http://www.w3.org/1999/xlink">
<g id="graph1" class="graph" transform="scale(1 1) rotate(0) translate(4 247)">
<title>G</title>
<polygon fill="white" stroke="white" points="-4,5 -4,-247 847,-247 847,5 -4,5"/>
<text text-anchor="start" x="22.5" y="-23.6" font-family="Verdana" font-size="8.00">Title: ASGS (StatisticalAreaLevel2)</text>
<text text-anchor="start" x="71.5" y="-15.6" font-family="Verdana" font-size="8.00">Prefix: asgs</text>
<text text-anchor="start" x="8.5" y="-7.6" font-family="Verdana" font-size="8.00">URI: http://linked.data.gov.au/def/asgs#</text>
<!-- 1 -->
<g id="node2" class="node"><title>1</title>
<polygon fill="#ffd180" stroke="#706f6f" points="509.5,-176.5 332.5,-176.5 332.5,-99.5 509.5,-99.5 509.5,-176.5"/>
<text text-anchor="start" x="367.5" y="-161.1" font-family="Verdana" font-size="8.00">:StatisticalAreaLevel2</text>
<text text-anchor="start" x="341" y="-137.6" font-family="Verdana" font-size="8.00">:statisticalArea2Sa29DigitCode string</text>
<text text-anchor="start" x="341" y="-129.6" font-family="Verdana" font-size="8.00">:sa2Name2011 string</text>
<text text-anchor="start" x="341" y="-121.6" font-family="Verdana" font-size="8.00">:sa2Name2016 string</text>
<text text-anchor="start" x="341" y="-113.6" font-family="Verdana" font-size="8.00">:sa2Maincode2016 string</text>
<text text-anchor="start" x="341" y="-105.6" font-family="Verdana" font-size="8.00">:sa2Maincode2011 string</text>
</g>
<!-- 2 -->
<g id="node4" class="node"><title>2</title>
<polygon fill="#ffd180" stroke="#706f6f" points="808.5,-185 739.5,-185 739.5,-149 808.5,-149 808.5,-185"/>
<text text-anchor="start" x="753.5" y="-165.1" font-family="Verdana" font-size="8.00">:Feature</text>
</g>
<!-- 1&#45;&gt;2 -->
<g id="edge3" class="edge"><title>1&#45;&gt;2</title>
<path fill="none" stroke="brown" d="M509.667,-145.243C578.614,-150.94 671.929,-158.649 726.968,-163.197"/>
<polygon fill="brown" stroke="brown" points="726.798,-167.397 739.103,-164.199 727.49,-159.025 726.798,-167.397"/>
<text text-anchor="middle" x="608" y="-159.6" font-family="Verdana" font-size="8.00" fill="brown">rdfs:subClassOf</text>
</g>
<!-- 4 -->
<g id="node6" class="node"><title>4</title>
<polygon fill="#ffd180" stroke="#706f6f" points="841.5,-127 706.5,-127 706.5,-91 841.5,-91 841.5,-127"/>
<text text-anchor="start" x="720.5" y="-107.1" font-family="Verdana" font-size="8.00">:StatisticalAreaLevel1</text>
</g>
<!-- 1&#45;&gt;4 -->
<g id="edge5" class="edge"><title>1&#45;&gt;4</title>
<path fill="none" stroke="brown" d="M509.667,-130.757C566.3,-126.078 639.374,-120.04 694.172,-115.513"/>
<polygon fill="brown" stroke="brown" points="694.663,-119.687 706.276,-114.513 693.971,-111.315 694.663,-119.687"/>
<text text-anchor="middle" x="608" y="-128.6" font-family="Verdana" font-size="8.00" fill="brown">:isStatisticalAreaLevel2Of</text>
</g>
<!-- 3 -->
<g id="node7" class="node"><title>3</title>
<polygon fill="#ffd180" stroke="#706f6f" points="114.5,-243 21.5,-243 21.5,-207 114.5,-207 114.5,-243"/>
<text text-anchor="start" x="35.5" y="-223.1" font-family="Verdana" font-size="8.00">:TrToSa2Path</text>
</g>
<!-- 3&#45;&gt;1 -->
<g id="edge7" class="edge"><title>3&#45;&gt;1</title>
<path fill="none" stroke="brown" d="M114.525,-213.911C159.029,-203.051 228.698,-185.996 289,-171 299.17,-168.471 309.781,-165.819 320.369,-163.165"/>
<polygon fill="brown" stroke="brown" points="321.672,-167.168 332.289,-160.174 319.627,-159.021 321.672,-167.168"/>
<text text-anchor="middle" x="234" y="-199.6" font-family="Verdana" font-size="8.00" fill="brown">:trToSa2PathTo</text>
</g>
<!-- 5 -->
<g id="node9" class="node"><title>5</title>
<polygon fill="#ffd180" stroke="#706f6f" points="135.5,-185 0.5,-185 0.5,-149 135.5,-149 135.5,-185"/>
<text text-anchor="start" x="14.5" y="-165.1" font-family="Verdana" font-size="8.00">:StatisticalAreaLevel3</text>
</g>
<!-- 5&#45;&gt;1 -->
<g id="edge9" class="edge"><title>5&#45;&gt;1</title>
<path fill="none" stroke="brown" d="M135.847,-161.477C188.043,-157.164 261.381,-151.105 320.476,-146.223"/>
<polygon fill="brown" stroke="brown" points="320.862,-150.405 332.475,-145.231 320.17,-142.034 320.862,-150.405"/>
<text text-anchor="middle" x="234" y="-159.6" font-family="Verdana" font-size="8.00" fill="brown">:isStatisticalAreaLevel3Of</text>
</g>
<!-- 6 -->
<g id="node11" class="node"><title>6</title>
<polygon fill="#ffd180" stroke="#706f6f" points="118,-127 18,-127 18,-91 118,-91 118,-127"/>
<text text-anchor="start" x="31.5" y="-107.1" font-family="Verdana" font-size="8.00">:Sa2ToDznPath</text>
</g>
<!-- 6&#45;&gt;1 -->
<g id="edge11" class="edge"><title>6&#45;&gt;1</title>
<path fill="none" stroke="brown" d="M118.175,-113.063C170.305,-117.37 254.07,-124.291 320.145,-129.75"/>
<polygon fill="brown" stroke="brown" points="319.96,-133.949 332.265,-130.751 320.651,-125.577 319.96,-133.949"/>
<text text-anchor="middle" x="234" y="-128.6" font-family="Verdana" font-size="8.00" fill="brown">:sa2ToDznPathFrom</text>
</g>
<!-- 7 -->
<g id="node13" class="node"><title>7</title>
<polygon fill="#ffd180" stroke="#706f6f" points="118,-69 18,-69 18,-33 118,-33 118,-69"/>
<text text-anchor="start" x="31.5" y="-49.1" font-family="Verdana" font-size="8.00">:SuaToSa2Path</text>
</g>
<!-- 7&#45;&gt;1 -->
<g id="edge13" class="edge"><title>7&#45;&gt;1</title>
<path fill="none" stroke="brown" d="M118.428,-62.646C163.055,-73.2233 230.498,-89.3624 289,-104 299.185,-106.548 309.806,-109.243 320.4,-111.955"/>
<polygon fill="brown" stroke="brown" points="319.657,-116.101 332.324,-115.018 321.746,-107.965 319.657,-116.101"/>
<text text-anchor="middle" x="234" y="-106.6" font-family="Verdana" font-size="8.00" fill="brown">:suaToSa2PathTo</text>
</g>
</g>
</svg>
