<?xml version="1.0" encoding="UTF-8" standalone="no"?>
<!DOCTYPE svg PUBLIC "-//W3C//DTD SVG 1.1//EN"
 "http://www.w3.org/Graphics/SVG/1.1/DTD/svg11.dtd">
<!-- Generated by graphviz version 2.28.0 (20110507.0327)
 -->
<!-- Title: G Pages: 1 -->
<svg width="962pt" height="135pt"
 viewBox="0.00 0.00 962.00 135.00" xmlns="http://www.w3.org/2000/svg" xmlns:xlink="http://www.w3.org/1999/xlink">
<g id="graph1" class="graph" transform="scale(1 1) rotate(0) translate(4 131)">
<title>G</title>
<polygon fill="white" stroke="white" points="-4,5 -4,-131 959,-131 959,5 -4,5"/>
<text text-anchor="start" x="22.5" y="-23.6" font-family="Verdana" font-size="8.00">Title: ASGS (StatisticalAreaLevel4)</text>
<text text-anchor="start" x="71.5" y="-15.6" font-family="Verdana" font-size="8.00">Prefix: asgs</text>
<text text-anchor="start" x="8.5" y="-7.6" font-family="Verdana" font-size="8.00">URI: http://linked.data.gov.au/def/asgs#</text>
<!-- 1 -->
<g id="node2" class="node"><title>1</title>
<polygon fill="#ffd180" stroke="#706f6f" points="621.5,-118.5 444.5,-118.5 444.5,-41.5 621.5,-41.5 621.5,-118.5"/>
<text text-anchor="start" x="479.5" y="-103.1" font-family="Verdana" font-size="8.00">:StatisticalAreaLevel4</text>
<text text-anchor="start" x="453" y="-79.6" font-family="Verdana" font-size="8.00">:sa4Name2016 string</text>
<text text-anchor="start" x="453" y="-71.6" font-family="Verdana" font-size="8.00">:sa4Name2011 string</text>
<text text-anchor="start" x="453" y="-63.6" font-family="Verdana" font-size="8.00">:statisticalArea4Sa43DigitCode string</text>
<text text-anchor="start" x="453" y="-55.6" font-family="Verdana" font-size="8.00">:sa4Code2011 string</text>
<text text-anchor="start" x="453" y="-47.6" font-family="Verdana" font-size="8.00">:sa4Code2016 string</text>
</g>
<!-- 2 -->
<g id="node4" class="node"><title>2</title>
<polygon fill="#ffd180" stroke="#706f6f" points="920.5,-127 851.5,-127 851.5,-91 920.5,-91 920.5,-127"/>
<text text-anchor="start" x="865.5" y="-107.1" font-family="Verdana" font-size="8.00">:Feature</text>
</g>
<!-- 1&#45;&gt;2 -->
<g id="edge3" class="edge"><title>1&#45;&gt;2</title>
<path fill="none" stroke="brown" d="M621.667,-87.2431C690.614,-92.9396 783.929,-100.649 838.968,-105.197"/>
<polygon fill="brown" stroke="brown" points="838.798,-109.397 851.103,-106.199 839.49,-101.025 838.798,-109.397"/>
<text text-anchor="middle" x="720" y="-101.6" font-family="Verdana" font-size="8.00" fill="brown">rdfs:subClassOf</text>
</g>
<!-- 3 -->
<g id="node6" class="node"><title>3</title>
<polygon fill="#ffd180" stroke="#706f6f" points="953.5,-69 818.5,-69 818.5,-33 953.5,-33 953.5,-69"/>
<text text-anchor="start" x="832.5" y="-49.1" font-family="Verdana" font-size="8.00">:StatisticalAreaLevel3</text>
</g>
<!-- 1&#45;&gt;3 -->
<g id="edge5" class="edge"><title>1&#45;&gt;3</title>
<path fill="none" stroke="brown" d="M621.667,-72.7569C678.3,-68.0778 751.374,-62.0403 806.172,-57.5129"/>
<polygon fill="brown" stroke="brown" points="806.663,-61.6867 818.276,-56.5128 805.971,-53.3152 806.663,-61.6867"/>
<text text-anchor="middle" x="720" y="-71.6" font-family="Verdana" font-size="8.00" fill="brown">:isStatisticalAreaLevel4Of</text>
</g>
<!-- 4 -->
<g id="node7" class="node"><title>4</title>
<polygon fill="#ffd180" stroke="#706f6f" points="193.5,-98 0.5,-98 0.5,-62 193.5,-62 193.5,-98"/>
<text text-anchor="start" x="14.5" y="-78.1" font-family="Verdana" font-size="8.00">:GreaterCapitalCityStatisticalArea</text>
</g>
<!-- 4&#45;&gt;1 -->
<g id="edge7" class="edge"><title>4&#45;&gt;1</title>
<path fill="none" stroke="brown" d="M193.512,-80C264.289,-80 360.508,-80 432.27,-80"/>
<polygon fill="brown" stroke="brown" points="432.469,-84.2001 444.469,-80 432.469,-75.8001 432.469,-84.2001"/>
<text text-anchor="middle" x="319" y="-82.6" font-family="Verdana" font-size="8.00" fill="brown">:isGreaterCapitalCityStatisticalAreaOf</text>
</g>
</g>
</svg>
