<?xml version="1.0" encoding="UTF-8" standalone="no"?>
<!DOCTYPE svg PUBLIC "-//W3C//DTD SVG 1.1//EN"
 "http://www.w3.org/Graphics/SVG/1.1/DTD/svg11.dtd">
<!-- Generated by graphviz version 2.28.0 (20110507.0327)
 -->
<!-- Title: G Pages: 1 -->
<svg width="406pt" height="193pt"
 viewBox="0.00 0.00 406.00 193.00" xmlns="http://www.w3.org/2000/svg" xmlns:xlink="http://www.w3.org/1999/xlink">
<g id="graph1" class="graph" transform="scale(1 1) rotate(0) translate(4 189)">
<title>G</title>
<polygon fill="white" stroke="white" points="-4,5 -4,-189 403,-189 403,5 -4,5"/>
<text text-anchor="start" x="38.5" y="-23.6" font-family="Verdana" font-size="8.00">Title: ASGS (RaToSa1Path)</text>
<text text-anchor="start" x="71.5" y="-15.6" font-family="Verdana" font-size="8.00">Prefix: asgs</text>
<text text-anchor="start" x="8.5" y="-7.6" font-family="Verdana" font-size="8.00">URI: http://linked.data.gov.au/def/asgs#</text>
<!-- 1 -->
<g id="node2" class="node"><title>1</title>
<polygon fill="#ffd180" stroke="#706f6f" points="94,-127 -7.10543e-015,-127 -7.10543e-015,-91 94,-91 94,-127"/>
<text text-anchor="start" x="13.5" y="-107.1" font-family="Verdana" font-size="8.00">:RaToSa1Path</text>
</g>
<!-- 2 -->
<g id="node4" class="node"><title>2</title>
<polygon fill="#ffd180" stroke="#706f6f" points="382,-185 278,-185 278,-149 382,-149 382,-185"/>
<text text-anchor="start" x="291.5" y="-165.1" font-family="Verdana" font-size="8.00">:GeospatialPath</text>
</g>
<!-- 1&#45;&gt;2 -->
<g id="edge3" class="edge"><title>1&#45;&gt;2</title>
<path fill="none" stroke="brown" d="M94.0868,-118.513C140.888,-128.173 213.704,-143.202 265.857,-153.967"/>
<polygon fill="brown" stroke="brown" points="265.045,-158.088 277.647,-156.4 266.743,-149.861 265.045,-158.088"/>
<text text-anchor="middle" x="178" y="-145.6" font-family="Verdana" font-size="8.00" fill="brown">rdfs:subClassOf</text>
</g>
<!-- 3 -->
<g id="node6" class="node"><title>3</title>
<polygon fill="#ffd180" stroke="#706f6f" points="386.5,-127 273.5,-127 273.5,-91 386.5,-91 386.5,-127"/>
<text text-anchor="start" x="287.5" y="-107.1" font-family="Verdana" font-size="8.00">:RemotenessArea</text>
</g>
<!-- 1&#45;&gt;3 -->
<g id="edge5" class="edge"><title>1&#45;&gt;3</title>
<path fill="none" stroke="brown" d="M94.0868,-109C139.565,-109 209.605,-109 261.383,-109"/>
<polygon fill="brown" stroke="brown" points="261.462,-113.2 273.462,-109 261.462,-104.8 261.462,-113.2"/>
<text text-anchor="middle" x="178" y="-111.6" font-family="Verdana" font-size="8.00" fill="brown">:raToSa1PathFrom</text>
</g>
<!-- 4 -->
<g id="node8" class="node"><title>4</title>
<polygon fill="#ffd180" stroke="#706f6f" points="397.5,-69 262.5,-69 262.5,-33 397.5,-33 397.5,-69"/>
<text text-anchor="start" x="276.5" y="-49.1" font-family="Verdana" font-size="8.00">:StatisticalAreaLevel1</text>
</g>
<!-- 1&#45;&gt;4 -->
<g id="edge7" class="edge"><title>1&#45;&gt;4</title>
<path fill="none" stroke="brown" d="M94.0868,-99.4874C136.465,-90.7402 200.173,-77.5905 250.557,-67.1911"/>
<polygon fill="brown" stroke="brown" points="251.497,-71.2857 262.4,-64.7466 249.799,-63.0591 251.497,-71.2857"/>
<text text-anchor="middle" x="178" y="-92.6" font-family="Verdana" font-size="8.00" fill="brown">:raToSa1PathTo</text>
</g>
</g>
</svg>
