<?xml version="1.0" encoding="UTF-8" standalone="no"?>
<!DOCTYPE svg PUBLIC "-//W3C//DTD SVG 1.1//EN"
 "http://www.w3.org/Graphics/SVG/1.1/DTD/svg11.dtd">
<!-- Generated by graphviz version 2.28.0 (20110507.0327)
 -->
<!-- Title: G Pages: 1 -->
<svg width="666pt" height="109pt"
 viewBox="0.00 0.00 666.00 109.00" xmlns="http://www.w3.org/2000/svg" xmlns:xlink="http://www.w3.org/1999/xlink">
<g id="graph1" class="graph" transform="scale(1 1) rotate(0) translate(4 105)">
<title>G</title>
<polygon fill="white" stroke="white" points="-4,5 -4,-105 663,-105 663,5 -4,5"/>
<text text-anchor="start" x="9.5" y="-23.6" font-family="Verdana" font-size="8.00">Title: ASGS (AustralianDrainageDivision)</text>
<text text-anchor="start" x="71.5" y="-15.6" font-family="Verdana" font-size="8.00">Prefix: asgs</text>
<text text-anchor="start" x="8.5" y="-7.6" font-family="Verdana" font-size="8.00">URI: http://linked.data.gov.au/def/asgs#</text>
<!-- 1 -->
<g id="node2" class="node"><title>1</title>
<polygon fill="#ffd180" stroke="#706f6f" points="432,-101.5 268,-101.5 268,-32.5 432,-32.5 432,-101.5"/>
<text text-anchor="start" x="281.5" y="-86.1" font-family="Verdana" font-size="8.00">:AustralianDrainageDivision</text>
<text text-anchor="start" x="276" y="-62.6" font-family="Verdana" font-size="8.00">:addName2016 string</text>
<text text-anchor="start" x="276" y="-54.6" font-family="Verdana" font-size="8.00">:addName2011 string</text>
<text text-anchor="start" x="276" y="-46.6" font-family="Verdana" font-size="8.00">:addCode2016 string</text>
<text text-anchor="start" x="276" y="-38.6" font-family="Verdana" font-size="8.00">:addCode2011 string</text>
</g>
<!-- 2 -->
<g id="node4" class="node"><title>2</title>
<polygon fill="#ffd180" stroke="#706f6f" points="657.5,-85 588.5,-85 588.5,-49 657.5,-49 657.5,-85"/>
<text text-anchor="start" x="602.5" y="-65.1" font-family="Verdana" font-size="8.00">:Feature</text>
</g>
<!-- 1&#45;&gt;2 -->
<g id="edge3" class="edge"><title>1&#45;&gt;2</title>
<path fill="none" stroke="brown" d="M432.309,-67C479.438,-67 537.038,-67 576.317,-67"/>
<polygon fill="brown" stroke="brown" points="576.39,-71.2001 588.39,-67 576.39,-62.8001 576.39,-71.2001"/>
<text text-anchor="middle" x="510" y="-69.6" font-family="Verdana" font-size="8.00" fill="brown">rdfs:subClassOf</text>
</g>
<!-- 3 -->
<g id="node5" class="node"><title>3</title>
<polygon fill="#ffd180" stroke="#706f6f" points="97.5,-85 0.5,-85 0.5,-49 97.5,-49 97.5,-85"/>
<text text-anchor="start" x="14.5" y="-65.1" font-family="Verdana" font-size="8.00">:AddToMbPath</text>
</g>
<!-- 3&#45;&gt;1 -->
<g id="edge5" class="edge"><title>3&#45;&gt;1</title>
<path fill="none" stroke="brown" d="M97.7081,-67C140.154,-67 203.449,-67 255.895,-67"/>
<polygon fill="brown" stroke="brown" points="255.938,-71.2001 267.938,-67 255.938,-62.8001 255.938,-71.2001"/>
<text text-anchor="middle" x="183" y="-69.6" font-family="Verdana" font-size="8.00" fill="brown">:addToMbPathFrom</text>
</g>
</g>
</svg>
