<?xml version="1.0" encoding="UTF-8" standalone="no"?>
<!DOCTYPE svg PUBLIC "-//W3C//DTD SVG 1.1//EN"
 "http://www.w3.org/Graphics/SVG/1.1/DTD/svg11.dtd">
<!-- Generated by graphviz version 2.28.0 (20110507.0327)
 -->
<!-- Title: G Pages: 1 -->
<svg width="818pt" height="135pt"
 viewBox="0.00 0.00 818.00 135.00" xmlns="http://www.w3.org/2000/svg" xmlns:xlink="http://www.w3.org/1999/xlink">
<g id="graph1" class="graph" transform="scale(1 1) rotate(0) translate(4 131)">
<title>G</title>
<polygon fill="white" stroke="white" points="-4,5 -4,-131 815,-131 815,5 -4,5"/>
<text text-anchor="start" x="22" y="-23.6" font-family="Verdana" font-size="8.00">Title: ASGS (SectionOfStateRange)</text>
<text text-anchor="start" x="71.5" y="-15.6" font-family="Verdana" font-size="8.00">Prefix: asgs</text>
<text text-anchor="start" x="8.5" y="-7.6" font-family="Verdana" font-size="8.00">URI: http://linked.data.gov.au/def/asgs#</text>
<!-- 1 -->
<g id="node2" class="node"><title>1</title>
<polygon fill="#ffd180" stroke="#706f6f" points="461.5,-118.5 276.5,-118.5 276.5,-41.5 461.5,-41.5 461.5,-118.5"/>
<text text-anchor="start" x="316.5" y="-103.1" font-family="Verdana" font-size="8.00">:SectionOfStateRange</text>
<text text-anchor="start" x="285" y="-79.6" font-family="Verdana" font-size="8.00">:sectionOfStateRange3DigitCode string</text>
<text text-anchor="start" x="285" y="-71.6" font-family="Verdana" font-size="8.00">:sosrCode2011 string</text>
<text text-anchor="start" x="285" y="-63.6" font-family="Verdana" font-size="8.00">:sosrCode2016 string</text>
<text text-anchor="start" x="285" y="-55.6" font-family="Verdana" font-size="8.00">:sosrName2011 string</text>
<text text-anchor="start" x="285" y="-47.6" font-family="Verdana" font-size="8.00">:sosrName2016 string</text>
</g>
<!-- 2 -->
<g id="node4" class="node"><title>2</title>
<polygon fill="#ffd180" stroke="#706f6f" points="769.5,-127 700.5,-127 700.5,-91 769.5,-91 769.5,-127"/>
<text text-anchor="start" x="714.5" y="-107.1" font-family="Verdana" font-size="8.00">:Feature</text>
</g>
<!-- 1&#45;&gt;2 -->
<g id="edge3" class="edge"><title>1&#45;&gt;2</title>
<path fill="none" stroke="brown" d="M461.853,-87.3179C534.103,-93.0741 631.711,-100.851 688.26,-105.356"/>
<polygon fill="brown" stroke="brown" points="688.062,-109.553 700.357,-106.32 688.729,-101.18 688.062,-109.553"/>
<text text-anchor="middle" x="561" y="-101.6" font-family="Verdana" font-size="8.00" fill="brown">rdfs:subClassOf</text>
</g>
<!-- 4 -->
<g id="node6" class="node"><title>4</title>
<polygon fill="#ffd180" stroke="#706f6f" points="809.5,-69 660.5,-69 660.5,-33 809.5,-33 809.5,-69"/>
<text text-anchor="start" x="674.5" y="-49.1" font-family="Verdana" font-size="8.00">:UrbanCentreAndLocality</text>
</g>
<!-- 1&#45;&gt;4 -->
<g id="edge5" class="edge"><title>1&#45;&gt;4</title>
<path fill="none" stroke="brown" d="M461.853,-72.6821C519.048,-68.1253 592.135,-62.3024 648.164,-57.8386"/>
<polygon fill="brown" stroke="brown" points="648.581,-62.0188 660.209,-56.879 647.913,-53.6453 648.581,-62.0188"/>
<text text-anchor="middle" x="561" y="-71.6" font-family="Verdana" font-size="8.00" fill="brown">:isSectionOfStateRangeOf</text>
</g>
<!-- 3 -->
<g id="node7" class="node"><title>3</title>
<polygon fill="#ffd180" stroke="#706f6f" points="103.5,-98 0.5,-98 0.5,-62 103.5,-62 103.5,-98"/>
<text text-anchor="start" x="14.5" y="-78.1" font-family="Verdana" font-size="8.00">:SectionOfState</text>
</g>
<!-- 3&#45;&gt;1 -->
<g id="edge7" class="edge"><title>3&#45;&gt;1</title>
<path fill="none" stroke="brown" d="M103.61,-80C146.78,-80 210.235,-80 264.159,-80"/>
<polygon fill="brown" stroke="brown" points="264.218,-84.2001 276.218,-80 264.218,-75.8001 264.218,-84.2001"/>
<text text-anchor="middle" x="190" y="-82.6" font-family="Verdana" font-size="8.00" fill="brown">:isSectionOfStateOf</text>
</g>
</g>
</svg>
