<?xml version="1.0" encoding="UTF-8" standalone="no"?>
<!DOCTYPE svg PUBLIC "-//W3C//DTD SVG 1.1//EN"
 "http://www.w3.org/Graphics/SVG/1.1/DTD/svg11.dtd">
<!-- Generated by graphviz version 2.28.0 (20110507.0327)
 -->
<!-- Title: G Pages: 1 -->
<svg width="1032pt" height="135pt"
 viewBox="0.00 0.00 1032.00 135.00" xmlns="http://www.w3.org/2000/svg" xmlns:xlink="http://www.w3.org/1999/xlink">
<g id="graph1" class="graph" transform="scale(1 1) rotate(0) translate(4 131)">
<title>G</title>
<polygon fill="white" stroke="white" points="-4,5 -4,-131 1029,-131 1029,5 -4,5"/>
<text text-anchor="start" x="8.5" y="-23.6" font-family="Verdana" font-size="8.00">Title: ASGS (GreaterCapitalCityStatisticalArea)</text>
<text text-anchor="start" x="83.5" y="-15.6" font-family="Verdana" font-size="8.00">Prefix: asgs</text>
<text text-anchor="start" x="20.5" y="-7.6" font-family="Verdana" font-size="8.00">URI: http://linked.data.gov.au/def/asgs#</text>
<!-- 1 -->
<g id="node2" class="node"><title>1</title>
<polygon fill="#ffd180" stroke="#706f6f" points="638,-118.5 290,-118.5 290,-41.5 638,-41.5 638,-118.5"/>
<text text-anchor="start" x="381" y="-103.1" font-family="Verdana" font-size="8.00">:GreaterCapitalCityStatisticalArea</text>
<text text-anchor="start" x="298" y="-79.6" font-family="Verdana" font-size="8.00">:gccsaCode2016 string</text>
<text text-anchor="start" x="298" y="-71.6" font-family="Verdana" font-size="8.00">:gccsaName2011 string</text>
<text text-anchor="start" x="298" y="-63.6" font-family="Verdana" font-size="8.00">:gccsaCode2011 string</text>
<text text-anchor="start" x="298" y="-55.6" font-family="Verdana" font-size="8.00">:gccsaName2016 string</text>
<text text-anchor="start" x="298" y="-47.6" font-family="Verdana" font-size="8.00">:greaterCapitalCityStatisticalAreasGccsa5CharacterAlphanumericCode string</text>
</g>
<!-- 2 -->
<g id="node4" class="node"><title>2</title>
<polygon fill="#ffd180" stroke="#706f6f" points="990.5,-127 921.5,-127 921.5,-91 990.5,-91 990.5,-127"/>
<text text-anchor="start" x="935.5" y="-107.1" font-family="Verdana" font-size="8.00">:Feature</text>
</g>
<!-- 1&#45;&gt;2 -->
<g id="edge3" class="edge"><title>1&#45;&gt;2</title>
<path fill="none" stroke="brown" d="M638.1,-90.2447C734.525,-95.9515 847.252,-102.623 908.903,-106.272"/>
<polygon fill="brown" stroke="brown" points="909.032,-110.487 921.259,-107.003 909.528,-102.101 909.032,-110.487"/>
<text text-anchor="middle" x="763" y="-103.6" font-family="Verdana" font-size="8.00" fill="brown">rdfs:subClassOf</text>
</g>
<!-- 3 -->
<g id="node6" class="node"><title>3</title>
<polygon fill="#ffd180" stroke="#706f6f" points="1023.5,-69 888.5,-69 888.5,-33 1023.5,-33 1023.5,-69"/>
<text text-anchor="start" x="902.5" y="-49.1" font-family="Verdana" font-size="8.00">:StatisticalAreaLevel4</text>
</g>
<!-- 1&#45;&gt;3 -->
<g id="edge5" class="edge"><title>1&#45;&gt;3</title>
<path fill="none" stroke="brown" d="M638.1,-69.7553C719.347,-64.9468 812.167,-59.4534 876.255,-55.6604"/>
<polygon fill="brown" stroke="brown" points="876.547,-59.8506 888.278,-54.9489 876.051,-51.4653 876.547,-59.8506"/>
<text text-anchor="middle" x="763" y="-69.6" font-family="Verdana" font-size="8.00" fill="brown">:isGreaterCapitalCityStatisticalAreaOf</text>
</g>
<!-- 4 -->
<g id="node7" class="node"><title>4</title>
<polygon fill="#ffd180" stroke="#706f6f" points="112,-98 7.10543e-015,-98 7.10543e-015,-62 112,-62 112,-98"/>
<text text-anchor="start" x="13.5" y="-78.1" font-family="Verdana" font-size="8.00">:StateOrTerritory</text>
</g>
<!-- 4&#45;&gt;1 -->
<g id="edge7" class="edge"><title>4&#45;&gt;1</title>
<path fill="none" stroke="brown" d="M112.177,-80C155.167,-80 217.475,-80 277.691,-80"/>
<polygon fill="brown" stroke="brown" points="277.7,-84.2001 289.7,-80 277.7,-75.8001 277.7,-84.2001"/>
<text text-anchor="middle" x="201" y="-82.6" font-family="Verdana" font-size="8.00" fill="brown">:isStateOrTerritoryOf</text>
</g>
</g>
</svg>
