<?xml version="1.0" encoding="UTF-8" standalone="no"?>
<!DOCTYPE svg PUBLIC "-//W3C//DTD SVG 1.1//EN"
 "http://www.w3.org/Graphics/SVG/1.1/DTD/svg11.dtd">
<!-- Generated by graphviz version 2.28.0 (20110507.0327)
 -->
<!-- Title: G Pages: 1 -->
<svg width="404pt" height="193pt"
 viewBox="0.00 0.00 404.00 193.00" xmlns="http://www.w3.org/2000/svg" xmlns:xlink="http://www.w3.org/1999/xlink">
<g id="graph1" class="graph" transform="scale(1 1) rotate(0) translate(4 189)">
<title>G</title>
<polygon fill="white" stroke="white" points="-4,5 -4,-189 401,-189 401,5 -4,5"/>
<text text-anchor="start" x="34" y="-23.6" font-family="Verdana" font-size="8.00">Title: ASGS (StateToSscPath)</text>
<text text-anchor="start" x="71.5" y="-15.6" font-family="Verdana" font-size="8.00">Prefix: asgs</text>
<text text-anchor="start" x="8.5" y="-7.6" font-family="Verdana" font-size="8.00">URI: http://linked.data.gov.au/def/asgs#</text>
<!-- 1 -->
<g id="node2" class="node"><title>1</title>
<polygon fill="#ffd180" stroke="#706f6f" points="106,-127 0,-127 0,-91 106,-91 106,-127"/>
<text text-anchor="start" x="13.5" y="-107.1" font-family="Verdana" font-size="8.00">:StateToSscPath</text>
</g>
<!-- 2 -->
<g id="node4" class="node"><title>2</title>
<polygon fill="#ffd180" stroke="#706f6f" points="392,-185 288,-185 288,-149 392,-149 392,-185"/>
<text text-anchor="start" x="301.5" y="-165.1" font-family="Verdana" font-size="8.00">:GeospatialPath</text>
</g>
<!-- 1&#45;&gt;2 -->
<g id="edge3" class="edge"><title>1&#45;&gt;2</title>
<path fill="none" stroke="brown" d="M106.273,-119.638C154.029,-129.357 224.751,-143.749 275.69,-154.116"/>
<polygon fill="brown" stroke="brown" points="274.942,-158.25 287.538,-156.527 276.617,-150.018 274.942,-158.25"/>
<text text-anchor="middle" x="195" y="-148.6" font-family="Verdana" font-size="8.00" fill="brown">rdfs:subClassOf</text>
</g>
<!-- 3 -->
<g id="node6" class="node"><title>3</title>
<polygon fill="#ffd180" stroke="#706f6f" points="385.5,-127 294.5,-127 294.5,-91 385.5,-91 385.5,-127"/>
<text text-anchor="start" x="308.5" y="-107.1" font-family="Verdana" font-size="8.00">:StateSuburb</text>
</g>
<!-- 1&#45;&gt;3 -->
<g id="edge5" class="edge"><title>1&#45;&gt;3</title>
<path fill="none" stroke="brown" d="M106.273,-109C156.006,-109 230.648,-109 281.914,-109"/>
<polygon fill="brown" stroke="brown" points="282.091,-113.2 294.091,-109 282.091,-104.8 282.091,-113.2"/>
<text text-anchor="middle" x="195" y="-111.6" font-family="Verdana" font-size="8.00" fill="brown">:stateToSscPathTo</text>
</g>
<!-- 4 -->
<g id="node8" class="node"><title>4</title>
<polygon fill="#ffd180" stroke="#706f6f" points="396,-69 284,-69 284,-33 396,-33 396,-69"/>
<text text-anchor="start" x="297.5" y="-49.1" font-family="Verdana" font-size="8.00">:StateOrTerritory</text>
</g>
<!-- 1&#45;&gt;4 -->
<g id="edge7" class="edge"><title>1&#45;&gt;4</title>
<path fill="none" stroke="brown" d="M106.273,-98.3619C152.839,-88.8855 221.24,-74.9652 271.846,-64.6665"/>
<polygon fill="brown" stroke="brown" points="272.732,-68.7724 283.653,-62.2636 271.056,-60.5411 272.732,-68.7724"/>
<text text-anchor="middle" x="195" y="-90.6" font-family="Verdana" font-size="8.00" fill="brown">:stateToSscPathFrom</text>
</g>
</g>
</svg>
