<?xml version="1.0" encoding="UTF-8" standalone="no"?>
<!DOCTYPE svg PUBLIC "-//W3C//DTD SVG 1.1//EN"
 "http://www.w3.org/Graphics/SVG/1.1/DTD/svg11.dtd">
<!-- Generated by graphviz version 2.28.0 (20110507.0327)
 -->
<!-- Title: G Pages: 1 -->
<svg width="850pt" height="135pt"
 viewBox="0.00 0.00 850.00 135.00" xmlns="http://www.w3.org/2000/svg" xmlns:xlink="http://www.w3.org/1999/xlink">
<g id="graph1" class="graph" transform="scale(1 1) rotate(0) translate(4 131)">
<title>G</title>
<polygon fill="white" stroke="white" points="-4,5 -4,-131 847,-131 847,5 -4,5"/>
<text text-anchor="start" x="22.5" y="-23.6" font-family="Verdana" font-size="8.00">Title: ASGS (StatisticalAreaLevel3)</text>
<text text-anchor="start" x="71.5" y="-15.6" font-family="Verdana" font-size="8.00">Prefix: asgs</text>
<text text-anchor="start" x="8.5" y="-7.6" font-family="Verdana" font-size="8.00">URI: http://linked.data.gov.au/def/asgs#</text>
<!-- 1 -->
<g id="node2" class="node"><title>1</title>
<polygon fill="#ffd180" stroke="#706f6f" points="509.5,-118.5 332.5,-118.5 332.5,-41.5 509.5,-41.5 509.5,-118.5"/>
<text text-anchor="start" x="367.5" y="-103.1" font-family="Verdana" font-size="8.00">:StatisticalAreaLevel3</text>
<text text-anchor="start" x="341" y="-79.6" font-family="Verdana" font-size="8.00">:statisticalArea3Sa35DigitCode string</text>
<text text-anchor="start" x="341" y="-71.6" font-family="Verdana" font-size="8.00">:sa3Code2016 string</text>
<text text-anchor="start" x="341" y="-63.6" font-family="Verdana" font-size="8.00">:sa3Code2011 string</text>
<text text-anchor="start" x="341" y="-55.6" font-family="Verdana" font-size="8.00">:sa3Name2011 string</text>
<text text-anchor="start" x="341" y="-47.6" font-family="Verdana" font-size="8.00">:sa3Name2016 string</text>
</g>
<!-- 2 -->
<g id="node4" class="node"><title>2</title>
<polygon fill="#ffd180" stroke="#706f6f" points="808.5,-127 739.5,-127 739.5,-91 808.5,-91 808.5,-127"/>
<text text-anchor="start" x="753.5" y="-107.1" font-family="Verdana" font-size="8.00">:Feature</text>
</g>
<!-- 1&#45;&gt;2 -->
<g id="edge3" class="edge"><title>1&#45;&gt;2</title>
<path fill="none" stroke="brown" d="M509.667,-87.2431C578.614,-92.9396 671.929,-100.649 726.968,-105.197"/>
<polygon fill="brown" stroke="brown" points="726.798,-109.397 739.103,-106.199 727.49,-101.025 726.798,-109.397"/>
<text text-anchor="middle" x="608" y="-101.6" font-family="Verdana" font-size="8.00" fill="brown">rdfs:subClassOf</text>
</g>
<!-- 4 -->
<g id="node6" class="node"><title>4</title>
<polygon fill="#ffd180" stroke="#706f6f" points="841.5,-69 706.5,-69 706.5,-33 841.5,-33 841.5,-69"/>
<text text-anchor="start" x="720.5" y="-49.1" font-family="Verdana" font-size="8.00">:StatisticalAreaLevel2</text>
</g>
<!-- 1&#45;&gt;4 -->
<g id="edge5" class="edge"><title>1&#45;&gt;4</title>
<path fill="none" stroke="brown" d="M509.667,-72.7569C566.3,-68.0778 639.374,-62.0403 694.172,-57.5129"/>
<polygon fill="brown" stroke="brown" points="694.663,-61.6867 706.276,-56.5128 693.971,-53.3152 694.663,-61.6867"/>
<text text-anchor="middle" x="608" y="-71.6" font-family="Verdana" font-size="8.00" fill="brown">:isStatisticalAreaLevel3Of</text>
</g>
<!-- 3 -->
<g id="node7" class="node"><title>3</title>
<polygon fill="#ffd180" stroke="#706f6f" points="135.5,-98 0.5,-98 0.5,-62 135.5,-62 135.5,-98"/>
<text text-anchor="start" x="14.5" y="-78.1" font-family="Verdana" font-size="8.00">:StatisticalAreaLevel4</text>
</g>
<!-- 3&#45;&gt;1 -->
<g id="edge7" class="edge"><title>3&#45;&gt;1</title>
<path fill="none" stroke="brown" d="M135.847,-80C187.934,-80 261.075,-80 320.106,-80"/>
<polygon fill="brown" stroke="brown" points="320.475,-84.2001 332.475,-80 320.475,-75.8001 320.475,-84.2001"/>
<text text-anchor="middle" x="234" y="-82.6" font-family="Verdana" font-size="8.00" fill="brown">:isStatisticalAreaLevel4Of</text>
</g>
</g>
</svg>
