<?xml version="1.0" encoding="UTF-8" standalone="no"?>
<!DOCTYPE svg PUBLIC "-//W3C//DTD SVG 1.1//EN"
 "http://www.w3.org/Graphics/SVG/1.1/DTD/svg11.dtd">
<!-- Generated by graphviz version 2.28.0 (20110507.0327)
 -->
<!-- Title: G Pages: 1 -->
<svg width="760pt" height="135pt"
 viewBox="0.00 0.00 760.00 135.00" xmlns="http://www.w3.org/2000/svg" xmlns:xlink="http://www.w3.org/1999/xlink">
<g id="graph1" class="graph" transform="scale(1 1) rotate(0) translate(4 131)">
<title>G</title>
<polygon fill="white" stroke="white" points="-4,5 -4,-131 757,-131 757,5 -4,5"/>
<text text-anchor="start" x="29" y="-23.6" font-family="Verdana" font-size="8.00">Title: ASGS (IndigenousRegion)</text>
<text text-anchor="start" x="71.5" y="-15.6" font-family="Verdana" font-size="8.00">Prefix: asgs</text>
<text text-anchor="start" x="8.5" y="-7.6" font-family="Verdana" font-size="8.00">URI: http://linked.data.gov.au/def/asgs#</text>
<!-- 1 -->
<g id="node2" class="node"><title>1</title>
<polygon fill="#ffd180" stroke="#706f6f" points="457.5,-118.5 282.5,-118.5 282.5,-41.5 457.5,-41.5 457.5,-118.5"/>
<text text-anchor="start" x="325" y="-103.1" font-family="Verdana" font-size="8.00">:IndigenousRegion</text>
<text text-anchor="start" x="291" y="-79.6" font-family="Verdana" font-size="8.00">:indigenousRegions3DigitCode string</text>
<text text-anchor="start" x="291" y="-71.6" font-family="Verdana" font-size="8.00">:iregCode2016 string</text>
<text text-anchor="start" x="291" y="-63.6" font-family="Verdana" font-size="8.00">:iregCode2011 string</text>
<text text-anchor="start" x="291" y="-55.6" font-family="Verdana" font-size="8.00">:iregName2016 string</text>
<text text-anchor="start" x="291" y="-47.6" font-family="Verdana" font-size="8.00">:iregName2011 string</text>
</g>
<!-- 2 -->
<g id="node4" class="node"><title>2</title>
<polygon fill="#ffd180" stroke="#706f6f" points="731.5,-127 662.5,-127 662.5,-91 731.5,-91 731.5,-127"/>
<text text-anchor="start" x="676.5" y="-107.1" font-family="Verdana" font-size="8.00">:Feature</text>
</g>
<!-- 1&#45;&gt;2 -->
<g id="edge3" class="edge"><title>1&#45;&gt;2</title>
<path fill="none" stroke="brown" d="M457.667,-87.7334C519.553,-93.2555 600.354,-100.465 650.183,-104.912"/>
<polygon fill="brown" stroke="brown" points="649.828,-109.097 662.154,-105.98 650.575,-100.73 649.828,-109.097"/>
<text text-anchor="middle" x="550" y="-101.6" font-family="Verdana" font-size="8.00" fill="brown">rdfs:subClassOf</text>
</g>
<!-- 3 -->
<g id="node6" class="node"><title>3</title>
<polygon fill="#ffd180" stroke="#706f6f" points="751.5,-69 642.5,-69 642.5,-33 751.5,-33 751.5,-69"/>
<text text-anchor="start" x="656.5" y="-49.1" font-family="Verdana" font-size="8.00">:IndigenousArea</text>
</g>
<!-- 1&#45;&gt;3 -->
<g id="edge5" class="edge"><title>1&#45;&gt;3</title>
<path fill="none" stroke="brown" d="M457.667,-72.2666C511.752,-67.4406 580.284,-61.3254 629.964,-56.8925"/>
<polygon fill="brown" stroke="brown" points="630.588,-61.0535 642.168,-55.8035 629.842,-52.6867 630.588,-61.0535"/>
<text text-anchor="middle" x="550" y="-71.6" font-family="Verdana" font-size="8.00" fill="brown">:isIndigenousRegionOf</text>
</g>
<!-- 4 -->
<g id="node7" class="node"><title>4</title>
<polygon fill="#ffd180" stroke="#706f6f" points="111.5,-98 0.5,-98 0.5,-62 111.5,-62 111.5,-98"/>
<text text-anchor="start" x="14.5" y="-78.1" font-family="Verdana" font-size="8.00">:StateToIregPath</text>
</g>
<!-- 4&#45;&gt;1 -->
<g id="edge7" class="edge"><title>4&#45;&gt;1</title>
<path fill="none" stroke="brown" d="M111.703,-80C155.399,-80 217.775,-80 270.168,-80"/>
<polygon fill="brown" stroke="brown" points="270.216,-84.2001 282.216,-80 270.216,-75.8001 270.216,-84.2001"/>
<text text-anchor="middle" x="197" y="-82.6" font-family="Verdana" font-size="8.00" fill="brown">:stateToIregPathTo</text>
</g>
</g>
</svg>
