<?xml version="1.0" encoding="UTF-8" standalone="no"?>
<!DOCTYPE svg PUBLIC "-//W3C//DTD SVG 1.1//EN"
 "http://www.w3.org/Graphics/SVG/1.1/DTD/svg11.dtd">
<!-- Generated by graphviz version 2.28.0 (20110507.0327)
 -->
<!-- Title: G Pages: 1 -->
<svg width="494pt" height="193pt"
 viewBox="0.00 0.00 494.00 193.00" xmlns="http://www.w3.org/2000/svg" xmlns:xlink="http://www.w3.org/1999/xlink">
<g id="graph1" class="graph" transform="scale(1 1) rotate(0) translate(4 189)">
<title>G</title>
<polygon fill="white" stroke="white" points="-4,5 -4,-189 491,-189 491,5 -4,5"/>
<text text-anchor="start" x="35.5" y="-23.6" font-family="Verdana" font-size="8.00">Title: ASGS (NrmrToMbPath)</text>
<text text-anchor="start" x="71.5" y="-15.6" font-family="Verdana" font-size="8.00">Prefix: asgs</text>
<text text-anchor="start" x="8.5" y="-7.6" font-family="Verdana" font-size="8.00">URI: http://linked.data.gov.au/def/asgs#</text>
<!-- 1 -->
<g id="node2" class="node"><title>1</title>
<polygon fill="#ffd180" stroke="#706f6f" points="103.5,-127 0.5,-127 0.5,-91 103.5,-91 103.5,-127"/>
<text text-anchor="start" x="14.5" y="-107.1" font-family="Verdana" font-size="8.00">:NrmrToMbPath</text>
</g>
<!-- 2 -->
<g id="node4" class="node"><title>2</title>
<polygon fill="#ffd180" stroke="#706f6f" points="434,-185 330,-185 330,-149 434,-149 434,-185"/>
<text text-anchor="start" x="343.5" y="-165.1" font-family="Verdana" font-size="8.00">:GeospatialPath</text>
</g>
<!-- 1&#45;&gt;2 -->
<g id="edge3" class="edge"><title>1&#45;&gt;2</title>
<path fill="none" stroke="brown" d="M103.531,-117.935C161.148,-128.124 255.413,-144.793 317.832,-155.83"/>
<polygon fill="brown" stroke="brown" points="317.323,-160.005 329.871,-157.959 318.786,-151.733 317.323,-160.005"/>
<text text-anchor="middle" x="191" y="-141.6" font-family="Verdana" font-size="8.00" fill="brown">rdfs:subClassOf</text>
</g>
<!-- 3 -->
<g id="node6" class="node"><title>3</title>
<polygon fill="#ffd180" stroke="#706f6f" points="423,-127 341,-127 341,-91 423,-91 423,-127"/>
<text text-anchor="start" x="354.5" y="-107.1" font-family="Verdana" font-size="8.00">:MeshBlock</text>
</g>
<!-- 1&#45;&gt;3 -->
<g id="edge5" class="edge"><title>1&#45;&gt;3</title>
<path fill="none" stroke="brown" d="M103.531,-109C164.558,-109 266.701,-109 328.567,-109"/>
<polygon fill="brown" stroke="brown" points="328.754,-113.2 340.754,-109 328.754,-104.8 328.754,-113.2"/>
<text text-anchor="middle" x="191" y="-111.6" font-family="Verdana" font-size="8.00" fill="brown">:nrmrToMbPathTo</text>
</g>
<!-- 4 -->
<g id="node8" class="node"><title>4</title>
<polygon fill="#ffd180" stroke="#706f6f" points="485.5,-69 278.5,-69 278.5,-33 485.5,-33 485.5,-69"/>
<text text-anchor="start" x="292.5" y="-49.1" font-family="Verdana" font-size="8.00">:NaturalResourceManagementRegion</text>
</g>
<!-- 1&#45;&gt;4 -->
<g id="edge7" class="edge"><title>1&#45;&gt;4</title>
<path fill="none" stroke="brown" d="M103.531,-100.065C146.976,-92.3823 211.257,-81.0155 267.011,-71.1565"/>
<polygon fill="brown" stroke="brown" points="268.05,-75.2382 279.135,-69.0127 266.587,-66.9665 268.05,-75.2382"/>
<text text-anchor="middle" x="191" y="-93.6" font-family="Verdana" font-size="8.00" fill="brown">:nrmrToMbPathFrom</text>
</g>
</g>
</svg>
