<?xml version="1.0" encoding="UTF-8" standalone="no"?>
<!DOCTYPE svg PUBLIC "-//W3C//DTD SVG 1.1//EN"
 "http://www.w3.org/Graphics/SVG/1.1/DTD/svg11.dtd">
<!-- Generated by graphviz version 2.28.0 (20110507.0327)
 -->
<!-- Title: G Pages: 1 -->
<svg width="382pt" height="193pt"
 viewBox="0.00 0.00 382.00 193.00" xmlns="http://www.w3.org/2000/svg" xmlns:xlink="http://www.w3.org/1999/xlink">
<g id="graph1" class="graph" transform="scale(1 1) rotate(0) translate(4 189)">
<title>G</title>
<polygon fill="white" stroke="white" points="-4,5 -4,-189 379,-189 379,5 -4,5"/>
<text text-anchor="start" x="38.5" y="-23.6" font-family="Verdana" font-size="8.00">Title: ASGS (DznToMbPath)</text>
<text text-anchor="start" x="71.5" y="-15.6" font-family="Verdana" font-size="8.00">Prefix: asgs</text>
<text text-anchor="start" x="8.5" y="-7.6" font-family="Verdana" font-size="8.00">URI: http://linked.data.gov.au/def/asgs#</text>
<!-- 1 -->
<g id="node2" class="node"><title>1</title>
<polygon fill="#ffd180" stroke="#706f6f" points="96,-127 0,-127 0,-91 96,-91 96,-127"/>
<text text-anchor="start" x="13.5" y="-107.1" font-family="Verdana" font-size="8.00">:DznToMbPath</text>
</g>
<!-- 2 -->
<g id="node4" class="node"><title>2</title>
<polygon fill="#ffd180" stroke="#706f6f" points="371,-185 267,-185 267,-149 371,-149 371,-185"/>
<text text-anchor="start" x="280.5" y="-165.1" font-family="Verdana" font-size="8.00">:GeospatialPath</text>
</g>
<!-- 1&#45;&gt;2 -->
<g id="edge3" class="edge"><title>1&#45;&gt;2</title>
<path fill="none" stroke="brown" d="M96.164,-119.169C140.198,-128.663 206.235,-142.902 254.812,-153.376"/>
<polygon fill="brown" stroke="brown" points="254.146,-157.529 266.762,-155.952 255.917,-149.317 254.146,-157.529"/>
<text text-anchor="middle" x="180" y="-146.6" font-family="Verdana" font-size="8.00" fill="brown">rdfs:subClassOf</text>
</g>
<!-- 3 -->
<g id="node6" class="node"><title>3</title>
<polygon fill="#ffd180" stroke="#706f6f" points="360,-127 278,-127 278,-91 360,-91 360,-127"/>
<text text-anchor="start" x="291.5" y="-107.1" font-family="Verdana" font-size="8.00">:MeshBlock</text>
</g>
<!-- 1&#45;&gt;3 -->
<g id="edge5" class="edge"><title>1&#45;&gt;3</title>
<path fill="none" stroke="brown" d="M96.164,-109C143.57,-109 216.478,-109 265.647,-109"/>
<polygon fill="brown" stroke="brown" points="265.915,-113.2 277.915,-109 265.915,-104.8 265.915,-113.2"/>
<text text-anchor="middle" x="180" y="-111.6" font-family="Verdana" font-size="8.00" fill="brown">:dznToMbPathTo</text>
</g>
<!-- 4 -->
<g id="node8" class="node"><title>4</title>
<polygon fill="#ffd180" stroke="#706f6f" points="374,-69 264,-69 264,-33 374,-33 374,-69"/>
<text text-anchor="start" x="277.5" y="-49.1" font-family="Verdana" font-size="8.00">:DestinationZone</text>
</g>
<!-- 1&#45;&gt;4 -->
<g id="edge7" class="edge"><title>1&#45;&gt;4</title>
<path fill="none" stroke="brown" d="M96.164,-98.8308C139.364,-89.5162 203.743,-75.6354 252.035,-65.2229"/>
<polygon fill="brown" stroke="brown" points="253.098,-69.2902 263.944,-62.6553 251.328,-61.0789 253.098,-69.2902"/>
<text text-anchor="middle" x="180" y="-90.6" font-family="Verdana" font-size="8.00" fill="brown">:dznToMbPathFrom</text>
</g>
</g>
</svg>
