<?xml version="1.0" encoding="UTF-8" standalone="no"?>
<!DOCTYPE svg PUBLIC "-//W3C//DTD SVG 1.1//EN"
 "http://www.w3.org/Graphics/SVG/1.1/DTD/svg11.dtd">
<!-- Generated by graphviz version 2.28.0 (20110507.0327)
 -->
<!-- Title: G Pages: 1 -->
<svg width="418pt" height="193pt"
 viewBox="0.00 0.00 418.00 193.00" xmlns="http://www.w3.org/2000/svg" xmlns:xlink="http://www.w3.org/1999/xlink">
<g id="graph1" class="graph" transform="scale(1 1) rotate(0) translate(4 189)">
<title>G</title>
<polygon fill="white" stroke="white" points="-4,5 -4,-189 415,-189 415,5 -4,5"/>
<text text-anchor="start" x="32.5" y="-23.6" font-family="Verdana" font-size="8.00">Title: ASGS (StateToIregPath)</text>
<text text-anchor="start" x="71.5" y="-15.6" font-family="Verdana" font-size="8.00">Prefix: asgs</text>
<text text-anchor="start" x="8.5" y="-7.6" font-family="Verdana" font-size="8.00">URI: http://linked.data.gov.au/def/asgs#</text>
<!-- 1 -->
<g id="node2" class="node"><title>1</title>
<polygon fill="#ffd180" stroke="#706f6f" points="111.5,-127 0.5,-127 0.5,-91 111.5,-91 111.5,-127"/>
<text text-anchor="start" x="14.5" y="-107.1" font-family="Verdana" font-size="8.00">:StateToIregPath</text>
</g>
<!-- 2 -->
<g id="node4" class="node"><title>2</title>
<polygon fill="#ffd180" stroke="#706f6f" points="403,-185 299,-185 299,-149 403,-149 403,-185"/>
<text text-anchor="start" x="312.5" y="-165.1" font-family="Verdana" font-size="8.00">:GeospatialPath</text>
</g>
<!-- 1&#45;&gt;2 -->
<g id="edge3" class="edge"><title>1&#45;&gt;2</title>
<path fill="none" stroke="brown" d="M111.767,-119.841C161.555,-129.697 234.994,-144.234 287.154,-154.56"/>
<polygon fill="brown" stroke="brown" points="286.347,-158.681 298.935,-156.891 287.979,-150.441 286.347,-158.681"/>
<text text-anchor="middle" x="202" y="-148.6" font-family="Verdana" font-size="8.00" fill="brown">rdfs:subClassOf</text>
</g>
<!-- 3 -->
<g id="node6" class="node"><title>3</title>
<polygon fill="#ffd180" stroke="#706f6f" points="407,-127 295,-127 295,-91 407,-91 407,-127"/>
<text text-anchor="start" x="308.5" y="-107.1" font-family="Verdana" font-size="8.00">:StateOrTerritory</text>
</g>
<!-- 1&#45;&gt;3 -->
<g id="edge5" class="edge"><title>1&#45;&gt;3</title>
<path fill="none" stroke="brown" d="M111.767,-109C160.07,-109 230.635,-109 282.432,-109"/>
<polygon fill="brown" stroke="brown" points="282.506,-113.2 294.506,-109 282.506,-104.8 282.506,-113.2"/>
<text text-anchor="middle" x="202" y="-111.6" font-family="Verdana" font-size="8.00" fill="brown">:stateToIregPathFrom</text>
</g>
<!-- 4 -->
<g id="node8" class="node"><title>4</title>
<polygon fill="#ffd180" stroke="#706f6f" points="410,-69 292,-69 292,-33 410,-33 410,-69"/>
<text text-anchor="start" x="305.5" y="-49.1" font-family="Verdana" font-size="8.00">:IndigenousRegion</text>
</g>
<!-- 1&#45;&gt;4 -->
<g id="edge7" class="edge"><title>1&#45;&gt;4</title>
<path fill="none" stroke="brown" d="M111.767,-98.1587C159.303,-88.7489 228.4,-75.071 279.951,-64.8664"/>
<polygon fill="brown" stroke="brown" points="281.035,-68.9334 291.991,-62.483 279.404,-60.6933 281.035,-68.9334"/>
<text text-anchor="middle" x="202" y="-90.6" font-family="Verdana" font-size="8.00" fill="brown">:stateToIregPathTo</text>
</g>
</g>
</svg>
