<?xml version="1.0" encoding="UTF-8" standalone="no"?>
<!DOCTYPE svg PUBLIC "-//W3C//DTD SVG 1.1//EN"
 "http://www.w3.org/Graphics/SVG/1.1/DTD/svg11.dtd">
<!-- Generated by graphviz version 2.28.0 (20110507.0327)
 -->
<!-- Title: G Pages: 1 -->
<svg width="398pt" height="193pt"
 viewBox="0.00 0.00 398.00 193.00" xmlns="http://www.w3.org/2000/svg" xmlns:xlink="http://www.w3.org/1999/xlink">
<g id="graph1" class="graph" transform="scale(1 1) rotate(0) translate(4 189)">
<title>G</title>
<polygon fill="white" stroke="white" points="-4,5 -4,-189 395,-189 395,5 -4,5"/>
<text text-anchor="start" x="35.5" y="-23.6" font-family="Verdana" font-size="8.00">Title: ASGS (StateToRaPath)</text>
<text text-anchor="start" x="71.5" y="-15.6" font-family="Verdana" font-size="8.00">Prefix: asgs</text>
<text text-anchor="start" x="8.5" y="-7.6" font-family="Verdana" font-size="8.00">URI: http://linked.data.gov.au/def/asgs#</text>
<!-- 1 -->
<g id="node2" class="node"><title>1</title>
<polygon fill="#ffd180" stroke="#706f6f" points="102,-127 0,-127 0,-91 102,-91 102,-127"/>
<text text-anchor="start" x="13.5" y="-107.1" font-family="Verdana" font-size="8.00">:StateToRaPath</text>
</g>
<!-- 2 -->
<g id="node4" class="node"><title>2</title>
<polygon fill="#ffd180" stroke="#706f6f" points="385,-185 281,-185 281,-149 385,-149 385,-185"/>
<text text-anchor="start" x="294.5" y="-165.1" font-family="Verdana" font-size="8.00">:GeospatialPath</text>
</g>
<!-- 1&#45;&gt;2 -->
<g id="edge3" class="edge"><title>1&#45;&gt;2</title>
<path fill="none" stroke="brown" d="M102.058,-119.369C148.706,-129.032 218.455,-143.48 268.897,-153.929"/>
<polygon fill="brown" stroke="brown" points="268.354,-158.105 280.957,-156.427 270.058,-149.88 268.354,-158.105"/>
<text text-anchor="middle" x="189" y="-146.6" font-family="Verdana" font-size="8.00" fill="brown">rdfs:subClassOf</text>
</g>
<!-- 3 -->
<g id="node6" class="node"><title>3</title>
<polygon fill="#ffd180" stroke="#706f6f" points="389,-127 277,-127 277,-91 389,-91 389,-127"/>
<text text-anchor="start" x="290.5" y="-107.1" font-family="Verdana" font-size="8.00">:StateOrTerritory</text>
</g>
<!-- 1&#45;&gt;3 -->
<g id="edge5" class="edge"><title>1&#45;&gt;3</title>
<path fill="none" stroke="brown" d="M102.058,-109C147.398,-109 214.562,-109 264.61,-109"/>
<polygon fill="brown" stroke="brown" points="264.618,-113.2 276.618,-109 264.618,-104.8 264.618,-113.2"/>
<text text-anchor="middle" x="189" y="-111.6" font-family="Verdana" font-size="8.00" fill="brown">:stateToRaPathFrom</text>
</g>
<!-- 4 -->
<g id="node8" class="node"><title>4</title>
<polygon fill="#ffd180" stroke="#706f6f" points="389.5,-69 276.5,-69 276.5,-33 389.5,-33 389.5,-69"/>
<text text-anchor="start" x="290.5" y="-49.1" font-family="Verdana" font-size="8.00">:RemotenessArea</text>
</g>
<!-- 1&#45;&gt;4 -->
<g id="edge7" class="edge"><title>1&#45;&gt;4</title>
<path fill="none" stroke="brown" d="M102.058,-98.6308C147.253,-89.2691 214.132,-75.4155 264.128,-65.0592"/>
<polygon fill="brown" stroke="brown" points="265.23,-69.1201 276.129,-62.5733 263.526,-60.8947 265.23,-69.1201"/>
<text text-anchor="middle" x="189" y="-90.6" font-family="Verdana" font-size="8.00" fill="brown">:stateToRaPathTo</text>
</g>
</g>
</svg>
