<?xml version="1.0" encoding="UTF-8" standalone="no"?>
<!DOCTYPE svg PUBLIC "-//W3C//DTD SVG 1.1//EN"
 "http://www.w3.org/Graphics/SVG/1.1/DTD/svg11.dtd">
<!-- Generated by graphviz version 2.28.0 (20110507.0327)
 -->
<!-- Title: G Pages: 1 -->
<svg width="716pt" height="135pt"
 viewBox="0.00 0.00 716.00 135.00" xmlns="http://www.w3.org/2000/svg" xmlns:xlink="http://www.w3.org/1999/xlink">
<g id="graph1" class="graph" transform="scale(1 1) rotate(0) translate(4 131)">
<title>G</title>
<polygon fill="white" stroke="white" points="-4,5 -4,-131 713,-131 713,5 -4,5"/>
<text text-anchor="start" x="15.5" y="-23.6" font-family="Verdana" font-size="8.00">Title: ASGS (UrbanCentreAndLocality)</text>
<text text-anchor="start" x="71.5" y="-15.6" font-family="Verdana" font-size="8.00">Prefix: asgs</text>
<text text-anchor="start" x="8.5" y="-7.6" font-family="Verdana" font-size="8.00">URI: http://linked.data.gov.au/def/asgs#</text>
<!-- 1 -->
<g id="node2" class="node"><title>1</title>
<polygon fill="#ffd180" stroke="#706f6f" points="481.5,-114.5 332.5,-114.5 332.5,-45.5 481.5,-45.5 481.5,-114.5"/>
<text text-anchor="start" x="346.5" y="-99.1" font-family="Verdana" font-size="8.00">:UrbanCentreAndLocality</text>
<text text-anchor="start" x="341" y="-75.6" font-family="Verdana" font-size="8.00">:uclName2011 string</text>
<text text-anchor="start" x="341" y="-67.6" font-family="Verdana" font-size="8.00">:uclName2016 string</text>
<text text-anchor="start" x="341" y="-59.6" font-family="Verdana" font-size="8.00">:uclCode2016 string</text>
<text text-anchor="start" x="341" y="-51.6" font-family="Verdana" font-size="8.00">:uclCode2011 string</text>
</g>
<!-- 2 -->
<g id="node4" class="node"><title>2</title>
<polygon fill="#ffd180" stroke="#706f6f" points="707.5,-98 638.5,-98 638.5,-62 707.5,-62 707.5,-98"/>
<text text-anchor="start" x="652.5" y="-78.1" font-family="Verdana" font-size="8.00">:Feature</text>
</g>
<!-- 1&#45;&gt;2 -->
<g id="edge3" class="edge"><title>1&#45;&gt;2</title>
<path fill="none" stroke="brown" d="M481.539,-80C527.933,-80 586.403,-80 626.238,-80"/>
<polygon fill="brown" stroke="brown" points="626.478,-84.2001 638.478,-80 626.478,-75.8001 626.478,-84.2001"/>
<text text-anchor="middle" x="560" y="-82.6" font-family="Verdana" font-size="8.00" fill="brown">rdfs:subClassOf</text>
</g>
<!-- 3 -->
<g id="node5" class="node"><title>3</title>
<polygon fill="#ffd180" stroke="#706f6f" points="115.5,-127 18.5,-127 18.5,-91 115.5,-91 115.5,-127"/>
<text text-anchor="start" x="32.5" y="-107.1" font-family="Verdana" font-size="8.00">:UclToSa1Path</text>
</g>
<!-- 3&#45;&gt;1 -->
<g id="edge5" class="edge"><title>3&#45;&gt;1</title>
<path fill="none" stroke="brown" d="M115.71,-104.907C168.706,-100.36 255.335,-92.9269 320.188,-87.3626"/>
<polygon fill="brown" stroke="brown" points="320.844,-91.5218 332.441,-86.3113 320.126,-83.1526 320.844,-91.5218"/>
<text text-anchor="middle" x="233" y="-101.6" font-family="Verdana" font-size="8.00" fill="brown">:uclToSa1PathFrom</text>
</g>
<!-- 4 -->
<g id="node7" class="node"><title>4</title>
<polygon fill="#ffd180" stroke="#706f6f" points="133.5,-69 0.5,-69 0.5,-33 133.5,-33 133.5,-69"/>
<text text-anchor="start" x="14.5" y="-49.1" font-family="Verdana" font-size="8.00">:SectionOfStateRange</text>
</g>
<!-- 4&#45;&gt;1 -->
<g id="edge7" class="edge"><title>4&#45;&gt;1</title>
<path fill="none" stroke="brown" d="M133.571,-56.6259C186.801,-61.193 262.276,-67.6687 320.291,-72.6463"/>
<polygon fill="brown" stroke="brown" points="320.076,-76.8432 332.391,-73.6845 320.794,-68.4739 320.076,-76.8432"/>
<text text-anchor="middle" x="233" y="-71.6" font-family="Verdana" font-size="8.00" fill="brown">:isSectionOfStateRangeOf</text>
</g>
</g>
</svg>
