<?xml version="1.0" encoding="UTF-8" standalone="no"?>
<!DOCTYPE svg PUBLIC "-//W3C//DTD SVG 1.1//EN"
 "http://www.w3.org/Graphics/SVG/1.1/DTD/svg11.dtd">
<!-- Generated by graphviz version 2.28.0 (20110507.0327)
 -->
<!-- Title: G Pages: 1 -->
<svg width="392pt" height="193pt"
 viewBox="0.00 0.00 392.00 193.00" xmlns="http://www.w3.org/2000/svg" xmlns:xlink="http://www.w3.org/1999/xlink">
<g id="graph1" class="graph" transform="scale(1 1) rotate(0) translate(4 189)">
<title>G</title>
<polygon fill="white" stroke="white" points="-4,5 -4,-189 389,-189 389,5 -4,5"/>
<text text-anchor="start" x="38.5" y="-23.6" font-family="Verdana" font-size="8.00">Title: ASGS (PoaToMbPath)</text>
<text text-anchor="start" x="71.5" y="-15.6" font-family="Verdana" font-size="8.00">Prefix: asgs</text>
<text text-anchor="start" x="8.5" y="-7.6" font-family="Verdana" font-size="8.00">URI: http://linked.data.gov.au/def/asgs#</text>
<!-- 1 -->
<g id="node2" class="node"><title>1</title>
<polygon fill="#ffd180" stroke="#706f6f" points="110,-131.5 0,-131.5 0,-86.5 110,-86.5 110,-131.5"/>
<text text-anchor="start" x="20.5" y="-116.1" font-family="Verdana" font-size="8.00">:PoaToMbPath</text>
<text text-anchor="start" x="8" y="-92.6" font-family="Verdana" font-size="8.00">:poaName2011 string</text>
</g>
<!-- 2 -->
<g id="node4" class="node"><title>2</title>
<polygon fill="#ffd180" stroke="#706f6f" points="384,-185 280,-185 280,-149 384,-149 384,-185"/>
<text text-anchor="start" x="293.5" y="-165.1" font-family="Verdana" font-size="8.00">:GeospatialPath</text>
</g>
<!-- 1&#45;&gt;2 -->
<g id="edge3" class="edge"><title>1&#45;&gt;2</title>
<path fill="none" stroke="brown" d="M110.003,-120.39C155.426,-129.97 220.415,-143.677 268.163,-153.747"/>
<polygon fill="brown" stroke="brown" points="267.3,-157.857 279.908,-156.224 269.034,-149.638 267.3,-157.857"/>
<text text-anchor="middle" x="195" y="-148.6" font-family="Verdana" font-size="8.00" fill="brown">rdfs:subClassOf</text>
</g>
<!-- 3 -->
<g id="node6" class="node"><title>3</title>
<polygon fill="#ffd180" stroke="#706f6f" points="374,-127 290,-127 290,-91 374,-91 374,-127"/>
<text text-anchor="start" x="303.5" y="-107.1" font-family="Verdana" font-size="8.00">:PostalArea</text>
</g>
<!-- 1&#45;&gt;3 -->
<g id="edge5" class="edge"><title>1&#45;&gt;3</title>
<path fill="none" stroke="brown" d="M110.003,-109C158.496,-109 229.287,-109 277.595,-109"/>
<polygon fill="brown" stroke="brown" points="277.67,-113.2 289.67,-109 277.67,-104.8 277.67,-113.2"/>
<text text-anchor="middle" x="195" y="-111.6" font-family="Verdana" font-size="8.00" fill="brown">:poaToMbPathFrom</text>
</g>
<!-- 4 -->
<g id="node8" class="node"><title>4</title>
<polygon fill="#ffd180" stroke="#706f6f" points="373,-69 291,-69 291,-33 373,-33 373,-69"/>
<text text-anchor="start" x="304.5" y="-49.1" font-family="Verdana" font-size="8.00">:MeshBlock</text>
</g>
<!-- 1&#45;&gt;4 -->
<g id="edge7" class="edge"><title>1&#45;&gt;4</title>
<path fill="none" stroke="brown" d="M110.003,-97.6103C159.031,-87.2698 230.853,-72.1218 279.187,-61.9278"/>
<polygon fill="brown" stroke="brown" points="280.066,-66.0348 290.941,-59.4487 278.333,-57.8156 280.066,-66.0348"/>
<text text-anchor="middle" x="195" y="-88.6" font-family="Verdana" font-size="8.00" fill="brown">:poaToMbPathTo</text>
</g>
</g>
</svg>
