<?xml version="1.0" encoding="UTF-8" standalone="no"?>
<!DOCTYPE svg PUBLIC "-//W3C//DTD SVG 1.1//EN"
 "http://www.w3.org/Graphics/SVG/1.1/DTD/svg11.dtd">
<!-- Generated by graphviz version 2.28.0 (20110507.0327)
 -->
<!-- Title: G Pages: 1 -->
<svg width="406pt" height="193pt"
 viewBox="0.00 0.00 406.00 193.00" xmlns="http://www.w3.org/2000/svg" xmlns:xlink="http://www.w3.org/1999/xlink">
<g id="graph1" class="graph" transform="scale(1 1) rotate(0) translate(4 189)">
<title>G</title>
<polygon fill="white" stroke="white" points="-4,5 -4,-189 403,-189 403,5 -4,5"/>
<text text-anchor="start" x="33.5" y="-23.6" font-family="Verdana" font-size="8.00">Title: ASGS (StateToSosPath)</text>
<text text-anchor="start" x="71.5" y="-15.6" font-family="Verdana" font-size="8.00">Prefix: asgs</text>
<text text-anchor="start" x="8.5" y="-7.6" font-family="Verdana" font-size="8.00">URI: http://linked.data.gov.au/def/asgs#</text>
<!-- 1 -->
<g id="node2" class="node"><title>1</title>
<polygon fill="#ffd180" stroke="#706f6f" points="107.5,-127 0.5,-127 0.5,-91 107.5,-91 107.5,-127"/>
<text text-anchor="start" x="14.5" y="-107.1" font-family="Verdana" font-size="8.00">:StateToSosPath</text>
</g>
<!-- 2 -->
<g id="node4" class="node"><title>2</title>
<polygon fill="#ffd180" stroke="#706f6f" points="394,-185 290,-185 290,-149 394,-149 394,-185"/>
<text text-anchor="start" x="303.5" y="-165.1" font-family="Verdana" font-size="8.00">:GeospatialPath</text>
</g>
<!-- 1&#45;&gt;2 -->
<g id="edge3" class="edge"><title>1&#45;&gt;2</title>
<path fill="none" stroke="brown" d="M107.79,-119.706C155.904,-129.463 227.048,-143.891 278.093,-154.243"/>
<polygon fill="brown" stroke="brown" points="277.365,-158.38 289.96,-156.649 279.035,-150.148 277.365,-158.38"/>
<text text-anchor="middle" x="197" y="-148.6" font-family="Verdana" font-size="8.00" fill="brown">rdfs:subClassOf</text>
</g>
<!-- 3 -->
<g id="node6" class="node"><title>3</title>
<polygon fill="#ffd180" stroke="#706f6f" points="398,-127 286,-127 286,-91 398,-91 398,-127"/>
<text text-anchor="start" x="299.5" y="-107.1" font-family="Verdana" font-size="8.00">:StateOrTerritory</text>
</g>
<!-- 1&#45;&gt;3 -->
<g id="edge5" class="edge"><title>1&#45;&gt;3</title>
<path fill="none" stroke="brown" d="M107.79,-109C154.461,-109 222.8,-109 273.446,-109"/>
<polygon fill="brown" stroke="brown" points="273.591,-113.2 285.591,-109 273.591,-104.8 273.591,-113.2"/>
<text text-anchor="middle" x="197" y="-111.6" font-family="Verdana" font-size="8.00" fill="brown">:stateToSosPathFrom</text>
</g>
<!-- 4 -->
<g id="node8" class="node"><title>4</title>
<polygon fill="#ffd180" stroke="#706f6f" points="393.5,-69 290.5,-69 290.5,-33 393.5,-33 393.5,-69"/>
<text text-anchor="start" x="304.5" y="-49.1" font-family="Verdana" font-size="8.00">:SectionOfState</text>
</g>
<!-- 1&#45;&gt;4 -->
<g id="edge7" class="edge"><title>1&#45;&gt;4</title>
<path fill="none" stroke="brown" d="M107.79,-98.2943C156.054,-88.5066 227.49,-74.0195 278.568,-63.661"/>
<polygon fill="brown" stroke="brown" points="279.512,-67.7551 290.438,-61.2538 277.843,-59.5227 279.512,-67.7551"/>
<text text-anchor="middle" x="197" y="-90.6" font-family="Verdana" font-size="8.00" fill="brown">:stateToSosPathTo</text>
</g>
</g>
</svg>
