<?xml version="1.0" encoding="UTF-8" standalone="no"?>
<!DOCTYPE svg PUBLIC "-//W3C//DTD SVG 1.1//EN"
 "http://www.w3.org/Graphics/SVG/1.1/DTD/svg11.dtd">
<!-- Generated by graphviz version 2.28.0 (20110507.0327)
 -->
<!-- Title: G Pages: 1 -->
<svg width="648pt" height="135pt"
 viewBox="0.00 0.00 648.00 135.00" xmlns="http://www.w3.org/2000/svg" xmlns:xlink="http://www.w3.org/1999/xlink">
<g id="graph1" class="graph" transform="scale(1 1) rotate(0) translate(4 131)">
<title>G</title>
<polygon fill="white" stroke="white" points="-4,5 -4,-131 645,-131 645,5 -4,5"/>
<text text-anchor="start" x="19.5" y="-23.6" font-family="Verdana" font-size="8.00">Title: ASGS (LocalGovernmentArea)</text>
<text text-anchor="start" x="71.5" y="-15.6" font-family="Verdana" font-size="8.00">Prefix: asgs</text>
<text text-anchor="start" x="8.5" y="-7.6" font-family="Verdana" font-size="8.00">URI: http://linked.data.gov.au/def/asgs#</text>
<!-- 1 -->
<g id="node2" class="node"><title>1</title>
<polygon fill="#ffd180" stroke="#706f6f" points="413.5,-106.5 274.5,-106.5 274.5,-53.5 413.5,-53.5 413.5,-106.5"/>
<text text-anchor="start" x="288.5" y="-91.1" font-family="Verdana" font-size="8.00">:LocalGovernmentArea</text>
<text text-anchor="start" x="283" y="-67.6" font-family="Verdana" font-size="8.00">:lgaCode2012 string</text>
<text text-anchor="start" x="283" y="-59.6" font-family="Verdana" font-size="8.00">:lgaName2012 string</text>
</g>
<!-- 2 -->
<g id="node4" class="node"><title>2</title>
<polygon fill="#ffd180" stroke="#706f6f" points="639.5,-98 570.5,-98 570.5,-62 639.5,-62 639.5,-98"/>
<text text-anchor="start" x="584.5" y="-78.1" font-family="Verdana" font-size="8.00">:Feature</text>
</g>
<!-- 1&#45;&gt;2 -->
<g id="edge3" class="edge"><title>1&#45;&gt;2</title>
<path fill="none" stroke="brown" d="M413.727,-80C459.398,-80 518.11,-80 558.159,-80"/>
<polygon fill="brown" stroke="brown" points="558.21,-84.2001 570.21,-80 558.21,-75.8001 558.21,-84.2001"/>
<text text-anchor="middle" x="492" y="-82.6" font-family="Verdana" font-size="8.00" fill="brown">rdfs:subClassOf</text>
</g>
<!-- 3 -->
<g id="node5" class="node"><title>3</title>
<polygon fill="#ffd180" stroke="#706f6f" points="107.5,-127 0.5,-127 0.5,-91 107.5,-91 107.5,-127"/>
<text text-anchor="start" x="14.5" y="-107.1" font-family="Verdana" font-size="8.00">:StateToLgaPath</text>
</g>
<!-- 3&#45;&gt;1 -->
<g id="edge5" class="edge"><title>3&#45;&gt;1</title>
<path fill="none" stroke="brown" d="M107.824,-103.681C151.104,-99.3228 213.053,-93.085 262.505,-88.1054"/>
<polygon fill="brown" stroke="brown" points="262.947,-92.2823 274.466,-86.901 262.105,-83.9245 262.947,-92.2823"/>
<text text-anchor="middle" x="191" y="-100.6" font-family="Verdana" font-size="8.00" fill="brown">:stateToLgaPathTo</text>
</g>
<!-- 4 -->
<g id="node7" class="node"><title>4</title>
<polygon fill="#ffd180" stroke="#706f6f" points="101.5,-69 6.5,-69 6.5,-33 101.5,-33 101.5,-69"/>
<text text-anchor="start" x="20.5" y="-49.1" font-family="Verdana" font-size="8.00">:LgaToMbPath</text>
</g>
<!-- 4&#45;&gt;1 -->
<g id="edge7" class="edge"><title>4&#45;&gt;1</title>
<path fill="none" stroke="brown" d="M101.592,-55.6916C144.923,-60.0548 210.406,-66.6486 262.244,-71.8683"/>
<polygon fill="brown" stroke="brown" points="262.069,-76.0719 274.43,-73.0954 262.911,-67.7142 262.069,-76.0719"/>
<text text-anchor="middle" x="191" y="-70.6" font-family="Verdana" font-size="8.00" fill="brown">:lgaToMbPathFrom</text>
</g>
</g>
</svg>
